<?xml version="1.0" standalone="no"?>
<!DOCTYPE svg PUBLIC "-//W3C//DTD SVG 20010904//EN"
 "http://www.w3.org/TR/2001/REC-SVG-20010904/DTD/svg10.dtd">
<svg version="1.0" xmlns="http://www.w3.org/2000/svg"
 width="432.000000pt" height="288.000000pt" viewBox="0 0 432.000000 288.000000"
 preserveAspectRatio="xMidYMid meet">

<g transform="translate(0.000000,288.000000) scale(0.100000,-0.100000)"
fill="#000000" stroke="none">
<path d="M1650 2676 c0 -7 -9 -16 -21 -19 -16 -4 -20 -12 -17 -34 2 -22 9 -29
31 -31 26 -3 27 -2 27 47 0 28 -4 51 -10 51 -5 0 -10 -6 -10 -14z m0 -51 c0
-26 -14 -33 -25 -15 -9 14 1 40 15 40 5 0 10 -11 10 -25z"/>
<path d="M2440 2675 c0 -8 -7 -15 -15 -15 -8 0 -19 -8 -24 -18 -13 -25 5 -52
34 -52 23 0 25 4 25 50 0 28 -4 50 -10 50 -5 0 -10 -7 -10 -15z m-4 -61 c-5
-13 -10 -14 -18 -6 -6 6 -8 18 -4 28 5 13 10 14 18 6 6 -6 8 -18 4 -28z"/>
<path d="M1019 2659 c-16 -31 3 -69 35 -69 14 0 28 5 32 11 4 7 0 9 -13 5 -27
-9 -51 19 -36 42 6 10 21 16 32 15 13 -2 20 1 16 7 -11 18 -54 11 -66 -11z"/>
<path d="M1138 2669 c-2 -6 -2 -26 0 -45 3 -24 9 -34 21 -33 10 0 11 2 4 6
-15 5 -18 50 -4 55 5 2 3 8 -4 15 -9 9 -15 9 -17 2z"/>
<path d="M1290 2635 c0 -25 5 -45 10 -45 6 0 10 9 10 20 0 13 7 20 20 20 13 0
20 -7 20 -20 0 -11 5 -20 10 -20 6 0 10 20 10 45 0 25 -4 45 -10 45 -5 0 -10
-9 -10 -20 0 -13 -7 -20 -20 -20 -13 0 -20 7 -20 20 0 11 -4 20 -10 20 -5 0
-10 -20 -10 -45z"/>
<path d="M1718 2668 c-9 -28 7 -73 27 -75 11 -2 14 0 8 3 -17 7 -17 54 0 54
20 0 39 -60 24 -78 -10 -12 -9 -14 3 -10 17 5 55 98 41 98 -5 0 -13 -12 -18
-27 l-10 -28 -6 28 c-5 18 -14 27 -27 27 -11 0 -20 5 -20 10 0 14 -17 12 -22
-2z"/>
<path d="M2050 2635 c0 -44 0 -45 33 -44 23 1 26 3 10 6 -19 4 -23 11 -23 44
0 21 -4 39 -10 39 -5 0 -10 -20 -10 -45z"/>
<path d="M2192 2638 c2 -34 7 -43 23 -45 11 -2 14 0 8 3 -16 7 -17 54 -2 54 6
0 4 7 -5 15 -23 23 -27 18 -24 -27z"/>
<path d="M2278 2669 c-2 -6 -2 -26 0 -45 3 -24 9 -34 21 -33 10 0 11 2 4 6
-15 5 -18 50 -4 55 5 2 3 8 -4 15 -9 9 -15 9 -17 2z"/>
<path d="M2670 2626 c0 -34 -5 -56 -12 -59 -8 -4 -7 -6 3 -6 9 -1 20 6 23 15
10 26 7 104 -4 104 -5 0 -10 -24 -10 -54z"/>
<path d="M2900 2669 c0 -5 5 -7 10 -4 6 4 10 -8 10 -29 0 -19 -6 -37 -12 -39
-7 -3 -2 -6 12 -6 24 -1 25 2 22 44 -3 36 -8 45 -23 45 -10 0 -19 -5 -19 -11z"/>
<path d="M2974 2667 c-3 -9 -4 -28 -2 -44 2 -22 8 -28 28 -28 23 0 25 4 25 40
0 34 -3 40 -23 43 -13 2 -24 -3 -28 -11z m41 -32 c0 -16 -6 -30 -12 -32 -9 -3
-13 7 -13 32 0 25 4 35 13 33 6 -3 12 -17 12 -33z"/>
<path d="M3120 2669 c0 -6 9 -8 20 -4 27 8 26 -14 -1 -49 l-20 -26 33 1 c18 1
25 3 15 6 -17 4 -17 6 -2 30 9 13 14 31 11 39 -6 16 -56 19 -56 3z"/>
<path d="M3204 2667 c-3 -9 -4 -28 -2 -44 2 -22 8 -28 28 -28 23 0 25 4 25 40
0 34 -3 40 -23 43 -13 2 -24 -3 -28 -11z m36 -32 c0 -37 -13 -47 -24 -19 -8
20 2 54 15 54 5 0 9 -16 9 -35z"/>
<path d="M3280 2669 c0 -5 5 -7 10 -4 6 4 10 -8 10 -29 0 -19 -6 -37 -12 -39
-7 -3 0 -6 17 -6 22 -1 26 2 17 11 -7 7 -12 27 -12 45 0 23 -5 33 -15 33 -8 0
-15 -5 -15 -11z"/>
<path d="M3357 2674 c-15 -15 -6 -45 16 -53 l22 -9 -25 -10 -25 -11 27 0 c21
-1 29 5 34 23 9 37 1 61 -22 64 -11 2 -23 0 -27 -4z m33 -24 c0 -11 -4 -20 -9
-20 -14 0 -23 18 -16 30 10 17 25 11 25 -10z"/>
<path d="M1100 2625 c0 -19 5 -35 10 -35 6 0 10 16 10 35 0 19 -4 35 -10 35
-5 0 -10 -16 -10 -35z"/>
<path d="M1183 2646 c18 -45 19 -68 6 -77 -11 -7 -11 -9 2 -9 17 0 56 86 45
98 -4 3 -9 -4 -13 -16 -6 -25 -23 -30 -23 -8 0 8 -5 18 -12 22 -8 5 -9 2 -5
-10z"/>
<path d="M1382 2628 c2 -28 8 -34 31 -36 25 -3 27 -1 26 35 -1 35 -2 36 -8 9
-9 -41 -31 -46 -31 -7 0 17 -5 31 -11 31 -6 0 -9 -14 -7 -32z"/>
<path d="M1460 2625 c0 -19 5 -35 10 -35 6 0 10 14 10 30 0 17 5 30 10 30 6 0
10 -13 10 -30 0 -16 5 -30 10 -30 6 0 10 11 10 24 0 14 5 28 10 31 6 4 10 -7
10 -24 0 -17 5 -31 11 -31 6 0 9 14 7 33 -3 31 -5 32 -50 35 l-48 2 0 -35z"/>
<path d="M1583 2625 c0 -22 2 -30 4 -17 2 12 2 30 0 40 -3 9 -5 -1 -4 -23z"/>
<path d="M1693 2625 c0 -22 2 -30 4 -17 2 12 2 30 0 40 -3 9 -5 -1 -4 -23z"/>
<path d="M1883 2625 c6 -19 16 -35 22 -35 6 0 16 16 22 35 6 19 7 35 2 35 -5
0 -12 -12 -16 -27 l-6 -28 -10 28 c-13 40 -27 33 -14 -8z"/>
<path d="M1950 2640 c0 -11 7 -20 15 -20 8 0 15 -5 15 -11 0 -6 -7 -9 -15 -5
-8 3 -15 1 -15 -4 0 -14 37 -12 46 1 4 7 -3 20 -17 29 l-23 18 25 5 c23 4 23
4 -3 6 -22 1 -28 -4 -28 -19z"/>
<path d="M2120 2650 c0 -5 6 -7 14 -4 8 3 17 1 21 -5 3 -7 -2 -11 -14 -11 -14
0 -21 -6 -21 -20 0 -16 7 -20 30 -20 31 0 38 17 24 54 -7 17 -54 23 -54 6z
m35 -40 c-3 -5 -10 -10 -16 -10 -5 0 -9 5 -9 10 0 6 7 10 16 10 8 0 12 -4 9
-10z"/>
<path d="M2240 2625 c0 -19 5 -35 10 -35 6 0 10 16 10 35 0 19 -4 35 -10 35
-5 0 -10 -16 -10 -35z"/>
<path d="M2322 2628 c2 -28 8 -34 31 -36 25 -3 27 -1 26 35 l-1 38 -9 -32
c-12 -41 -29 -43 -29 -3 0 17 -5 30 -11 30 -6 0 -9 -14 -7 -32z"/>
<path d="M2475 2641 c-9 -28 5 -51 31 -51 13 0 24 4 24 9 0 5 -9 7 -20 4 -11
-3 -20 0 -20 6 0 6 11 11 25 11 23 0 24 2 15 20 -13 25 -47 26 -55 1z m40 -1
c3 -5 -1 -10 -9 -10 -9 0 -16 5 -16 10 0 6 4 10 9 10 6 0 13 -4 16 -10z"/>
<path d="M2710 2650 c0 -6 5 -8 10 -5 6 3 16 3 22 -1 9 -6 5 -10 -12 -14 -34
-8 -32 -34 3 -38 27 -3 28 -1 25 30 -2 25 -8 34 -25 36 -13 2 -23 -2 -23 -8z
m35 -40 c-3 -5 -10 -10 -16 -10 -5 0 -9 5 -9 10 0 6 7 10 16 10 8 0 12 -4 9
-10z"/>
<path d="M2780 2626 c0 -20 5 -36 10 -36 6 0 10 14 10 30 0 40 17 38 29 -2
l10 -33 -2 35 c-2 30 -6 35 -29 38 -26 3 -28 1 -28 -32z"/>
<path d="M2588 2623 c6 -2 18 -2 25 0 6 3 1 5 -13 5 -14 0 -19 -2 -12 -5z"/>
<path d="M3050 2594 c0 -8 5 -12 10 -9 6 3 10 10 10 16 0 5 -4 9 -10 9 -5 0
-10 -7 -10 -16z"/>
<path d="M540 2486 c0 -34 -4 -46 -17 -49 -17 -4 -17 -5 0 -6 16 -1 17 -17 17
-195 0 -177 -2 -195 -17 -199 -17 -4 -17 -5 0 -6 16 -1 17 -17 17 -195 0 -177
-2 -195 -17 -199 -17 -4 -17 -5 0 -6 16 -1 17 -17 17 -190 0 -172 -2 -190 -17
-194 -17 -4 -17 -5 0 -6 16 -1 17 -17 17 -195 0 -177 -2 -195 -17 -199 -17 -4
-17 -5 0 -6 16 -1 17 -17 17 -190 0 -172 -2 -190 -17 -194 -17 -4 -17 -5 0 -6
14 -1 17 -10 17 -51 0 -37 4 -50 14 -50 8 0 17 -10 19 -22 l4 -23 2 23 1 22
224 0 225 0 4 -22 4 -23 2 23 1 22 224 0 225 0 4 -22 4 -23 2 23 1 22 224 0
225 0 4 -23 4 -22 2 23 1 22 219 0 220 0 4 -23 4 -22 2 23 1 22 224 0 225 0 4
-22 4 -23 2 23 1 22 224 0 225 0 4 -23 4 -22 2 23 1 22 224 0 225 0 4 -22 4
-23 2 23 c1 20 6 22 56 22 l55 0 0 1090 0 1090 -1680 0 -1680 0 0 -44z m3350
-1046 l0 -1080 -1670 0 -1670 0 0 1080 0 1080 1670 0 1670 0 0 -1080z"/>
<path d="M1394 2455 c-4 -8 -16 -16 -28 -16 -20 -1 -20 -2 -1 -6 11 -3 25 -13
32 -22 12 -15 14 -15 26 0 7 9 21 19 32 22 19 4 19 5 -1 6 -12 0 -24 8 -28 16
-3 8 -10 15 -16 15 -6 0 -13 -7 -16 -15z"/>
<path d="M3589 2444 c-18 -21 0 -48 35 -52 24 -3 26 0 26 32 0 31 -3 36 -24
36 -13 0 -29 -7 -37 -16z m41 -19 c0 -16 -6 -25 -15 -25 -9 0 -15 9 -15 25 0
16 6 25 15 25 9 0 15 -9 15 -25z"/>
<path d="M3776 2440 c-22 -23 -15 -50 14 -50 16 0 20 6 20 35 0 39 -7 42 -34
15z m14 -26 c0 -8 -5 -12 -10 -9 -6 4 -8 11 -5 16 9 14 15 11 15 -7z"/>
<path d="M1883 2433 c15 -2 39 -2 55 0 15 2 2 4 -28 4 -30 0 -43 -2 -27 -4z"/>
<path d="M2323 2433 c15 -2 37 -2 50 0 12 2 0 4 -28 4 -27 0 -38 -2 -22 -4z"/>
<path d="M3660 2415 c0 -20 4 -26 18 -23 9 2 17 12 17 23 0 11 -8 21 -17 23
-14 3 -18 -3 -18 -23z m30 0 c0 -8 -4 -15 -10 -15 -5 0 -10 7 -10 15 0 8 5 15
10 15 6 0 10 -7 10 -15z"/>
<path d="M3711 2418 c-1 -22 4 -28 19 -28 15 0 20 6 19 28 -2 23 -2 24 -6 5
-2 -13 -8 -23 -13 -23 -5 0 -11 10 -13 23 -4 19 -4 18 -6 -5z"/>
<path d="M1494 2235 c0 -49 1 -71 3 -48 2 23 2 64 0 90 -2 26 -3 8 -3 -42z"/>
<path d="M1254 2296 c-12 -31 0 -51 30 -51 36 0 56 26 37 49 -17 20 -60 21
-67 2z"/>
<path d="M1587 2304 c-11 -11 -8 -52 4 -60 46 -28 126 7 103 44 -15 23 -62 28
-70 7 -6 -14 -7 -14 -18 0 -6 9 -15 13 -19 9z"/>
<path d="M1755 2295 c-3 -8 -7 -22 -10 -30 -9 -28 -7 -30 24 -27 32 4 39 -6
19 -26 -8 -8 -8 -12 -1 -12 6 0 16 7 23 15 7 8 10 15 6 15 -3 0 2 8 12 18 11
12 20 14 24 8 4 -6 8 3 8 19 0 20 -3 26 -9 17 -7 -11 -9 -11 -14 2 -8 21 -76
22 -82 1z"/>
<path d="M2036 2278 c-18 -41 -15 -45 25 -42 39 3 52 15 47 45 -2 18 -10 25
-31 27 -23 3 -30 -2 -41 -30z"/>
<path d="M2134 2296 c-12 -31 0 -51 31 -51 27 0 30 3 30 30 0 25 -4 30 -28 33
-17 2 -29 -2 -33 -12z"/>
<path d="M3017 2295 c-10 -10 -46 -16 -108 -20 -102 -7 -109 -9 -109 -33 0
-13 -4 -11 -16 6 -18 26 -51 26 -68 0 -8 -14 -6 -22 11 -39 21 -21 23 -21 47
-5 14 9 26 12 26 6 0 -5 13 -10 29 -10 20 0 31 -6 34 -17 3 -13 5 -14 6 -3 1
21 201 24 201 3 0 -24 30 -27 51 -4 25 26 45 27 59 1 13 -25 38 -26 47 -2 4 9
13 23 20 30 36 36 4 63 -72 59 -50 -2 -59 1 -72 21 -18 26 -64 30 -86 7z"/>
<path d="M3372 2298 c-7 -7 -12 -23 -12 -37 0 -25 0 -25 -15 -5 -17 25 -61 22
-68 -5 -6 -23 8 -56 24 -56 7 0 16 -11 20 -25 l7 -25 1 28 c1 29 21 39 21 10
0 -15 2 -16 10 -3 5 8 22 15 37 15 19 0 31 7 38 23 12 28 36 28 53 1 15 -24
50 -22 65 3 14 21 -7 48 -38 48 -14 0 -25 7 -28 20 -4 17 -14 20 -54 20 -27 0
-54 -5 -61 -12z"/>
<path d="M1402 2275 c0 -16 2 -22 5 -12 2 9 2 23 0 30 -3 6 -5 -1 -5 -18z"/>
<path d="M1450 2275 c0 -14 5 -25 10 -25 6 0 10 11 10 25 0 14 -4 25 -10 25
-5 0 -10 -11 -10 -25z"/>
<path d="M2403 2235 c0 -22 2 -30 4 -17 2 12 2 30 0 40 -3 9 -5 -1 -4 -23z"/>
<path d="M2613 2258 c-14 -23 -11 -38 10 -53 29 -20 45 -6 17 17 -18 15 -20
21 -10 33 8 10 9 15 2 15 -6 0 -14 -6 -19 -12z"/>
<path d="M1032 2235 c0 -16 2 -22 5 -12 2 9 2 23 0 30 -3 6 -5 -1 -5 -18z"/>
<path d="M3781 2234 c0 -11 3 -14 6 -6 3 7 2 16 -1 19 -3 4 -6 -2 -5 -13z"/>
<path d="M1953 2195 c0 -22 2 -30 4 -17 2 12 2 30 0 40 -3 9 -5 -1 -4 -23z"/>
<path d="M2134 2216 c-9 -23 0 -51 16 -51 10 0 15 10 15 29 0 32 -21 47 -31
22z"/>
<path d="M1510 2195 c0 -14 5 -25 10 -25 6 0 10 11 10 25 0 14 -4 25 -10 25
-5 0 -10 -11 -10 -25z"/>
<path d="M1734 2055 c-8 -19 -110 -21 -117 -2 -4 10 -6 10 -6 0 -1 -8 -17 -14
-38 -15 l-38 -1 35 -4 c19 -3 38 -10 42 -16 6 -9 8 -9 8 1 0 20 100 16 116 -5
13 -17 15 -17 27 -2 7 9 21 19 32 22 19 4 19 5 -1 6 -12 0 -24 8 -28 16 -3 8
-10 15 -16 15 -6 0 -13 -7 -16 -15z"/>
<path d="M1876 2052 c-15 -18 -15 -20 2 -35 10 -10 25 -17 33 -17 16 1 49 24
49 35 0 12 -33 34 -51 35 -9 0 -23 -8 -33 -18z"/>
<path d="M2861 2058 c0 -10 -7 -18 -13 -18 -9 0 -10 -3 -2 -8 6 -4 14 -14 17
-22 4 -12 6 -12 6 2 1 11 12 18 34 21 l32 4 -32 1 c-21 1 -33 8 -36 20 -4 16
-5 16 -6 0z"/>
<path d="M3313 2050 c-8 -12 -9 -21 -3 -25 6 -3 10 -18 10 -33 0 -24 -4 -27
-32 -27 -29 0 -33 -4 -36 -28 -4 -33 24 -49 43 -24 9 12 14 14 23 5 9 -9 12
-1 12 35 0 43 2 47 25 47 13 0 28 6 32 14 4 8 17 16 28 19 19 4 19 5 -1 6 -12
0 -24 8 -28 16 -8 22 -59 19 -73 -5z"/>
<path d="M2650 2053 c0 -8 -15 -14 -37 -15 l-38 -1 35 -4 c19 -3 38 -10 42
-16 6 -9 8 -9 8 1 0 7 15 13 38 14 l37 1 -35 4 c-19 3 -38 10 -42 16 -6 9 -8
9 -8 0z"/>
<path d="M3520 2050 c0 -5 -15 -11 -32 -11 l-33 -2 30 -4 c16 -3 33 -10 37
-16 6 -9 10 -9 16 0 4 6 21 13 37 16 l30 4 -32 2 c-18 0 -33 6 -33 11 0 6 -4
10 -10 10 -5 0 -10 -4 -10 -10z"/>
<path d="M1163 2033 c15 -2 37 -2 50 0 12 2 0 4 -28 4 -27 0 -38 -2 -22 -4z"/>
<path d="M2113 2033 c15 -2 37 -2 50 0 12 2 0 4 -28 4 -27 0 -38 -2 -22 -4z"/>
<path d="M2963 2033 c15 -2 37 -2 50 0 12 2 0 4 -28 4 -27 0 -38 -2 -22 -4z"/>
<path d="M3153 2033 c26 -2 68 -2 95 0 26 2 4 3 -48 3 -52 0 -74 -1 -47 -3z"/>
<path d="M1943 1978 c-6 -9 -5 -27 3 -53 7 -22 13 -32 13 -22 1 9 8 17 16 17
15 0 11 20 -10 53 -10 14 -14 15 -22 5z"/>
<path d="M3086 1983 c-3 -4 -25 -9 -49 -12 -39 -6 -42 -8 -42 -36 l0 -30 78
-3 c106 -4 131 15 82 63 -23 24 -54 32 -69 18z"/>
<path d="M2403 1935 c0 -27 2 -38 4 -22 2 15 2 37 0 50 -2 12 -4 0 -4 -28z"/>
<path d="M2706 1971 c-38 -8 -55 -34 -37 -55 16 -19 91 -22 109 -4 18 18 14
46 -7 58 -21 11 -22 11 -65 1z"/>
<path d="M2842 1969 c-31 -12 -27 -58 6 -70 21 -8 22 -6 22 36 0 25 -1 45 -2
44 -2 0 -13 -4 -26 -10z"/>
<path d="M1721 1948 c-10 -26 2 -36 23 -19 10 9 15 7 19 -9 5 -18 7 -19 37 -4
47 24 36 48 -23 52 -42 3 -48 0 -56 -20z"/>
<path d="M1844 1956 c-12 -31 0 -51 30 -51 36 0 56 26 37 49 -17 20 -60 21
-67 2z"/>
<path d="M3384 1955 c-3 -8 -4 -22 -2 -32 3 -15 15 -18 70 -20 37 -2 70 2 73
7 3 6 15 10 25 10 25 0 35 17 20 35 -17 20 -179 20 -186 0z"/>
<path d="M1492 1935 c0 -16 2 -22 5 -12 2 9 2 23 0 30 -3 6 -5 -1 -5 -18z"/>
<path d="M1586 1945 c4 -8 10 -15 15 -15 4 0 6 7 3 15 -4 8 -10 15 -15 15 -4
0 -6 -7 -3 -15z"/>
<path d="M2956 1945 c-3 -8 -1 -15 3 -15 5 0 11 7 15 15 3 8 1 15 -3 15 -5 0
-11 -7 -15 -15z"/>
<path d="M2100 1935 c0 -8 5 -15 10 -15 6 0 10 7 10 15 0 8 -4 15 -10 15 -5 0
-10 -7 -10 -15z"/>
<path d="M3281 1830 c-82 -10 -79 -66 4 -71 49 -4 65 5 65 35 0 33 -18 42 -69
36z"/>
<path d="M1487 1823 c-11 -10 -8 -51 3 -58 6 -4 10 8 10 29 0 37 -2 41 -13 29z"/>
<path d="M2254 1817 c-7 -20 -2 -47 11 -50 14 -3 19 43 6 56 -7 7 -12 6 -17
-6z"/>
<path d="M3464 1816 c-10 -26 0 -51 21 -51 16 0 20 7 20 30 0 33 -30 49 -41
21z"/>
<path d="M2862 1795 c0 -16 2 -22 5 -12 2 9 2 23 0 30 -3 6 -5 -1 -5 -18z"/>
<path d="M1951 1794 c0 -11 3 -14 6 -6 3 7 2 16 -1 19 -3 4 -6 -2 -5 -13z"/>
<path d="M3090 1795 c0 -8 5 -15 10 -15 6 0 10 7 10 15 0 8 -4 15 -10 15 -5 0
-10 -7 -10 -15z"/>
<path d="M3430 1795 c0 -8 5 -15 10 -15 6 0 10 7 10 15 0 8 -4 15 -10 15 -5 0
-10 -7 -10 -15z"/>
<path d="M1804 1736 c-12 -31 0 -51 31 -51 27 0 30 3 30 30 0 25 -4 30 -28 33
-17 2 -29 -2 -33 -12z"/>
<path d="M3358 1733 c-9 -38 2 -54 35 -51 28 3 32 7 32 33 0 26 -4 30 -31 33
-24 2 -32 -1 -36 -15z"/>
<path d="M2402 1715 c0 -16 2 -22 5 -12 2 9 2 23 0 30 -3 6 -5 -1 -5 -18z"/>
<path d="M2862 1715 c0 -16 2 -22 5 -12 2 9 2 23 0 30 -3 6 -5 -1 -5 -18z"/>
<path d="M3323 1565 c0 -27 2 -38 4 -22 2 15 2 37 0 50 -2 12 -4 0 -4 -28z"/>
<path d="M1134 1586 c-10 -26 0 -51 21 -51 16 0 20 7 20 30 0 33 -30 49 -41
21z"/>
<path d="M1493 1565 c0 -22 2 -30 4 -17 2 12 2 30 0 40 -3 9 -5 -1 -4 -23z"/>
<path d="M1899 1584 c-17 -21 0 -48 33 -52 28 -3 42 18 33 49 -8 23 -48 25
-66 3z"/>
<path d="M3424 1586 c-12 -31 0 -51 30 -51 36 0 56 26 37 49 -17 20 -60 21
-67 2z"/>
<path d="M3242 1565 c0 -16 2 -22 5 -12 2 9 2 23 0 30 -3 6 -5 -1 -5 -18z"/>
<path d="M3290 1565 c0 -14 5 -25 10 -25 6 0 10 11 10 25 0 14 -4 25 -10 25
-5 0 -10 -11 -10 -25z"/>
<path d="M2940 1565 c0 -8 5 -15 10 -15 6 0 10 7 10 15 0 8 -4 15 -10 15 -5 0
-10 -7 -10 -15z"/>
<path d="M1493 1405 c0 -27 2 -38 4 -22 2 15 2 37 0 50 -2 12 -4 0 -4 -28z"/>
<path d="M1154 1427 c-7 -20 -2 -47 11 -50 14 -3 19 43 6 56 -7 7 -12 6 -17
-6z"/>
<path d="M1724 1426 c-9 -23 0 -51 16 -51 10 0 15 10 15 29 0 32 -21 47 -31
22z"/>
<path d="M1824 1426 c-12 -31 0 -51 31 -51 27 0 30 3 30 30 0 25 -4 30 -28 33
-17 2 -29 -2 -33 -12z"/>
<path d="M2168 1423 c-7 -28 2 -53 19 -53 11 0 8 -6 -8 -19 -20 -16 -22 -23
-13 -38 7 -10 23 -18 39 -18 16 0 32 8 39 18 9 15 7 22 -11 37 -19 15 -20 19
-7 24 10 4 14 16 12 33 -2 23 -8 29 -34 31 -24 2 -32 -1 -36 -15z"/>
<path d="M2914 1426 c-12 -31 0 -51 30 -51 36 0 56 26 37 49 -17 20 -60 21
-67 2z"/>
<path d="M3124 1426 c-10 -26 0 -51 21 -51 16 0 20 7 20 30 0 33 -30 49 -41
21z"/>
<path d="M3441 1422 c-14 -27 8 -55 40 -50 19 2 24 9 24 33 0 25 -4 31 -27 33
-18 2 -30 -3 -37 -16z"/>
<path d="M1472 1405 c0 -16 2 -22 5 -12 2 9 2 23 0 30 -3 6 -5 -1 -5 -18z"/>
<path d="M1899 1344 c-17 -21 0 -48 33 -52 28 -3 42 18 33 49 -8 23 -48 25
-66 3z"/>
<path d="M1461 1271 c-12 -12 -38 -21 -63 -24 l-43 -4 42 -1 c57 -3 93 -36 93
-86 0 -33 2 -36 15 -22 18 17 20 53 3 58 -8 3 -4 12 10 26 24 24 20 47 -9 62
-24 13 -26 13 -48 -9z"/>
<path d="M2822 1282 c-26 -2 -45 -9 -49 -18 -4 -12 -8 -12 -18 3 -13 17 -14
17 -20 1 -4 -10 -19 -19 -34 -19 -26 -2 -26 -2 -1 -6 13 -3 30 -12 36 -21 12
-16 13 -16 19 1 6 15 9 16 19 3 6 -8 31 -16 55 -18 35 -2 47 2 58 18 12 18 11
24 -4 40 -14 15 -29 18 -61 16z"/>
<path d="M1143 1266 c-4 -8 -17 -16 -28 -19 -19 -4 -19 -5 1 -6 12 0 24 -8 28
-16 7 -19 55 -20 62 0 5 13 8 13 21 0 20 -21 76 -19 97 3 15 18 15 20 -2 35
-23 21 -76 22 -95 2 -13 -13 -16 -13 -21 0 -7 19 -52 20 -63 1z"/>
<path d="M1701 1262 c-13 -25 5 -52 34 -52 13 0 28 8 34 17 13 25 -5 53 -34
53 -13 0 -29 -8 -34 -18z"/>
<path d="M2341 1262 c-14 -27 5 -52 39 -52 20 0 30 5 30 15 0 21 16 19 25 -2
6 -17 8 -17 21 2 13 17 16 18 24 5 7 -11 12 -12 18 -3 4 6 21 13 37 16 l30 4
-32 2 c-17 0 -34 7 -36 14 -4 9 -8 8 -16 -3 -9 -13 -12 -12 -25 5 -13 19 -15
19 -21 3 -9 -22 -25 -24 -25 -3 0 22 -57 20 -69 -3z"/>
<path d="M3136 1262 c-15 -18 -15 -20 4 -37 20 -18 70 -15 70 5 0 6 15 11 33
11 32 2 32 2 3 6 -16 3 -35 11 -43 19 -20 19 -47 18 -67 -4z"/>
<path d="M1947 1257 c-3 -7 -1 -20 4 -28 6 -10 9 -10 9 -1 0 7 15 13 38 14
l37 1 -35 4 c-19 3 -38 9 -41 15 -4 6 -8 4 -12 -5z"/>
<path d="M693 1243 c26 -2 67 -2 90 0 23 2 2 3 -48 3 -49 0 -68 -1 -42 -3z"/>
<path d="M1813 1243 c15 -2 37 -2 50 0 12 2 0 4 -28 4 -27 0 -38 -2 -22 -4z"/>
<path d="M2123 1243 c15 -2 37 -2 50 0 12 2 0 4 -28 4 -27 0 -38 -2 -22 -4z"/>
<path d="M2253 1243 c15 -2 37 -2 50 0 12 2 0 4 -28 4 -27 0 -38 -2 -22 -4z"/>
<path d="M2933 1243 c15 -2 37 -2 50 0 12 2 0 4 -28 4 -27 0 -38 -2 -22 -4z"/>
<path d="M3413 1243 c15 -2 37 -2 50 0 12 2 0 4 -28 4 -27 0 -38 -2 -22 -4z"/>
<path d="M3313 1199 c-15 -15 -17 -55 -3 -64 6 -3 11 -25 12 -48 1 -40 1 -40
5 -7 5 47 24 85 35 68 5 -8 7 -2 7 17 0 17 -3 24 -6 17 -3 -8 -10 -6 -21 8
-14 17 -19 19 -29 9z"/>
<path d="M1734 1187 c-7 -20 -2 -47 11 -50 14 -3 19 43 6 56 -7 7 -12 6 -17
-6z"/>
<path d="M2234 1186 c-12 -31 0 -51 30 -51 36 0 56 26 37 49 -17 20 -60 21
-67 2z"/>
<path d="M1952 1165 c0 -16 2 -22 5 -12 2 9 2 23 0 30 -3 6 -5 -1 -5 -18z"/>
<path d="M2770 1165 c0 -14 5 -25 10 -25 6 0 10 11 10 25 0 14 -4 25 -10 25
-5 0 -10 -11 -10 -25z"/>
<path d="M3270 1165 c0 -8 5 -15 10 -15 6 0 10 7 10 15 0 8 -4 15 -10 15 -5 0
-10 -7 -10 -15z"/>
<path d="M1033 1085 c0 -27 2 -38 4 -22 2 15 2 37 0 50 -2 12 -4 0 -4 -28z"/>
<path d="M2024 1106 c-12 -31 0 -51 30 -51 36 0 56 26 37 49 -17 20 -60 21
-67 2z"/>
<path d="M2654 1106 c-9 -23 0 -51 16 -51 10 0 15 10 15 29 0 32 -21 47 -31
22z"/>
<path d="M3464 1106 c-10 -26 0 -51 21 -51 16 0 20 7 20 30 0 33 -30 49 -41
21z"/>
<path d="M2492 1085 c0 -16 2 -22 5 -12 2 9 2 23 0 30 -3 6 -5 -1 -5 -18z"/>
<path d="M3364 946 c-9 -23 0 -51 16 -51 10 0 15 10 15 29 0 32 -21 47 -31 22z"/>
<path d="M3320 925 c0 -15 4 -24 10 -20 6 3 10 12 10 20 0 8 -4 17 -10 20 -6
4 -10 -5 -10 -20z"/>
<path d="M941 862 c-13 -25 5 -52 34 -52 13 0 28 8 34 17 13 25 -5 53 -34 53
-13 0 -29 -8 -34 -18z"/>
<path d="M1775 868 c-4 -10 -19 -19 -34 -19 -26 -2 -26 -2 -1 -6 13 -3 30 -12
36 -21 12 -16 13 -16 19 0 8 20 62 20 70 1 6 -18 54 -16 61 2 8 21 24 19 25
-2 0 -14 2 -15 6 -3 3 8 11 18 17 22 8 6 8 8 -1 8 -6 0 -14 8 -16 18 -4 16 -5
16 -6 0 -1 -22 -17 -23 -25 -3 -7 18 -55 20 -61 3 -8 -19 -57 -19 -71 0 -12
16 -13 16 -19 0z"/>
<path d="M2073 866 c-4 -7 -15 -16 -23 -19 -12 -4 -12 -6 1 -6 9 -1 19 -8 23
-16 3 -8 12 -15 21 -15 9 0 18 7 21 15 4 8 14 15 23 16 13 0 13 2 1 6 -8 3
-19 12 -23 19 -4 8 -14 14 -22 14 -8 0 -18 -6 -22 -14z"/>
<path d="M2300 865 c0 -10 -16 -15 -62 -18 l-63 -3 63 -2 c48 -2 62 -5 62 -17
0 -10 11 -15 35 -15 24 0 35 5 35 15 0 18 12 19 28 3 9 -9 12 -9 12 3 1 10 3
10 11 -3 12 -21 54 -24 66 -5 4 6 14 12 21 13 6 1 29 2 50 4 l37 3 -45 7 c-25
4 -48 6 -51 4 -4 -2 -9 3 -13 11 -8 21 -53 19 -65 -2 -8 -14 -10 -14 -11 -4 0
12 -3 12 -12 3 -16 -16 -28 -15 -28 3 0 10 -11 15 -35 15 -24 0 -35 -5 -35
-15z"/>
<path d="M2721 862 c-23 -43 38 -71 73 -34 15 18 15 20 -2 35 -24 22 -59 22
-71 -1z"/>
<path d="M1560 861 c0 -9 -10 -12 -35 -9 -22 2 -35 0 -35 -7 0 -7 12 -10 31
-7 20 3 34 0 40 -9 6 -10 9 -11 9 -1 0 7 15 13 38 14 l37 1 -35 4 c-19 3 -38
10 -42 16 -6 9 -8 8 -8 -2z"/>
<path d="M1403 843 c15 -2 37 -2 50 0 12 2 0 4 -28 4 -27 0 -38 -2 -22 -4z"/>
<path d="M3513 843 c15 -2 37 -2 50 0 12 2 0 4 -28 4 -27 0 -38 -2 -22 -4z"/>
<path d="M3318 675 c-3 -38 -3 -88 2 -110 6 -30 8 -33 9 -13 1 20 7 27 24 30
32 4 32 62 0 66 -19 3 -22 11 -25 50 -3 43 -4 41 -10 -23z"/>
<path d="M1214 716 c-12 -31 0 -51 31 -51 27 0 30 3 30 30 0 25 -4 30 -28 33
-17 2 -29 -2 -33 -12z"/>
<path d="M2402 695 c0 -16 2 -22 5 -12 2 9 2 23 0 30 -3 6 -5 -1 -5 -18z"/>
<path d="M3280 695 c0 -8 5 -15 10 -15 6 0 10 7 10 15 0 8 -4 15 -10 15 -5 0
-10 -7 -10 -15z"/>
<path d="M874 636 c-10 -26 0 -51 21 -51 16 0 20 7 20 30 0 33 -30 49 -41 21z"/>
<path d="M2396 643 c-3 -3 -6 -17 -6 -30 0 -34 -30 -30 -31 5 -2 27 -2 27 -6
2 -3 -14 -10 -28 -17 -32 -6 -4 1 -8 17 -8 23 0 27 -4 27 -27 0 -22 2 -25 10
-13 7 11 10 8 10 -16 l0 -32 -171 0 c-156 0 -173 -1 -190 -19 -19 -19 -19 -19
1 -38 18 -16 37 -18 182 -16 90 1 170 2 178 2 226 -3 326 1 340 14 14 13 19
13 39 -1 12 -9 39 -16 59 -16 21 0 78 1 127 1 50 1 97 1 105 0 38 -5 90 2 101
14 7 7 25 11 40 9 32 -5 46 13 28 34 -8 10 -24 14 -43 11 -17 -2 -44 0 -61 5
-26 7 -212 19 -287 18 -31 0 -33 2 -16 29 15 25 -4 51 -38 51 -34 0 -43 -39
-14 -62 14 -12 17 -18 9 -19 -8 -1 -57 -3 -109 -5 -250 -10 -270 -10 -270 2 0
6 9 14 20 17 24 6 28 62 5 71 -8 3 -15 14 -15 25 0 21 -13 35 -24 24z"/>
<path d="M3314 496 c-6 -6 -9 -17 -7 -23 2 -6 -8 -13 -24 -16 -27 -4 -27 -4 5
-6 21 -1 32 -6 32 -16 0 -12 4 -14 19 -5 13 7 22 7 26 0 4 -6 55 -10 121 -10
95 0 117 3 132 17 16 17 16 19 -3 38 -18 19 -30 21 -140 18 -66 -1 -125 -5
-132 -7 -6 -3 -13 1 -15 9 -2 10 -6 10 -14 1z"/>
<path d="M1112 491 c-73 -6 -96 -19 -85 -47 7 -19 27 -23 119 -25 62 -2 86 1
104 14 30 21 56 22 64 2 6 -16 66 -21 66 -5 0 5 7 7 15 4 8 -4 15 -1 15 4 0 6
18 10 40 9 33 -1 40 -5 41 -22 0 -11 2 -15 5 -10 2 6 37 9 84 7 66 -3 81 -1
86 12 3 9 18 17 33 17 26 2 26 2 1 6 -13 3 -29 12 -35 20 -9 11 -28 14 -88 11
-45 -2 -79 1 -81 7 -3 6 -5 1 -5 -10 -1 -17 -8 -21 -41 -22 -22 -1 -40 3 -40
9 0 5 -7 8 -15 4 -8 -3 -15 -1 -15 4 0 16 -60 11 -66 -5 -8 -20 -27 -19 -71 5
-21 11 -42 19 -48 18 -5 -1 -43 -4 -83 -7z"/>
<path d="M873 476 c-4 -7 -15 -16 -23 -19 -12 -4 -12 -6 1 -6 9 -1 19 -8 23
-16 7 -19 50 -19 69 -1 8 8 27 16 43 19 l29 4 -28 2 c-16 0 -35 8 -43 16 -19
19 -60 20 -71 1z"/>
<path d="M1823 453 c15 -2 37 -2 50 0 12 2 0 4 -28 4 -27 0 -38 -2 -22 -4z"/>
<path d="M298 2473 c6 -2 12 -17 12 -33 0 -16 -6 -31 -12 -33 -7 -3 10 -5 37
-4 l50 2 0 35 c0 28 -4 35 -20 35 -15 0 -21 -8 -23 -32 -4 -44 -22 -42 -22 2
0 27 -4 35 -17 34 -11 0 -13 -3 -5 -6z m82 -33 c0 -10 -5 -22 -10 -25 -13 -8
-24 20 -16 41 8 20 26 9 26 -16z"/>
<path d="M404 2466 c-11 -28 0 -61 21 -61 16 0 20 7 20 35 0 25 -5 36 -18 38
-9 2 -20 -3 -23 -12z m36 -26 c0 -16 -4 -30 -9 -30 -13 0 -21 27 -15 45 10 25
24 17 24 -15z"/>
<path d="M358 2050 c-6 -42 1 -49 52 -47 44 2 45 2 45 37 0 35 0 35 -46 37
-45 2 -47 1 -51 -27z m32 10 c0 -5 -4 -10 -10 -10 -5 0 -10 5 -10 10 0 6 5 10
10 10 6 0 10 -4 10 -10z m60 -20 c0 -10 -5 -22 -10 -25 -13 -8 -24 20 -16 41
8 20 26 9 26 -16z m-60 -15 c0 -8 -4 -15 -10 -15 -5 0 -10 7 -10 15 0 8 5 15
10 15 6 0 10 -7 10 -15z"/>
<path d="M147 1823 c-3 -5 17 -8 44 -9 29 0 44 3 37 8 -16 10 -75 10 -81 1z"/>
<path d="M185 1791 c-8 -15 3 -31 21 -31 9 0 14 7 12 17 -4 20 -24 28 -33 14z"/>
<path d="M160 1761 c21 -17 22 -19 5 -18 -11 1 -21 -5 -23 -15 -2 -13 3 -18
17 -18 12 0 21 6 21 16 0 11 6 14 20 9 35 -11 22 4 -22 25 -41 20 -42 20 -18
1z"/>
<path d="M150 1686 c12 -12 68 -12 80 0 6 6 -10 9 -40 9 -30 0 -45 -4 -40 -9z"/>
<path d="M364 1666 c-3 -8 -4 -25 -2 -38 3 -20 9 -23 48 -23 45 0 45 0 45 35
0 26 -5 36 -18 38 -12 2 -20 -3 -24 -16 -3 -14 -11 -18 -25 -14 -20 5 -20 6
-3 19 17 12 17 13 2 13 -10 0 -20 -6 -23 -14z m86 -26 c0 -10 -5 -22 -10 -25
-13 -8 -24 20 -16 41 8 20 26 9 26 -16z m-58 -15 c0 -5 -5 -11 -11 -13 -6 -2
-11 4 -11 13 0 9 5 15 11 13 6 -2 11 -8 11 -13z"/>
<path d="M161 1623 c-1 -19 4 -23 29 -23 17 0 30 5 30 10 0 6 -11 10 -24 10
-13 0 -27 6 -29 13 -3 6 -6 2 -6 -10z"/>
<path d="M163 1574 c-7 -20 10 -37 33 -32 12 2 20 13 21 28 l3 25 -12 -25
c-11 -25 -11 -25 -15 -2 -5 25 -21 29 -30 6z m14 -16 c-3 -8 -6 -5 -6 6 -1 11
2 17 5 13 3 -3 4 -12 1 -19z"/>
<path d="M164 1521 c4 -6 15 -11 24 -11 13 -1 11 -5 -8 -16 l-25 -15 30 6 c36
8 42 13 29 24 -15 15 -57 25 -50 12z"/>
<path d="M164 1455 c-4 -9 -2 -21 4 -27 16 -16 47 -5 47 17 0 26 -42 34 -51
10z m41 -4 c7 -12 -12 -24 -25 -16 -11 7 -4 25 10 25 5 0 11 -4 15 -9z"/>
<path d="M140 1386 c0 -27 27 -41 60 -31 20 6 30 55 11 55 -5 0 -7 -8 -4 -19
3 -11 -2 -21 -11 -24 -25 -10 -48 3 -43 24 3 11 1 19 -4 19 -5 0 -9 -11 -9
-24z"/>
<path d="M140 1300 c0 -5 5 -10 10 -10 6 0 10 -6 10 -14 0 -8 7 -16 15 -20 25
-9 45 4 45 30 0 21 -4 24 -40 24 -22 0 -40 -4 -40 -10z m70 -20 c0 -5 -9 -10
-20 -10 -11 0 -20 5 -20 10 0 6 9 10 20 10 11 0 20 -4 20 -10z"/>
<path d="M366 1265 c-20 -31 -20 -35 3 -35 11 0 22 -6 24 -12 4 -10 6 -9 6 1
1 11 4 11 16 1 25 -21 47 -4 43 32 -4 42 -38 47 -49 8 l-7 -25 -1 28 c-1 34
-14 35 -35 2z m84 -15 c0 -10 -5 -22 -10 -25 -13 -8 -24 20 -16 41 8 20 26 9
26 -16z m-64 -7 c-10 -10 -19 5 -10 18 6 11 8 11 12 0 2 -7 1 -15 -2 -18z"/>
<path d="M183 1233 c34 -5 36 -23 2 -23 -14 0 -25 -4 -25 -10 0 -5 6 -10 14
-10 28 0 46 12 46 31 0 15 -7 19 -32 18 -31 -2 -31 -2 -5 -6z"/>
<path d="M164 1165 c-4 -9 -2 -21 4 -27 16 -16 47 -5 47 17 0 26 -42 34 -51
10z m44 -7 c-3 -7 -11 -13 -18 -13 -7 0 -15 6 -17 13 -3 7 4 12 17 12 13 0 20
-5 18 -12z"/>
<path d="M158 1113 c12 -2 32 -2 45 0 12 2 2 4 -23 4 -25 0 -35 -2 -22 -4z"/>
<path d="M141 1073 c-1 -13 8 -27 19 -33 27 -15 60 4 59 33 l0 22 -9 -22 c-6
-14 -18 -23 -30 -23 -12 0 -24 9 -30 23 l-9 22 0 -22z"/>
<path d="M373 883 c21 -6 22 -26 2 -43 -26 -22 -16 -30 33 -28 45 3 47 4 50
36 4 36 -18 53 -43 32 -10 -9 -15 -9 -15 -1 0 6 -10 10 -22 10 -17 -1 -19 -2
-5 -6z m77 -33 c0 -25 -18 -36 -26 -16 -8 21 3 49 16 41 5 -3 10 -15 10 -25z
m-40 -10 c0 -11 -7 -20 -15 -20 -13 0 -13 3 -3 20 7 11 14 20 15 20 2 0 3 -9
3 -20z"/>
<path d="M417 480 c-8 -31 3 -60 23 -60 22 0 34 31 25 60 -3 11 -15 20 -25 20
-9 0 -20 -9 -23 -20z m33 -20 c0 -16 -4 -30 -10 -30 -5 0 -10 14 -10 30 0 17
5 30 10 30 6 0 10 -13 10 -30z"/>
<path d="M555 270 c-5 -15 -16 -20 -43 -22 l-37 -1 34 -4 c19 -3 40 -12 47
-20 13 -19 44 -11 44 12 0 9 -7 18 -15 21 -20 8 -19 21 3 27 13 4 12 5 -5 6
-14 1 -24 -6 -28 -19z m35 -35 c0 -8 -4 -15 -9 -15 -13 0 -22 16 -14 24 11 11
23 6 23 -9z"/>
<path d="M615 270 c-9 -29 3 -60 25 -60 20 0 31 29 23 60 -3 11 -14 20 -23 20
-10 0 -22 -9 -25 -20z m35 -20 c0 -16 -4 -30 -10 -30 -5 0 -10 14 -10 30 0 17
5 30 10 30 6 0 10 -13 10 -30z"/>
<path d="M1036 265 c4 -15 2 -25 -5 -25 -6 0 -8 8 -4 18 5 14 3 15 -8 5 -7 -7
-29 -14 -48 -14 -32 -1 -31 -2 13 -10 27 -4 52 -13 56 -20 6 -8 9 -8 12 1 6
20 -3 70 -13 70 -5 0 -7 -11 -3 -25z"/>
<path d="M1074 276 c-11 -28 0 -61 21 -61 16 0 20 7 20 35 0 25 -5 36 -18 38
-9 2 -20 -3 -23 -12z m36 -26 c0 -16 -4 -30 -9 -30 -13 0 -21 27 -15 45 10 25
24 17 24 -15z"/>
<path d="M1460 280 c0 -5 7 -7 15 -4 9 4 15 0 15 -9 0 -8 -7 -20 -15 -27 -23
-19 -18 -30 13 -29 18 1 21 3 9 6 -17 4 -18 6 -2 24 10 10 15 25 12 34 -7 16
-47 21 -47 5z"/>
<path d="M1525 270 c-9 -29 3 -60 25 -60 20 0 31 29 23 60 -3 11 -14 20 -23
20 -10 0 -22 -9 -25 -20z m35 -20 c0 -16 -4 -30 -10 -30 -5 0 -10 14 -10 30 0
17 5 30 10 30 6 0 10 -13 10 -30z"/>
<path d="M1927 270 c-8 -31 3 -60 23 -60 10 0 22 9 25 20 9 29 -3 60 -25 60
-9 0 -20 -9 -23 -20z m33 -20 c0 -16 -4 -30 -10 -30 -5 0 -10 14 -10 30 0 17
5 30 10 30 6 0 10 -13 10 -30z"/>
<path d="M2373 283 c21 -6 22 -26 2 -43 -26 -22 -16 -30 33 -28 45 3 47 4 50
36 4 36 -18 53 -43 32 -10 -9 -15 -9 -15 -1 0 6 -10 10 -22 10 -17 -1 -19 -2
-5 -6z m77 -33 c0 -10 -5 -22 -10 -25 -13 -8 -24 20 -16 41 8 20 26 9 26 -16z
m-40 -10 c0 -11 -7 -20 -15 -20 -13 0 -13 3 -3 20 7 11 14 20 15 20 2 0 3 -9
3 -20z"/>
<path d="M2816 265 c-20 -31 -20 -35 3 -35 11 0 22 -6 24 -12 4 -10 6 -9 6 1
1 11 4 11 16 1 25 -21 47 -4 43 32 -4 42 -38 47 -49 8 l-7 -25 -1 28 c-1 34
-14 35 -35 2z m84 -15 c0 -25 -18 -36 -26 -16 -8 21 3 49 16 41 5 -3 10 -15
10 -25z m-64 -7 c-10 -10 -19 5 -10 18 6 11 8 11 12 0 2 -7 1 -15 -2 -18z"/>
<path d="M3274 276 c-3 -8 -4 -25 -2 -38 3 -20 9 -23 48 -23 45 0 45 0 45 35
0 26 -5 36 -18 38 -12 2 -20 -3 -24 -16 -3 -14 -11 -18 -25 -14 -20 5 -20 6
-3 19 17 12 17 13 2 13 -10 0 -20 -6 -23 -14z m86 -26 c0 -25 -18 -36 -26 -16
-8 21 3 49 16 41 5 -3 10 -15 10 -25z m-58 -15 c0 -5 -5 -11 -11 -13 -6 -2
-11 4 -11 13 0 9 5 15 11 13 6 -2 11 -8 11 -13z"/>
<path d="M3728 260 c-6 -42 1 -49 52 -47 44 2 45 2 45 37 0 35 0 35 -46 37
-45 2 -47 1 -51 -27z m32 10 c0 -5 -4 -10 -10 -10 -5 0 -10 5 -10 10 0 6 5 10
10 10 6 0 10 -4 10 -10z m60 -20 c0 -25 -18 -36 -26 -16 -8 21 3 49 16 41 5
-3 10 -15 10 -25z m-60 -15 c0 -8 -4 -15 -10 -15 -5 0 -10 7 -10 15 0 8 5 15
10 15 6 0 10 -7 10 -15z"/>
<path d="M1408 243 c12 -2 30 -2 40 0 9 3 -1 5 -23 4 -22 0 -30 -2 -17 -4z"/>
<path d="M2022 113 l-2 -43 51 0 c49 0 50 1 47 28 -2 21 -9 27 -28 29 -14 1
-17 -1 -8 -3 15 -5 15 -7 -3 -25 -30 -30 -47 -24 -52 19 l-4 37 -1 -42z m83
-23 c-3 -5 -11 -10 -16 -10 -6 0 -7 5 -4 10 3 6 11 10 16 10 6 0 7 -4 4 -10z"/>
<path d="M2200 140 c0 -5 -7 -10 -15 -10 -10 0 -15 -10 -15 -30 0 -38 17 -39
23 -2 l4 27 2 -27 c1 -20 6 -28 19 -27 10 0 12 3 5 6 -15 5 -17 40 -4 45 5 2
3 9 -5 16 -8 7 -14 8 -14 2z"/>
<path d="M2340 141 c0 -5 -9 -11 -21 -14 -29 -8 -22 -51 9 -55 20 -3 22 1 22
37 0 23 -2 41 -5 41 -3 0 -5 -4 -5 -9z m-5 -51 c-5 -8 -11 -8 -17 -2 -6 6 -7
16 -3 22 5 8 11 8 17 2 6 -6 7 -16 3 -22z"/>
<path d="M2132 109 c4 -42 23 -49 22 -7 0 18 -6 34 -13 36 -9 3 -11 -6 -9 -29z"/>
<path d="M2243 105 c2 -23 7 -31 25 -33 19 -3 22 1 21 30 -1 28 -2 29 -7 10
-4 -13 -11 -23 -17 -23 -5 0 -13 10 -17 23 -6 19 -7 18 -5 -7z"/>
<path d="M2367 116 c-10 -25 3 -46 27 -45 16 1 17 2 4 6 -25 6 -22 23 3 23 26
0 20 24 -8 28 -11 2 -23 -4 -26 -12z"/>
</g>
</svg>
