<?xml version="1.0" standalone="no"?>
<!DOCTYPE svg PUBLIC "-//W3C//DTD SVG 20010904//EN"
 "http://www.w3.org/TR/2001/REC-SVG-20010904/DTD/svg10.dtd">
<svg version="1.0" xmlns="http://www.w3.org/2000/svg"
 width="432.000000pt" height="288.000000pt" viewBox="0 0 432.000000 288.000000"
 preserveAspectRatio="xMidYMid meet">

<g transform="translate(0.000000,288.000000) scale(0.100000,-0.100000)"
fill="#000000" stroke="none">
<path d="M1650 2676 c0 -7 -9 -16 -21 -19 -16 -4 -20 -12 -17 -34 2 -22 9 -29
31 -31 26 -3 27 -2 27 47 0 28 -4 51 -10 51 -5 0 -10 -6 -10 -14z m0 -51 c0
-26 -14 -33 -25 -15 -9 14 1 40 15 40 5 0 10 -11 10 -25z"/>
<path d="M2440 2675 c0 -8 -7 -15 -15 -15 -8 0 -19 -8 -24 -18 -13 -25 5 -52
34 -52 23 0 25 4 25 50 0 28 -4 50 -10 50 -5 0 -10 -7 -10 -15z m-4 -61 c-5
-13 -10 -14 -18 -6 -6 6 -8 18 -4 28 5 13 10 14 18 6 6 -6 8 -18 4 -28z"/>
<path d="M1019 2659 c-16 -31 3 -69 35 -69 14 0 28 5 32 11 4 7 0 9 -13 5 -27
-9 -51 19 -36 42 6 10 21 16 32 15 13 -2 20 1 16 7 -11 18 -54 11 -66 -11z"/>
<path d="M1138 2669 c-2 -6 -2 -26 0 -45 3 -24 9 -34 21 -33 10 0 11 2 4 6
-15 5 -18 50 -4 55 5 2 3 8 -4 15 -9 9 -15 9 -17 2z"/>
<path d="M1290 2635 c0 -25 5 -45 10 -45 6 0 10 9 10 20 0 13 7 20 20 20 13 0
20 -7 20 -20 0 -11 5 -20 10 -20 6 0 10 20 10 45 0 25 -4 45 -10 45 -5 0 -10
-9 -10 -20 0 -13 -7 -20 -20 -20 -13 0 -20 7 -20 20 0 11 -4 20 -10 20 -5 0
-10 -20 -10 -45z"/>
<path d="M1718 2668 c-9 -28 7 -73 27 -75 11 -2 14 0 8 3 -17 7 -17 54 0 54
20 0 39 -60 24 -78 -10 -12 -9 -14 3 -10 17 5 55 98 41 98 -5 0 -13 -12 -18
-27 l-10 -28 -6 28 c-5 18 -14 27 -27 27 -11 0 -20 5 -20 10 0 14 -17 12 -22
-2z"/>
<path d="M2050 2635 c0 -44 0 -45 33 -44 23 1 26 3 10 6 -19 4 -23 11 -23 44
0 21 -4 39 -10 39 -5 0 -10 -20 -10 -45z"/>
<path d="M2192 2638 c2 -34 7 -43 23 -45 11 -2 14 0 8 3 -16 7 -17 54 -2 54 6
0 4 7 -5 15 -23 23 -27 18 -24 -27z"/>
<path d="M2278 2669 c-2 -6 -2 -26 0 -45 3 -24 9 -34 21 -33 10 0 11 2 4 6
-15 5 -18 50 -4 55 5 2 3 8 -4 15 -9 9 -15 9 -17 2z"/>
<path d="M2670 2626 c0 -34 -5 -56 -12 -59 -8 -4 -7 -6 3 -6 9 -1 20 6 23 15
10 26 7 104 -4 104 -5 0 -10 -24 -10 -54z"/>
<path d="M2900 2669 c0 -5 5 -7 10 -4 6 4 10 -8 10 -29 0 -19 -6 -37 -12 -39
-7 -3 -2 -6 12 -6 24 -1 25 2 22 44 -3 36 -8 45 -23 45 -10 0 -19 -5 -19 -11z"/>
<path d="M2974 2667 c-3 -9 -4 -28 -2 -44 2 -22 8 -28 28 -28 23 0 25 4 25 40
0 34 -3 40 -23 43 -13 2 -24 -3 -28 -11z m41 -32 c0 -16 -6 -30 -12 -32 -9 -3
-13 7 -13 32 0 25 4 35 13 33 6 -3 12 -17 12 -33z"/>
<path d="M3120 2669 c0 -6 9 -8 20 -4 27 8 26 -14 -1 -49 l-20 -26 33 1 c18 1
25 3 15 6 -17 4 -17 6 -2 30 9 13 14 31 11 39 -6 16 -56 19 -56 3z"/>
<path d="M3204 2667 c-3 -9 -4 -28 -2 -44 2 -22 8 -28 28 -28 23 0 25 4 25 40
0 34 -3 40 -23 43 -13 2 -24 -3 -28 -11z m36 -32 c0 -37 -13 -47 -24 -19 -8
20 2 54 15 54 5 0 9 -16 9 -35z"/>
<path d="M3280 2669 c0 -5 5 -7 10 -4 6 4 10 -8 10 -29 0 -19 -6 -37 -12 -39
-7 -3 0 -6 17 -6 22 -1 26 2 17 11 -7 7 -12 27 -12 45 0 23 -5 33 -15 33 -8 0
-15 -5 -15 -11z"/>
<path d="M3357 2674 c-15 -15 -6 -45 16 -53 l22 -9 -25 -10 -25 -11 27 0 c21
-1 29 5 34 23 9 37 1 61 -22 64 -11 2 -23 0 -27 -4z m33 -24 c0 -11 -4 -20 -9
-20 -14 0 -23 18 -16 30 10 17 25 11 25 -10z"/>
<path d="M1100 2625 c0 -19 5 -35 10 -35 6 0 10 16 10 35 0 19 -4 35 -10 35
-5 0 -10 -16 -10 -35z"/>
<path d="M1183 2646 c18 -45 19 -68 6 -77 -11 -7 -11 -9 2 -9 17 0 56 86 45
98 -4 3 -9 -4 -13 -16 -6 -25 -23 -30 -23 -8 0 8 -5 18 -12 22 -8 5 -9 2 -5
-10z"/>
<path d="M1382 2628 c2 -28 8 -34 31 -36 25 -3 27 -1 26 35 -1 35 -2 36 -8 9
-9 -41 -31 -46 -31 -7 0 17 -5 31 -11 31 -6 0 -9 -14 -7 -32z"/>
<path d="M1460 2625 c0 -19 5 -35 10 -35 6 0 10 14 10 30 0 17 5 30 10 30 6 0
10 -13 10 -30 0 -16 5 -30 10 -30 6 0 10 11 10 24 0 14 5 28 10 31 6 4 10 -7
10 -24 0 -17 5 -31 11 -31 6 0 9 14 7 33 -3 31 -5 32 -50 35 l-48 2 0 -35z"/>
<path d="M1583 2625 c0 -22 2 -30 4 -17 2 12 2 30 0 40 -3 9 -5 -1 -4 -23z"/>
<path d="M1693 2625 c0 -22 2 -30 4 -17 2 12 2 30 0 40 -3 9 -5 -1 -4 -23z"/>
<path d="M1883 2625 c6 -19 16 -35 22 -35 6 0 16 16 22 35 6 19 7 35 2 35 -5
0 -12 -12 -16 -27 l-6 -28 -10 28 c-13 40 -27 33 -14 -8z"/>
<path d="M1950 2640 c0 -11 7 -20 15 -20 8 0 15 -5 15 -11 0 -6 -7 -9 -15 -5
-8 3 -15 1 -15 -4 0 -14 37 -12 46 1 4 7 -3 20 -17 29 l-23 18 25 5 c23 4 23
4 -3 6 -22 1 -28 -4 -28 -19z"/>
<path d="M2120 2650 c0 -5 6 -7 14 -4 8 3 17 1 21 -5 3 -7 -2 -11 -14 -11 -14
0 -21 -6 -21 -20 0 -16 7 -20 30 -20 31 0 38 17 24 54 -7 17 -54 23 -54 6z
m35 -40 c-3 -5 -10 -10 -16 -10 -5 0 -9 5 -9 10 0 6 7 10 16 10 8 0 12 -4 9
-10z"/>
<path d="M2240 2625 c0 -19 5 -35 10 -35 6 0 10 16 10 35 0 19 -4 35 -10 35
-5 0 -10 -16 -10 -35z"/>
<path d="M2322 2628 c2 -28 8 -34 31 -36 25 -3 27 -1 26 35 l-1 38 -9 -32
c-12 -41 -29 -43 -29 -3 0 17 -5 30 -11 30 -6 0 -9 -14 -7 -32z"/>
<path d="M2475 2641 c-9 -28 5 -51 31 -51 13 0 24 4 24 9 0 5 -9 7 -20 4 -11
-3 -20 0 -20 6 0 6 11 11 25 11 23 0 24 2 15 20 -13 25 -47 26 -55 1z m40 -1
c3 -5 -1 -10 -9 -10 -9 0 -16 5 -16 10 0 6 4 10 9 10 6 0 13 -4 16 -10z"/>
<path d="M2710 2650 c0 -6 5 -8 10 -5 6 3 16 3 22 -1 9 -6 5 -10 -12 -14 -34
-8 -32 -34 3 -38 27 -3 28 -1 25 30 -2 25 -8 34 -25 36 -13 2 -23 -2 -23 -8z
m35 -40 c-3 -5 -10 -10 -16 -10 -5 0 -9 5 -9 10 0 6 7 10 16 10 8 0 12 -4 9
-10z"/>
<path d="M2780 2626 c0 -20 5 -36 10 -36 6 0 10 14 10 30 0 40 17 38 29 -2
l10 -33 -2 35 c-2 30 -6 35 -29 38 -26 3 -28 1 -28 -32z"/>
<path d="M2588 2623 c6 -2 18 -2 25 0 6 3 1 5 -13 5 -14 0 -19 -2 -12 -5z"/>
<path d="M3050 2594 c0 -8 5 -12 10 -9 6 3 10 10 10 16 0 5 -4 9 -10 9 -5 0
-10 -7 -10 -16z"/>
<path d="M540 2486 c0 -34 -4 -46 -17 -49 -17 -4 -17 -5 0 -6 16 -1 17 -17 17
-195 0 -177 -2 -195 -17 -199 -17 -4 -17 -5 0 -6 16 -1 17 -17 17 -195 0 -177
-2 -195 -17 -199 -17 -4 -17 -5 0 -6 16 -1 17 -17 17 -190 0 -172 -2 -190 -17
-194 -17 -4 -17 -5 0 -6 16 -1 17 -17 17 -195 0 -177 -2 -195 -17 -199 -17 -4
-17 -5 0 -6 16 -1 17 -17 17 -190 0 -172 -2 -190 -17 -194 -17 -4 -17 -5 0 -6
14 -1 17 -10 17 -51 0 -37 4 -50 14 -50 8 0 17 -10 19 -22 l4 -23 2 23 1 22
224 0 225 0 4 -22 4 -23 2 23 1 22 224 0 225 0 4 -22 4 -23 2 23 1 22 224 0
225 0 4 -23 4 -22 2 23 1 22 219 0 220 0 4 -23 4 -22 2 23 1 22 224 0 225 0 4
-22 4 -23 2 23 1 22 224 0 225 0 4 -23 4 -22 2 23 1 22 224 0 225 0 4 -22 4
-23 2 23 c1 20 6 22 56 22 l55 0 0 1090 0 1090 -1680 0 -1680 0 0 -44z m3350
-1046 l0 -1080 -1670 0 -1670 0 0 1080 0 1080 1670 0 1670 0 0 -1080z"/>
<path d="M1491 2472 c-1 -9 -11 -11 -36 -6 -22 4 -41 2 -49 -5 -8 -7 -52 -14
-97 -16 -69 -3 -85 -1 -96 13 -12 16 -14 16 -26 1 -7 -9 -21 -19 -32 -22 -19
-4 -19 -5 -1 -6 10 0 25 -9 32 -18 13 -17 15 -17 29 1 20 26 29 15 14 -17 -9
-21 -9 -30 1 -42 20 -24 42 -18 76 20 25 28 33 33 37 20 8 -18 36 -20 43 -2 4
11 14 11 54 -2 47 -14 50 -17 51 -51 l2 -35 6 42 c4 23 12 48 19 56 6 7 10 16
8 18 -2 2 7 5 20 5 14 1 24 -4 24 -11 0 -19 34 -28 80 -20 26 4 40 3 40 -4 0
-6 14 -11 30 -11 33 0 39 -16 14 -35 -32 -23 -20 -102 18 -126 10 -6 9 -11 -6
-22 -18 -13 -18 -14 3 -29 22 -16 55 -14 79 5 8 6 12 6 12 -2 0 -8 12 -11 33
-9 26 2 33 8 35 30 2 17 -4 31 -17 40 -13 9 -20 25 -20 39 1 13 -1 31 -5 40
-11 25 11 33 24 9 14 -27 30 -16 30 20 0 24 -5 29 -27 32 -50 6 -36 25 18 24
40 -1 54 3 66 19 11 14 14 15 10 3 -8 -22 2 -29 24 -18 11 7 20 7 24 0 3 -5
20 -7 37 -3 27 5 30 4 25 -11 -4 -10 -7 -22 -7 -28 0 -6 -6 -8 -14 -5 -17 7
-41 -11 -49 -36 -5 -12 0 -21 17 -29 34 -15 40 -47 13 -69 -18 -14 -20 -21
-11 -36 13 -21 50 -29 67 -15 8 7 18 6 31 -3 26 -19 56 -2 56 31 0 14 4 22 10
19 6 -3 10 -4 10 -1 0 3 -9 10 -19 16 -16 8 -25 5 -48 -16 -25 -23 -28 -24
-34 -7 -5 12 -1 23 12 32 10 7 19 19 19 25 0 6 9 20 21 29 11 10 18 21 15 24
-3 4 -12 -2 -20 -12 -9 -13 -15 -15 -20 -6 -5 7 0 21 9 31 21 23 14 47 -17 59
-18 7 -11 9 26 7 38 -2 55 2 73 18 l25 21 -22 20 c-22 20 -84 23 -106 4 -8 -7
-14 -7 -19 1 -10 16 -73 12 -101 -6 -24 -16 -26 -16 -39 2 -11 16 -22 19 -62
16 -81 -6 -83 -7 -93 -22 -9 -13 -11 -13 -20 0 -9 13 -10 13 -10 0 -1 -12 -3
-11 -11 3 -10 18 -54 24 -63 8 -3 -5 -17 -8 -31 -8 -14 0 -28 3 -31 8 -9 15
-74 10 -80 -5 -8 -21 -66 -14 -75 9 -4 11 -8 14 -8 7z m290 -149 c12 -16 12
-17 -1 -7 -8 6 -22 14 -30 17 -13 5 -12 6 1 6 9 1 23 -7 30 -16z"/>
<path d="M2792 2470 c-49 -3 -76 -10 -83 -20 -8 -13 -11 -13 -20 3 -15 25
-114 25 -128 -1 -6 -11 -6 -24 0 -34 8 -15 29 -18 152 -19 193 -1 190 -1 205
18 10 14 15 15 21 5 17 -28 111 -34 111 -7 0 20 191 18 206 -3 17 -23 181 -24
197 -1 14 20 127 25 127 6 0 -8 3 -7 9 1 7 11 9 11 14 -2 8 -20 33 -21 44 -2
5 10 29 16 68 19 l60 3 -61 2 c-45 1 -63 6 -68 17 -7 20 -35 19 -43 -1 -5 -13
-7 -13 -14 -2 -6 8 -9 9 -9 1 0 -17 -110 -14 -128 3 -8 8 -37 14 -70 15 -79 2
-94 0 -120 -17 -31 -20 -212 -17 -212 3 0 8 -13 13 -35 13 -23 0 -35 -5 -35
-14 0 -17 -50 -17 -65 0 -15 17 -41 20 -123 14z m-82 -50 c0 -5 -4 -10 -10
-10 -5 0 -10 5 -10 10 0 6 5 10 10 10 6 0 10 -4 10 -10z"/>
<path d="M2314 2455 c-4 -8 -16 -15 -28 -16 -20 0 -20 -1 -2 -8 12 -5 16 -10
9 -14 -16 -10 -4 -46 18 -58 18 -9 23 -5 20 14 0 4 7 7 18 7 10 0 24 7 31 15
7 8 16 12 21 9 5 -3 9 2 9 10 0 21 10 20 26 -1 12 -17 13 -17 19 0 4 9 19 18
34 18 26 2 26 2 1 6 -13 3 -30 12 -36 21 -12 16 -13 16 -19 0 -9 -23 -25 -23
-25 -2 0 13 -3 14 -14 5 -10 -8 -16 -9 -21 -1 -10 15 -55 12 -61 -5z"/>
<path d="M1027 2447 c-3 -7 -1 -20 4 -28 6 -10 9 -10 9 -1 0 7 15 13 38 14
l37 1 -35 4 c-19 3 -38 9 -41 15 -4 6 -8 4 -12 -5z"/>
<path d="M888 2433 c7 -3 16 -2 19 1 4 3 -2 6 -13 5 -11 0 -14 -3 -6 -6z"/>
<path d="M2950 2363 c0 -7 -6 -13 -14 -13 -8 0 -18 -9 -21 -20 -7 -23 -33 -27
-41 -6 -4 11 -20 13 -57 7 -12 -2 4 -54 24 -77 11 -11 19 -30 19 -43 0 -21 -1
-21 -22 -7 -17 12 -25 13 -42 3 -12 -6 -30 -12 -40 -12 -28 0 -31 -20 -6 -45
16 -16 25 -18 40 -10 10 5 21 18 23 27 2 11 3 9 2 -4 -1 -14 5 -23 17 -26 10
-3 22 -16 27 -29 6 -15 10 -17 10 -7 1 9 10 19 21 22 19 5 29 37 12 37 -15 0
-35 54 -23 58 6 2 8 8 5 14 -3 5 2 8 12 7 26 -5 44 9 37 27 -3 8 -2 14 3 12 5
-2 24 4 42 11 29 12 35 12 42 1 5 -8 7 -17 4 -21 -2 -4 3 -9 11 -13 8 -3 15
-13 15 -23 0 -14 8 -18 35 -18 19 0 35 3 35 7 0 4 20 21 45 38 25 17 45 27 45
21 0 -5 14 -17 32 -25 17 -9 29 -13 25 -10 -4 4 -3 12 2 18 4 6 11 19 15 30 5
15 2 17 -13 13 -12 -3 -22 1 -25 10 -4 9 -17 13 -35 11 -16 -1 -39 2 -52 8
-13 6 -36 17 -50 24 -35 16 -63 10 -67 -15 -2 -11 -9 -24 -14 -30 -8 -7 -9 -5
-5 7 3 9 0 24 -8 35 -15 21 -65 26 -65 6z"/>
<path d="M1952 2335 c0 -16 2 -22 5 -12 2 9 2 23 0 30 -3 6 -5 -1 -5 -18z"/>
<path d="M1163 2318 c-6 -7 -13 -32 -16 -55 -5 -45 4 -56 43 -46 24 6 48 55
30 61 -8 3 -8 8 0 18 7 7 9 18 5 24 -9 14 -50 13 -62 -2z"/>
<path d="M2398 2297 c-3 -14 -2 -31 2 -37 5 -7 9 -2 12 13 3 14 2 31 -2 37 -5
7 -9 2 -12 -13z"/>
<path d="M2200 2291 c-14 -11 -23 -21 -20 -23 47 -30 68 -37 84 -25 11 8 17
23 14 38 -4 31 -44 36 -78 10z"/>
<path d="M3422 2275 c0 -16 2 -22 5 -12 2 9 2 23 0 30 -3 6 -5 -1 -5 -18z"/>
<path d="M3321 2274 c0 -11 3 -14 6 -6 3 7 2 16 -1 19 -3 4 -6 -2 -5 -13z"/>
<path d="M3480 2275 c0 -18 22 -35 46 -35 25 0 49 24 39 39 -8 14 -85 11 -85
-4z"/>
<path d="M2485 2260 c-4 -6 -1 -17 5 -25 6 -8 8 -20 4 -26 -5 -9 2 -11 29 -6
24 4 37 1 40 -8 8 -19 70 -25 83 -7 15 21 -27 66 -54 58 -13 -4 -22 -1 -26 9
-6 17 -71 21 -81 5z"/>
<path d="M3372 2245 c4 -6 -2 -16 -12 -23 -16 -10 -21 -9 -29 6 -10 16 -10 16
-11 0 0 -10 -8 -22 -18 -27 -13 -7 -19 -23 -20 -51 -2 -34 2 -43 18 -47 25 -7
25 -7 -5 -38 -42 -41 -50 -32 -45 47 2 32 -13 42 -61 40 -24 -2 -38 2 -42 11
-3 9 -16 13 -34 11 -15 -2 -22 -1 -15 2 6 3 12 10 12 16 0 6 -11 3 -24 -6 -15
-10 -27 -12 -31 -6 -8 13 -52 13 -60 0 -3 -5 -16 -11 -28 -11 -17 -1 -18 -2
-4 -6 10 -3 17 -14 17 -28 0 -26 25 -45 50 -38 9 3 8 0 -3 -7 -15 -10 -16 -14
-6 -27 10 -11 10 -16 0 -22 -9 -6 -9 -15 -2 -34 11 -29 15 -30 74 -27 27 1 37
-2 37 -14 0 -13 59 -54 63 -44 1 2 7 13 14 24 15 28 -8 64 -43 64 -14 0 -24 6
-24 14 0 8 -9 18 -20 21 -26 8 -25 19 3 37 24 15 57 13 57 -4 0 -6 13 -8 30
-6 24 4 30 1 30 -14 0 -13 -8 -18 -32 -19 -35 -2 -29 -3 60 -15 23 -3 40 -9
37 -15 -4 -5 -1 -9 4 -9 6 0 11 -7 11 -15 0 -8 -5 -15 -11 -15 -5 0 -7 -6 -3
-12 6 -10 4 -10 -7 -2 -8 6 -25 11 -39 9 -20 -1 -26 -8 -28 -33 -3 -29 0 -32
23 -32 14 0 37 -7 50 -16 24 -16 25 -16 25 10 0 22 4 26 24 22 25 -5 70 20 61
33 -9 15 40 76 64 79 18 3 22 0 18 -12 -4 -9 -2 -16 4 -16 5 0 12 7 15 15 4 8
18 15 33 16 l26 1 -25 8 c-14 4 -38 5 -53 2 -20 -3 -35 2 -51 18 -18 16 -29
19 -43 12 -10 -5 -24 -7 -30 -5 -7 3 -13 -1 -13 -7 0 -10 -4 -10 -15 0 -20 17
-19 24 10 70 14 22 22 40 19 40 -4 0 -2 6 3 13 20 25 22 46 5 59 -8 7 -13 8
-10 3z"/>
<path d="M1504 2232 c-18 -13 -34 -51 -24 -57 6 -3 10 -34 10 -68 0 -51 -3
-64 -20 -75 -26 -16 -26 -58 1 -72 38 -21 92 34 57 57 -9 5 -3 10 17 14 29 6
29 7 -7 8 l-38 1 0 54 c0 30 5 58 10 61 8 5 7 11 0 20 -7 8 -10 21 -8 30 3 14
6 13 26 -5 l23 -21 18 23 c21 25 17 46 -4 28 -9 -8 -20 -8 -32 -1 -11 5 -23 7
-29 3z"/>
<path d="M2286 2232 c-3 -5 2 -16 10 -23 15 -12 14 -14 -6 -19 -27 -6 -39 -30
-16 -30 8 0 20 -9 26 -20 11 -21 54 -28 65 -10 3 6 11 10 18 10 6 0 1 -7 -11
-16 -27 -19 -20 -39 9 -24 17 10 19 7 21 -22 1 -18 4 -4 7 32 6 65 3 125 -6
116 -3 -3 -15 -1 -28 4 -17 6 -27 5 -36 -6 -10 -13 -14 -13 -29 1 -10 9 -21
12 -24 7z"/>
<path d="M3223 2219 c-17 -17 -4 -39 22 -39 26 0 50 24 40 40 -8 13 -48 13
-62 -1z"/>
<path d="M2441 2188 c-5 -13 -7 -25 -5 -27 8 -9 32 9 37 28 7 29 -21 28 -32
-1z"/>
<path d="M2678 2198 c17 -17 15 -25 -8 -31 -11 -3 -20 -12 -20 -20 0 -22 40
-9 50 17 8 22 -4 46 -23 46 -7 0 -7 -4 1 -12z"/>
<path d="M1278 2187 c-8 -7 -18 -20 -22 -30 -5 -15 -1 -18 15 -15 12 2 25 13
30 25 10 27 -2 37 -23 20z"/>
<path d="M1606 2185 c-3 -8 -1 -15 3 -15 5 0 11 7 15 15 3 8 1 15 -3 15 -5 0
-11 -7 -15 -15z"/>
<path d="M3415 2190 c-3 -5 -1 -10 4 -10 6 0 11 5 11 10 0 6 -2 10 -4 10 -3 0
-8 -4 -11 -10z"/>
<path d="M2710 2150 c0 -5 5 -10 11 -10 5 0 7 5 4 10 -3 6 -8 10 -11 10 -2 0
-4 -4 -4 -10z"/>
<path d="M1950 2121 c0 -20 -4 -30 -11 -26 -14 9 -49 -24 -49 -46 0 -20 39
-35 65 -25 12 4 14 17 9 63 -8 66 -14 82 -14 34z"/>
<path d="M1564 2116 c-13 -33 0 -51 36 -51 32 0 35 2 35 30 0 27 -4 30 -33 33
-22 2 -34 -2 -38 -12z"/>
<path d="M1722 2093 c3 -34 6 -38 28 -35 14 1 31 8 38 15 10 11 9 17 -6 35
-11 12 -29 22 -41 22 -20 0 -22 -5 -19 -37z"/>
<path d="M1147 2102 c-10 -10 -17 -28 -17 -40 0 -12 -5 -22 -10 -22 -15 0 16
-56 36 -64 21 -8 37 2 30 21 -3 8 1 24 9 36 21 30 19 64 -4 77 -25 13 -25 13
-44 -8z"/>
<path d="M1452 2075 c0 -16 2 -22 5 -12 2 9 2 23 0 30 -3 6 -5 -1 -5 -18z"/>
<path d="M1031 2074 c0 -11 3 -14 6 -6 3 7 2 16 -1 19 -3 4 -6 -2 -5 -13z"/>
<path d="M2843 2069 c-13 -5 -23 -13 -23 -19 0 -5 -8 -10 -17 -11 -14 0 -15
-2 -3 -6 8 -4 20 -12 25 -18 6 -7 18 -15 28 -18 12 -5 17 -1 17 13 0 15 7 20
26 20 21 0 24 -4 19 -19 -4 -13 1 -27 14 -40 21 -21 18 -33 -7 -24 -14 4 -15
3 -3 -5 17 -12 38 -3 66 28 15 17 17 25 7 40 -9 14 -8 20 1 23 7 3 5 6 -4 6
-9 1 -19 8 -23 16 -3 8 -12 15 -21 15 -9 0 -18 -7 -21 -15 -9 -22 -52 -19 -56
4 -2 15 -8 17 -25 10z"/>
<path d="M1100 2059 c0 -5 5 -7 10 -4 6 3 10 8 10 11 0 2 -4 4 -10 4 -5 0 -10
-5 -10 -11z"/>
<path d="M2700 2055 c0 -10 -11 -15 -32 -16 -31 -1 -31 -1 -8 -8 24 -8 110 -4
119 5 2 2 -10 4 -27 4 -22 0 -32 5 -32 15 0 8 -4 15 -10 15 -5 0 -10 -7 -10
-15z"/>
<path d="M1068 2033 c7 -3 16 -2 19 1 4 3 -2 6 -13 5 -11 0 -14 -3 -6 -6z"/>
<path d="M1328 2033 c12 -2 30 -2 40 0 9 3 -1 5 -23 4 -22 0 -30 -2 -17 -4z"/>
<path d="M1418 2033 c7 -3 16 -2 19 1 4 3 -2 6 -13 5 -11 0 -14 -3 -6 -6z"/>
<path d="M1758 2033 c7 -3 16 -2 19 1 4 3 -2 6 -13 5 -11 0 -14 -3 -6 -6z"/>
<path d="M1848 2033 c7 -3 16 -2 19 1 4 3 -2 6 -13 5 -11 0 -14 -3 -6 -6z"/>
<path d="M2058 2033 c7 -3 16 -2 19 1 4 3 -2 6 -13 5 -11 0 -14 -3 -6 -6z"/>
<path d="M2223 2033 c15 -2 37 -2 50 0 12 2 0 4 -28 4 -27 0 -38 -2 -22 -4z"/>
<path d="M2308 2033 c7 -3 16 -2 19 1 4 3 -2 6 -13 5 -11 0 -14 -3 -6 -6z"/>
<path d="M2400 2021 c0 -11 -3 -26 -6 -34 -3 -8 2 -21 10 -30 18 -17 21 -32 6
-22 -6 4 -10 -11 -10 -38 l0 -44 31 6 c43 9 57 44 26 67 l-22 16 22 -5 c13 -3
27 1 34 9 7 9 16 11 23 5 6 -5 35 -9 64 -9 47 -1 54 2 64 24 10 20 9 27 -3 35
-25 15 -56 10 -73 -13 l-16 -23 2 25 c2 18 -1 24 -12 21 -19 -4 -24 -5 -82 -3
-47 2 -65 16 -30 25 13 4 11 5 -5 6 -16 1 -23 -5 -23 -18z"/>
<path d="M2508 2033 c7 -3 16 -2 19 1 4 3 -2 6 -13 5 -11 0 -14 -3 -6 -6z"/>
<path d="M2608 2033 c7 -3 16 -2 19 1 4 3 -2 6 -13 5 -11 0 -14 -3 -6 -6z"/>
<path d="M2329 1984 c-7 -9 -14 -22 -15 -29 -3 -18 32 -49 40 -37 3 5 -1 15
-9 22 -14 12 -14 15 0 30 9 10 12 21 7 24 -5 3 -16 -1 -23 -10z"/>
<path d="M2713 1989 c-13 -5 -23 -15 -23 -23 0 -10 6 -13 16 -9 11 4 15 0 14
-13 -4 -32 -1 -35 22 -23 18 10 20 9 15 -5 -5 -11 -1 -16 14 -16 11 0 18 -4
14 -9 -12 -20 14 -20 39 0 33 26 33 31 -4 53 -26 15 -33 16 -47 4 -15 -11 -16
-11 -10 5 4 11 2 17 -8 17 -7 0 -15 6 -17 14 -2 10 -9 11 -25 5z"/>
<path d="M2862 1905 c0 -16 2 -22 5 -12 2 9 2 23 0 30 -3 6 -5 -1 -5 -18z"/>
<path d="M3421 1908 c-5 -15 -4 -27 5 -36 8 -7 14 -24 14 -38 0 -14 7 -27 15
-30 22 -9 18 -34 -6 -34 -13 0 -20 6 -18 18 5 57 -16 76 -51 44 -26 -24 -19
-72 11 -72 17 0 18 -3 7 -22 -7 -13 -19 -31 -27 -41 -12 -14 -12 -21 -1 -42
11 -21 20 -25 59 -24 38 1 42 2 21 9 -27 9 -26 11 6 15 21 2 84 41 84 51 0 3
-7 16 -16 29 l-16 24 40 -5 c45 -5 65 11 60 48 -3 25 -40 37 -61 19 -9 -7 -16
-5 -25 9 -10 17 -9 18 6 13 16 -5 16 -5 0 12 -9 10 -33 19 -55 20 -47 3 -44 0
-33 30 6 16 6 25 -1 25 -5 0 -13 -10 -18 -22z"/>
<path d="M2282 1904 c2 -9 13 -21 26 -25 19 -7 23 -6 20 7 -2 9 -13 21 -26 25
-19 7 -23 6 -20 -7z"/>
<path d="M2530 1911 c0 -5 7 -11 15 -15 8 -3 15 -1 15 3 0 5 -7 11 -15 15 -8
3 -15 1 -15 -3z"/>
<path d="M2910 1903 l-22 -15 31 -29 c20 -18 37 -26 48 -22 11 4 14 3 9 -5 -5
-8 1 -12 15 -12 12 0 19 -3 16 -7 -12 -11 14 -33 39 -33 25 0 32 14 13 26 -6
3 -9 15 -6 25 4 14 0 19 -14 19 -10 0 -18 6 -16 13 1 7 -6 11 -17 9 -10 -2
-15 1 -12 6 7 12 -15 31 -42 37 -11 2 -30 -4 -42 -12z"/>
<path d="M3517 1903 c-15 -14 -6 -24 20 -21 34 4 43 28 11 28 -14 0 -28 -3
-31 -7z"/>
<path d="M1989 1894 c-1 -5 -1 -13 0 -18 1 -5 -7 -6 -19 -3 -17 4 -20 0 -20
-28 0 -31 1 -32 31 -26 41 8 55 42 28 67 -10 9 -20 13 -20 8z"/>
<path d="M2186 1885 c4 -8 10 -15 15 -15 4 0 6 7 3 15 -4 8 -10 15 -15 15 -4
0 -6 -7 -3 -15z"/>
<path d="M2255 1890 c-3 -5 -1 -10 4 -10 6 0 11 5 11 10 0 6 -2 10 -4 10 -3 0
-8 -4 -11 -10z"/>
<path d="M2502 1875 c0 -16 2 -22 5 -12 2 9 2 23 0 30 -3 6 -5 -1 -5 -18z"/>
<path d="M3781 1874 c0 -11 3 -14 6 -6 3 7 2 16 -1 19 -3 4 -6 -2 -5 -13z"/>
<path d="M2132 1864 c2 -9 13 -21 26 -25 19 -7 23 -6 20 7 -2 9 -13 21 -26 25
-19 7 -23 6 -20 -7z"/>
<path d="M2539 1862 c-13 -12 -18 -21 -12 -25 6 -4 21 1 34 11 13 12 18 21 12
25 -6 4 -21 -1 -34 -11z"/>
<path d="M2458 1843 c6 -2 18 -2 25 0 6 3 1 5 -13 5 -14 0 -19 -2 -12 -5z"/>
<path d="M1492 1815 c0 -16 2 -22 5 -12 2 9 2 23 0 30 -3 6 -5 -1 -5 -18z"/>
<path d="M2398 1805 c-2 -17 -1 -58 3 -91 l6 -59 2 53 c1 48 3 52 25 52 31 0
46 19 35 48 -5 12 -12 22 -16 23 -4 0 -18 2 -30 3 -17 2 -22 -4 -25 -29z"/>
<path d="M2861 1774 c0 -11 3 -14 6 -6 3 7 2 16 -1 19 -3 4 -6 -2 -5 -13z"/>
<path d="M2720 1755 c0 -19 -5 -25 -22 -26 -16 -1 -18 -3 -6 -6 14 -4 15 -7 3
-30 -17 -32 -10 -47 14 -33 23 12 32 45 18 59 -8 8 -8 11 1 11 7 0 12 11 12
25 0 14 -4 25 -10 25 -5 0 -10 -11 -10 -25z"/>
<path d="M2996 1771 c-4 -5 3 -16 14 -24 18 -12 19 -16 5 -27 -8 -7 -12 -17
-9 -22 3 -5 14 -2 25 8 18 16 19 16 19 0 0 -10 9 -20 19 -23 11 -3 21 -13 24
-23 4 -14 -2 -20 -22 -23 -14 -2 -3 -5 24 -5 l50 -1 -24 20 c-22 18 -23 21 -7
38 21 23 8 36 -16 14 -17 -15 -18 -15 -18 1 0 9 -9 20 -19 24 -11 4 -19 11
-18 16 3 14 -40 39 -47 27z"/>
<path d="M3322 1755 c0 -16 2 -22 5 -12 2 9 2 23 0 30 -3 6 -5 -1 -5 -18z"/>
<path d="M2510 1755 c-15 -18 -5 -35 21 -35 10 0 18 -3 18 -7 -4 -22 3 -24 20
-9 16 15 18 22 9 42 -13 27 -49 32 -68 9z"/>
<path d="M2179 1742 c-13 -12 -18 -21 -12 -25 6 -4 21 1 34 11 13 12 18 21 12
25 -6 4 -21 -1 -34 -11z"/>
<path d="M2904 1752 c-17 -2 -20 -8 -16 -33 8 -54 46 -48 40 7 -2 23 -7 28
-24 26z"/>
<path d="M2775 1723 c-8 -21 13 -43 40 -43 26 0 40 24 22 38 -23 18 -56 20
-62 5z"/>
<path d="M2862 1715 c0 -16 2 -22 5 -12 2 9 2 23 0 30 -3 6 -5 -1 -5 -18z"/>
<path d="M2350 1715 c-7 -8 -8 -15 -2 -15 5 0 15 7 22 15 7 8 8 15 2 15 -5 0
-15 -7 -22 -15z"/>
<path d="M2079 1688 c4 -13 16 -24 25 -26 13 -3 14 1 7 20 -4 13 -16 24 -25
26 -13 3 -14 -1 -7 -20z"/>
<path d="M2180 1691 c0 -5 7 -11 15 -15 8 -3 15 -1 15 3 0 5 -7 11 -15 15 -8
3 -15 1 -15 -3z"/>
<path d="M2457 1667 c-31 -25 -29 -50 6 -68 17 -10 19 -9 14 5 -5 12 0 16 16
16 12 0 29 5 37 10 13 8 12 10 -2 10 -10 0 -18 4 -18 8 0 5 -6 16 -12 25 -12
16 -15 15 -41 -6z"/>
<path d="M2585 1660 c-3 -5 -1 -10 4 -10 6 0 11 5 11 10 0 6 -2 10 -4 10 -3 0
-8 -4 -11 -10z"/>
<path d="M2860 1658 c0 -4 -9 -10 -20 -13 -11 -3 -20 -14 -20 -22 0 -9 -7 -24
-16 -34 -12 -13 -13 -22 -5 -37 20 -37 71 -38 71 -1 0 22 28 39 65 39 18 0 29
6 32 20 3 11 13 20 22 21 13 0 14 1 1 6 -8 3 -21 10 -28 16 -14 11 -102 16
-102 5z"/>
<path d="M1155 1650 c4 -6 -8 -11 -27 -11 -29 -1 -27 -2 12 -9 25 -4 56 -4 70
1 l25 7 -27 1 c-15 1 -30 6 -33 11 -3 6 -11 10 -16 10 -6 0 -7 -4 -4 -10z"/>
<path d="M683 1633 c9 -2 23 -2 30 0 6 3 -1 5 -18 5 -16 0 -22 -2 -12 -5z"/>
<path d="M888 1633 c7 -3 16 -2 19 1 4 3 -2 6 -13 5 -11 0 -14 -3 -6 -6z"/>
<path d="M1828 1633 c12 -2 30 -2 40 0 9 3 -1 5 -23 4 -22 0 -30 -2 -17 -4z"/>
<path d="M2068 1633 c7 -3 16 -2 19 1 4 3 -2 6 -13 5 -11 0 -14 -3 -6 -6z"/>
<path d="M2188 1633 c23 -2 61 -2 85 0 23 2 4 4 -43 4 -47 0 -66 -2 -42 -4z"/>
<path d="M2583 1633 c15 -2 37 -2 50 0 12 2 0 4 -28 4 -27 0 -38 -2 -22 -4z"/>
<path d="M2718 1633 c7 -3 16 -2 19 1 4 3 -2 6 -13 5 -11 0 -14 -3 -6 -6z"/>
<path d="M3543 1633 c15 -2 37 -2 50 0 12 2 0 4 -28 4 -27 0 -38 -2 -22 -4z"/>
<path d="M2250 1600 c0 -5 7 -10 15 -10 8 0 15 5 15 10 0 6 -7 10 -15 10 -8 0
-15 -4 -15 -10z"/>
<path d="M1492 1549 c1 -37 2 -43 5 -21 4 27 7 31 18 22 25 -21 25 7 0 30
l-25 23 2 -54z"/>
<path d="M2401 1584 c0 -11 3 -14 6 -6 3 7 2 16 -1 19 -3 4 -6 -2 -5 -13z"/>
<path d="M3230 1575 c-17 -20 25 -61 45 -45 10 9 12 17 5 30 -13 24 -36 32
-50 15z"/>
<path d="M1953 1545 c0 -22 2 -30 4 -17 2 12 2 30 0 40 -3 9 -5 -1 -4 -23z"/>
<path d="M3333 1543 c-8 -3 -13 -20 -12 -41 0 -24 3 -31 7 -20 5 12 11 15 22
8 21 -13 42 7 30 30 -11 20 -29 29 -47 23z"/>
<path d="M1170 1525 c7 -8 17 -15 22 -15 6 0 5 7 -2 15 -7 8 -17 15 -22 15 -6
0 -5 -7 2 -15z"/>
<path d="M2254 1531 c3 -5 -1 -14 -9 -21 -8 -7 -12 -16 -9 -21 3 -5 -4 -9 -14
-9 -15 0 -19 -5 -15 -19 3 -10 0 -22 -6 -25 -19 -12 -12 -26 13 -26 25 0 51
22 39 33 -3 4 3 7 14 7 11 0 26 11 34 26 12 23 11 27 -4 38 -9 7 -14 16 -10
19 3 4 -4 7 -16 7 -12 0 -20 -4 -17 -9z"/>
<path d="M2674 1526 c-14 -37 0 -51 51 -51 49 0 50 1 50 30 0 29 -2 30 -48 33
-35 2 -49 -1 -53 -12z"/>
<path d="M1032 1505 c0 -16 2 -22 5 -12 2 9 2 23 0 30 -3 6 -5 -1 -5 -18z"/>
<path d="M3497 1496 c-3 -8 -16 -16 -29 -18 -19 -3 -18 -5 9 -9 27 -5 32 -2
36 18 5 25 -7 32 -16 9z"/>
<path d="M2403 1465 c0 -22 2 -30 4 -17 2 12 2 30 0 40 -3 9 -5 -1 -4 -23z"/>
<path d="M3100 1465 c0 -14 5 -25 10 -25 6 0 10 11 10 25 0 14 -4 25 -10 25
-5 0 -10 -11 -10 -25z"/>
<path d="M3556 1475 c-3 -8 -1 -15 3 -15 5 0 11 7 15 15 3 8 1 15 -3 15 -5 0
-11 -7 -15 -15z"/>
<path d="M1622 1474 c9 -3 18 -16 20 -30 4 -34 23 -31 23 4 0 23 -4 27 -30 29
-16 1 -22 -1 -13 -3z"/>
<path d="M2861 1464 c0 -11 3 -14 6 -6 3 7 2 16 -1 19 -3 4 -6 -2 -5 -13z"/>
<path d="M2788 1436 c-27 -20 -23 -54 7 -62 45 -11 71 29 39 60 -19 19 -24 19
-46 2z"/>
<path d="M2861 1404 c0 -11 3 -14 6 -6 3 7 2 16 -1 19 -3 4 -6 -2 -5 -13z"/>
<path d="M2916 1391 c-10 -11 -13 -22 -8 -25 5 -3 17 3 26 13 10 11 13 22 8
25 -5 3 -17 -3 -26 -13z"/>
<path d="M1491 1384 c0 -11 3 -14 6 -6 3 7 2 16 -1 19 -3 4 -6 -2 -5 -13z"/>
<path d="M2129 1384 c-17 -21 0 -49 31 -49 27 0 46 25 37 49 -8 21 -51 21 -68
0z"/>
<path d="M890 1376 c0 -2 7 -7 16 -10 8 -3 12 -2 9 4 -6 10 -25 14 -25 6z"/>
<path d="M3511 1358 c-5 -13 -7 -25 -5 -27 6 -7 22 9 27 29 7 27 -12 25 -22
-2z"/>
<path d="M1032 1283 c-1 -18 -7 -33 -13 -33 -5 0 -9 10 -7 23 3 19 -1 22 -32
22 -31 0 -35 -3 -36 -27 -1 -26 1 -28 42 -28 29 0 44 -4 44 -12 0 -9 3 -10 8
-2 4 6 14 14 22 17 12 4 12 6 -2 6 -11 1 -18 12 -21 34 l-4 32 -1 -32z"/>
<path d="M1225 1250 c-19 -8 -19 -9 1 -9 12 -1 24 -8 28 -16 3 -8 12 -15 20
-15 10 0 13 6 10 15 -5 11 1 15 22 15 37 0 28 6 -21 13 -22 3 -49 1 -60 -3z"/>
<path d="M3316 1250 c-1 -3 1 -18 5 -35 6 -29 7 -29 8 -4 1 25 3 26 62 27 86
1 85 10 -1 14 -40 1 -73 1 -74 -2z"/>
<path d="M1368 1243 c7 -3 16 -2 19 1 4 3 -2 6 -13 5 -11 0 -14 -3 -6 -6z"/>
<path d="M2108 1243 c7 -3 16 -2 19 1 4 3 -2 6 -13 5 -11 0 -14 -3 -6 -6z"/>
<path d="M2218 1243 c12 -2 30 -2 40 0 9 3 -1 5 -23 4 -22 0 -30 -2 -17 -4z"/>
<path d="M2850 1240 c13 -8 12 -12 -7 -25 -23 -16 -21 -45 3 -45 8 0 14 -8 15
-17 0 -14 2 -15 6 -3 3 8 13 23 22 33 14 17 14 20 -2 32 -9 6 -17 17 -17 24 0
6 -8 11 -17 11 -15 0 -16 -2 -3 -10z"/>
<path d="M2918 1243 c12 -2 30 -2 40 0 9 3 -1 5 -23 4 -22 0 -30 -2 -17 -4z"/>
<path d="M3029 1231 c6 -10 20 -21 32 -24 17 -5 20 -2 16 13 -4 17 2 20 52 23
45 3 40 4 -27 5 -78 2 -82 1 -73 -17z"/>
<path d="M2254 1025 c-9 -22 9 -37 37 -33 16 2 24 10 24 23 0 26 -52 35 -61
10z"/>
<path d="M2863 1005 c0 -22 2 -30 4 -17 2 12 2 30 0 40 -3 9 -5 -1 -4 -23z"/>
<path d="M2753 973 c9 -2 23 -2 30 0 6 3 -1 5 -18 5 -16 0 -22 -2 -12 -5z"/>
<path d="M1198 843 c12 -2 30 -2 40 0 9 3 -1 5 -23 4 -22 0 -30 -2 -17 -4z"/>
<path d="M1101 728 c-5 -13 -7 -25 -5 -27 6 -7 22 9 27 29 7 27 -12 25 -22 -2z"/>
<path d="M1160 730 c0 -5 5 -10 11 -10 5 0 7 5 4 10 -3 6 -8 10 -11 10 -2 0
-4 -4 -4 -10z"/>
<path d="M872 485 c0 -22 2 -32 5 -22 5 21 23 23 23 2 0 -10 10 -15 30 -15 26
0 30 3 29 28 -2 23 -2 24 -6 5 -6 -32 -19 -28 -26 7 -7 31 -27 42 -27 15 0
-21 -18 -19 -23 3 -3 9 -5 -1 -5 -23z"/>
<path d="M1110 510 c0 -5 -7 -10 -15 -10 -9 0 -15 -9 -15 -25 0 -18 5 -25 20
-25 16 0 20 7 20 35 0 19 -2 35 -5 35 -3 0 -5 -4 -5 -10z m0 -35 c0 -8 -4 -15
-10 -15 -5 0 -10 7 -10 15 0 8 5 15 10 15 6 0 10 -7 10 -15z"/>
<path d="M1158 510 c-6 -19 2 -60 12 -60 5 0 6 9 3 20 -3 11 -1 20 5 20 13 0
25 -36 17 -50 -3 -5 -2 -10 3 -10 6 0 15 14 21 31 15 42 13 48 -4 25 -13 -17
-15 -18 -15 -3 0 9 -6 17 -14 17 -8 0 -16 6 -18 13 -4 9 -6 8 -10 -3z"/>
<path d="M970 475 c0 -31 17 -33 23 -2 l4 22 2 -22 c0 -13 6 -23 12 -23 5 0 7
5 4 10 -3 6 -3 16 1 22 6 9 10 5 15 -12 l7 -25 1 28 c1 24 -2 27 -34 27 -31 0
-35 -3 -35 -25z"/>
<path d="M1050 475 c0 -14 5 -25 10 -25 6 0 10 11 10 25 0 14 -4 25 -10 25 -5
0 -10 -11 -10 -25z"/>
<path d="M1132 475 c0 -16 2 -22 5 -12 2 9 2 23 0 30 -3 6 -5 -1 -5 -18z"/>
<path d="M3321 478 c0 -10 -7 -18 -13 -18 -9 0 -10 -3 -2 -8 6 -4 14 -14 17
-22 4 -12 6 -12 6 2 1 11 12 18 34 21 l32 4 -32 1 c-21 1 -33 8 -36 20 -4 16
-5 16 -6 0z"/>
<path d="M3561 472 c-13 -25 5 -52 34 -52 13 0 28 8 34 17 13 25 -5 53 -34 53
-13 0 -29 -8 -34 -18z"/>
<path d="M298 2473 c6 -2 12 -17 12 -33 0 -16 -6 -31 -12 -33 -7 -3 10 -5 37
-4 l50 2 0 35 c0 28 -4 35 -20 35 -15 0 -21 -8 -23 -32 -4 -44 -22 -42 -22 2
0 27 -4 35 -17 34 -11 0 -13 -3 -5 -6z m82 -33 c0 -10 -5 -22 -10 -25 -13 -8
-24 20 -16 41 8 20 26 9 26 -16z"/>
<path d="M404 2466 c-11 -28 0 -61 21 -61 16 0 20 7 20 35 0 25 -5 36 -18 38
-9 2 -20 -3 -23 -12z m36 -26 c0 -16 -4 -30 -9 -30 -13 0 -21 27 -15 45 10 25
24 17 24 -15z"/>
<path d="M358 2050 c-6 -42 1 -49 52 -47 44 2 45 2 45 37 0 35 0 35 -46 37
-45 2 -47 1 -51 -27z m32 10 c0 -5 -4 -10 -10 -10 -5 0 -10 5 -10 10 0 6 5 10
10 10 6 0 10 -4 10 -10z m60 -20 c0 -10 -5 -22 -10 -25 -13 -8 -24 20 -16 41
8 20 26 9 26 -16z m-60 -15 c0 -8 -4 -15 -10 -15 -5 0 -10 7 -10 15 0 8 5 15
10 15 6 0 10 -7 10 -15z"/>
<path d="M147 1718 c-15 -11 -11 -13 32 -13 51 0 56 9 11 20 -14 3 -33 0 -43
-7z"/>
<path d="M174 1675 c-4 -10 -13 -13 -25 -10 -34 11 -20 -4 24 -25 40 -20 41
-20 17 -1 -21 17 -22 19 -5 18 11 -1 21 5 23 16 4 21 -26 23 -34 2z"/>
<path d="M364 1666 c-3 -8 -4 -25 -2 -38 3 -20 9 -23 48 -23 45 0 45 0 45 35
0 26 -5 36 -18 38 -12 2 -20 -3 -24 -16 -3 -14 -11 -18 -25 -14 -20 5 -20 6
-3 19 17 12 17 13 2 13 -10 0 -20 -6 -23 -14z m86 -26 c0 -10 -5 -22 -10 -25
-13 -8 -24 20 -16 41 8 20 26 9 26 -16z m-58 -15 c0 -5 -5 -11 -11 -13 -6 -2
-11 4 -11 13 0 9 5 15 11 13 6 -2 11 -8 11 -13z"/>
<path d="M132 1623 c4 -21 33 -25 33 -3 0 8 -8 16 -18 18 -14 3 -18 -1 -15
-15z"/>
<path d="M137 1578 c6 -10 65 -10 81 0 7 5 -8 8 -37 8 -27 -1 -47 -4 -44 -8z"/>
<path d="M150 1520 c0 -5 8 -10 18 -10 16 -1 16 -1 0 -14 -10 -7 -18 -20 -18
-29 0 -8 -6 -18 -12 -20 -10 -4 -10 -6 0 -6 6 -1 12 -8 12 -16 0 -10 10 -15
30 -15 38 0 39 17 3 23 l-28 4 28 2 c19 1 27 6 26 19 0 10 -3 12 -6 5 -7 -18
-43 -16 -43 2 0 16 43 31 59 20 6 -3 11 -1 11 4 0 6 -2 11 -4 11 -2 0 -20 7
-40 15 -21 9 -36 11 -36 5z"/>
<path d="M130 1390 c0 -5 5 -10 10 -10 6 0 10 -6 10 -14 0 -8 7 -16 15 -20 25
-9 45 4 45 30 0 21 -4 24 -40 24 -22 0 -40 -4 -40 -10z m70 -20 c0 -5 -9 -10
-20 -10 -11 0 -20 5 -20 10 0 6 9 10 20 10 11 0 20 -4 20 -10z"/>
<path d="M163 1323 c9 -2 25 -2 35 0 9 3 1 5 -18 5 -19 0 -27 -2 -17 -5z"/>
<path d="M164 1302 c-6 -4 -11 -24 -12 -44 -1 -36 0 -38 28 -38 17 0 30 5 30
10 0 6 -12 10 -27 10 -29 0 -22 15 12 23 15 4 13 5 -7 6 -35 1 -37 21 -3 21
14 0 25 5 25 10 0 12 -30 13 -46 2z"/>
<path d="M366 1265 c-20 -31 -20 -35 3 -35 11 0 22 -6 24 -12 4 -10 6 -9 6 1
1 11 4 11 16 1 25 -21 47 -4 43 32 -4 42 -38 47 -49 8 l-7 -25 -1 28 c-1 34
-14 35 -35 2z m84 -15 c0 -10 -5 -22 -10 -25 -13 -8 -24 20 -16 41 8 20 26 9
26 -16z m-64 -7 c-10 -10 -19 5 -10 18 6 11 8 11 12 0 2 -7 1 -15 -2 -18z"/>
<path d="M130 1200 c0 -5 7 -10 15 -10 21 0 19 -28 -2 -33 -10 -3 2 -5 27 -4
25 0 35 2 23 4 -28 5 -30 33 -3 33 11 0 20 5 20 10 0 6 -18 10 -40 10 -22 0
-40 -4 -40 -10z"/>
<path d="M373 883 c21 -6 22 -26 2 -43 -26 -22 -16 -30 33 -28 45 3 47 4 50
36 4 36 -18 53 -43 32 -10 -9 -15 -9 -15 -1 0 6 -10 10 -22 10 -17 -1 -19 -2
-5 -6z m77 -33 c0 -25 -18 -36 -26 -16 -8 21 3 49 16 41 5 -3 10 -15 10 -25z
m-40 -10 c0 -11 -7 -20 -15 -20 -13 0 -13 3 -3 20 7 11 14 20 15 20 2 0 3 -9
3 -20z"/>
<path d="M417 480 c-8 -31 3 -60 23 -60 22 0 34 31 25 60 -3 11 -15 20 -25 20
-9 0 -20 -9 -23 -20z m33 -20 c0 -16 -4 -30 -10 -30 -5 0 -10 14 -10 30 0 17
5 30 10 30 6 0 10 -13 10 -30z"/>
<path d="M555 270 c-5 -15 -16 -20 -43 -22 l-37 -1 34 -4 c19 -3 40 -12 47
-20 13 -19 44 -11 44 12 0 9 -7 18 -15 21 -20 8 -19 21 3 27 13 4 12 5 -5 6
-14 1 -24 -6 -28 -19z m35 -35 c0 -8 -4 -15 -9 -15 -13 0 -22 16 -14 24 11 11
23 6 23 -9z"/>
<path d="M615 270 c-9 -29 3 -60 25 -60 20 0 31 29 23 60 -3 11 -14 20 -23 20
-10 0 -22 -9 -25 -20z m35 -20 c0 -16 -4 -30 -10 -30 -5 0 -10 14 -10 30 0 17
5 30 10 30 6 0 10 -13 10 -30z"/>
<path d="M1036 265 c4 -15 2 -25 -5 -25 -6 0 -8 8 -4 18 5 14 3 15 -8 5 -7 -7
-29 -14 -48 -14 -32 -1 -31 -2 13 -10 27 -4 52 -13 56 -20 6 -8 9 -8 12 1 6
20 -3 70 -13 70 -5 0 -7 -11 -3 -25z"/>
<path d="M1074 276 c-11 -28 0 -61 21 -61 16 0 20 7 20 35 0 25 -5 36 -18 38
-9 2 -20 -3 -23 -12z m36 -26 c0 -16 -4 -30 -9 -30 -13 0 -21 27 -15 45 10 25
24 17 24 -15z"/>
<path d="M1460 280 c0 -5 7 -7 15 -4 9 4 15 0 15 -9 0 -8 -7 -20 -15 -27 -23
-19 -18 -30 13 -29 18 1 21 3 9 6 -17 4 -18 6 -2 24 10 10 15 25 12 34 -7 16
-47 21 -47 5z"/>
<path d="M1525 270 c-9 -29 3 -60 25 -60 20 0 31 29 23 60 -3 11 -14 20 -23
20 -10 0 -22 -9 -25 -20z m35 -20 c0 -16 -4 -30 -10 -30 -5 0 -10 14 -10 30 0
17 5 30 10 30 6 0 10 -13 10 -30z"/>
<path d="M1927 270 c-8 -31 3 -60 23 -60 10 0 22 9 25 20 9 29 -3 60 -25 60
-9 0 -20 -9 -23 -20z m33 -20 c0 -16 -4 -30 -10 -30 -5 0 -10 14 -10 30 0 17
5 30 10 30 6 0 10 -13 10 -30z"/>
<path d="M2373 283 c21 -6 22 -26 2 -43 -26 -22 -16 -30 33 -28 45 3 47 4 50
36 4 36 -18 53 -43 32 -10 -9 -15 -9 -15 -1 0 6 -10 10 -22 10 -17 -1 -19 -2
-5 -6z m77 -33 c0 -10 -5 -22 -10 -25 -13 -8 -24 20 -16 41 8 20 26 9 26 -16z
m-40 -10 c0 -11 -7 -20 -15 -20 -13 0 -13 3 -3 20 7 11 14 20 15 20 2 0 3 -9
3 -20z"/>
<path d="M2816 265 c-20 -31 -20 -35 3 -35 11 0 22 -6 24 -12 4 -10 6 -9 6 1
1 11 4 11 16 1 25 -21 47 -4 43 32 -4 42 -38 47 -49 8 l-7 -25 -1 28 c-1 34
-14 35 -35 2z m84 -15 c0 -25 -18 -36 -26 -16 -8 21 3 49 16 41 5 -3 10 -15
10 -25z m-64 -7 c-10 -10 -19 5 -10 18 6 11 8 11 12 0 2 -7 1 -15 -2 -18z"/>
<path d="M3274 276 c-3 -8 -4 -25 -2 -38 3 -20 9 -23 48 -23 45 0 45 0 45 35
0 26 -5 36 -18 38 -12 2 -20 -3 -24 -16 -3 -14 -11 -18 -25 -14 -20 5 -20 6
-3 19 17 12 17 13 2 13 -10 0 -20 -6 -23 -14z m86 -26 c0 -25 -18 -36 -26 -16
-8 21 3 49 16 41 5 -3 10 -15 10 -25z m-58 -15 c0 -5 -5 -11 -11 -13 -6 -2
-11 4 -11 13 0 9 5 15 11 13 6 -2 11 -8 11 -13z"/>
<path d="M3728 260 c-6 -42 1 -49 52 -47 44 2 45 2 45 37 0 35 0 35 -46 37
-45 2 -47 1 -51 -27z m32 10 c0 -5 -4 -10 -10 -10 -5 0 -10 5 -10 10 0 6 5 10
10 10 6 0 10 -4 10 -10z m60 -20 c0 -25 -18 -36 -26 -16 -8 21 3 49 16 41 5
-3 10 -15 10 -25z m-60 -15 c0 -8 -4 -15 -10 -15 -5 0 -10 7 -10 15 0 8 5 15
10 15 6 0 10 -7 10 -15z"/>
<path d="M1408 243 c12 -2 30 -2 40 0 9 3 -1 5 -23 4 -22 0 -30 -2 -17 -4z"/>
<path d="M2022 113 l-2 -43 51 0 c49 0 50 1 47 28 -2 21 -9 27 -28 29 -14 1
-17 -1 -8 -3 15 -5 15 -7 -3 -25 -30 -30 -47 -24 -52 19 l-4 37 -1 -42z m83
-23 c-3 -5 -11 -10 -16 -10 -6 0 -7 5 -4 10 3 6 11 10 16 10 6 0 7 -4 4 -10z"/>
<path d="M2200 140 c0 -5 -7 -10 -15 -10 -10 0 -15 -10 -15 -30 0 -38 17 -39
23 -2 l4 27 2 -27 c1 -20 6 -28 19 -27 10 0 12 3 5 6 -15 5 -17 40 -4 45 5 2
3 9 -5 16 -8 7 -14 8 -14 2z"/>
<path d="M2340 141 c0 -5 -9 -11 -21 -14 -29 -8 -22 -51 9 -55 20 -3 22 1 22
37 0 23 -2 41 -5 41 -3 0 -5 -4 -5 -9z m-5 -51 c-5 -8 -11 -8 -17 -2 -6 6 -7
16 -3 22 5 8 11 8 17 2 6 -6 7 -16 3 -22z"/>
<path d="M2132 109 c4 -42 23 -49 22 -7 0 18 -6 34 -13 36 -9 3 -11 -6 -9 -29z"/>
<path d="M2243 105 c2 -23 7 -31 25 -33 19 -3 22 1 21 30 -1 28 -2 29 -7 10
-4 -13 -11 -23 -17 -23 -5 0 -13 10 -17 23 -6 19 -7 18 -5 -7z"/>
<path d="M2367 116 c-10 -25 3 -46 27 -45 16 1 17 2 4 6 -25 6 -22 23 3 23 26
0 20 24 -8 28 -11 2 -23 -4 -26 -12z"/>
</g>
</svg>
