<?xml version="1.0" standalone="no"?>
<!DOCTYPE svg PUBLIC "-//W3C//DTD SVG 20010904//EN"
 "http://www.w3.org/TR/2001/REC-SVG-20010904/DTD/svg10.dtd">
<svg version="1.0" xmlns="http://www.w3.org/2000/svg"
 width="432.000000pt" height="288.000000pt" viewBox="0 0 432.000000 288.000000"
 preserveAspectRatio="xMidYMid meet">

<g transform="translate(0.000000,288.000000) scale(0.100000,-0.100000)"
fill="#000000" stroke="none">
<path d="M2580 2676 c0 -7 -9 -16 -20 -19 -45 -12 -31 -67 16 -67 22 0 24 4
24 50 0 28 -4 50 -10 50 -5 0 -10 -6 -10 -14z m-4 -62 c-5 -13 -10 -14 -18 -6
-6 6 -8 18 -4 28 5 13 10 14 18 6 6 -6 8 -18 4 -28z"/>
<path d="M879 2659 c-16 -31 3 -69 35 -69 14 0 28 5 32 11 4 7 0 9 -13 5 -27
-9 -51 19 -36 42 6 10 21 16 32 15 13 -2 20 1 16 7 -11 18 -54 11 -66 -11z"/>
<path d="M998 2669 c-2 -6 -2 -26 0 -45 3 -24 9 -34 21 -33 10 0 11 2 4 6 -15
5 -18 50 -4 55 5 2 3 8 -4 15 -9 9 -15 9 -17 2z"/>
<path d="M1153 2673 c12 -3 17 -15 17 -44 0 -21 5 -39 10 -39 6 0 10 18 10 39
0 29 5 41 18 44 9 3 -3 5 -28 5 -25 0 -37 -2 -27 -5z"/>
<path d="M1692 2638 c2 -34 7 -43 23 -45 11 -2 14 0 8 3 -16 7 -17 54 -2 54 6
0 4 7 -5 15 -23 23 -27 18 -24 -27z"/>
<path d="M2190 2635 c0 -44 0 -45 33 -44 23 1 26 3 10 6 -19 4 -23 11 -23 44
0 21 -4 39 -10 39 -5 0 -10 -20 -10 -45z"/>
<path d="M2332 2638 c2 -34 7 -43 23 -45 11 -2 14 0 8 3 -16 7 -17 54 -2 54 6
0 4 7 -5 15 -23 23 -27 18 -24 -27z"/>
<path d="M2410 2651 c0 -41 9 -61 29 -60 10 0 11 2 4 6 -16 6 -17 53 -2 53 6
0 4 7 -5 15 -21 21 -26 19 -26 -14z"/>
<path d="M2810 2626 c0 -34 -5 -56 -12 -59 -8 -4 -7 -6 3 -6 9 -1 20 6 23 15
10 26 7 104 -4 104 -5 0 -10 -24 -10 -54z"/>
<path d="M3040 2669 c0 -5 5 -7 10 -4 6 4 10 -8 10 -29 0 -19 -6 -37 -12 -39
-7 -3 -2 -6 12 -6 24 -1 25 2 22 44 -3 36 -8 45 -23 45 -10 0 -19 -5 -19 -11z"/>
<path d="M3114 2667 c-3 -9 -4 -28 -2 -44 2 -22 8 -28 28 -28 23 0 25 4 25 40
0 34 -3 40 -23 43 -13 2 -24 -3 -28 -11z m40 -13 c8 -20 -2 -54 -14 -54 -11 0
-17 29 -12 53 5 22 18 22 26 1z"/>
<path d="M3260 2669 c0 -6 9 -8 20 -4 27 8 26 -14 -1 -49 l-20 -26 33 1 c18 1
25 3 15 6 -17 4 -17 6 -2 30 9 13 14 31 11 39 -6 16 -56 19 -56 3z"/>
<path d="M3344 2666 c-12 -31 0 -71 23 -74 25 -4 38 26 29 64 -7 27 -43 34
-52 10z m36 -32 c0 -24 -4 -34 -12 -32 -24 8 -22 68 2 68 5 0 10 -16 10 -36z"/>
<path d="M3420 2669 c0 -5 5 -7 10 -4 6 4 10 -8 10 -29 0 -19 -6 -37 -12 -39
-7 -3 1 -5 17 -5 17 0 24 2 18 5 -8 2 -13 22 -13 44 0 28 -4 39 -15 39 -8 0
-15 -5 -15 -11z"/>
<path d="M3497 2674 c-15 -15 -6 -45 16 -53 l22 -9 -25 -10 c-23 -10 -23 -11
-4 -11 29 -1 46 22 42 56 -3 27 -34 44 -51 27z m33 -24 c0 -11 -4 -20 -9 -20
-14 0 -23 18 -16 30 10 17 25 11 25 -10z"/>
<path d="M960 2625 c0 -19 5 -35 10 -35 6 0 10 16 10 35 0 19 -4 35 -10 35 -5
0 -10 -16 -10 -35z"/>
<path d="M1043 2646 c18 -45 19 -68 6 -77 -11 -7 -11 -9 2 -9 17 0 56 86 45
98 -4 3 -9 -4 -13 -16 -6 -25 -23 -30 -23 -8 0 8 -5 18 -12 22 -8 5 -9 2 -5
-10z"/>
<path d="M1229 2644 c-17 -21 0 -48 32 -51 l24 -3 -25 12 -25 12 28 4 c21 2
27 8 23 19 -3 8 -6 17 -6 19 0 11 -39 2 -51 -12z m41 -4 c0 -5 -7 -10 -16 -10
-8 0 -12 5 -9 10 3 6 10 10 16 10 5 0 9 -4 9 -10z"/>
<path d="M1300 2625 c0 -19 5 -35 10 -35 6 0 10 14 10 30 0 17 5 30 10 30 6 0
10 -13 10 -30 0 -36 17 -40 22 -5 4 36 22 36 30 0 6 -29 6 -29 5 5 -2 34 -3
35 -49 38 l-48 2 0 -35z"/>
<path d="M1421 2608 c1 -29 3 -45 6 -36 2 9 14 18 26 20 17 2 22 10 22 33 0
25 -4 30 -27 33 -28 3 -28 2 -27 -50z m42 29 c3 -8 1 -20 -4 -28 -8 -12 -10
-12 -18 0 -10 15 -4 41 9 41 4 0 10 -6 13 -13z"/>
<path d="M1495 2641 c-9 -28 5 -51 31 -51 13 0 24 4 24 9 0 5 -9 7 -20 4 -11
-3 -20 0 -20 6 0 6 11 11 25 11 23 0 24 2 15 20 -13 25 -47 26 -55 1z m40 -1
c3 -5 -1 -10 -9 -10 -9 0 -16 5 -16 10 0 6 4 10 9 10 6 0 13 -4 16 -10z"/>
<path d="M1571 2623 c1 -38 1 -38 9 -9 5 16 15 33 22 37 9 6 6 9 -9 9 -20 0
-23 -5 -22 -37z"/>
<path d="M1620 2650 c0 -5 6 -7 14 -4 8 3 17 1 21 -5 3 -7 -2 -11 -14 -11 -14
0 -21 -6 -21 -20 0 -16 7 -20 30 -20 31 0 38 17 24 54 -7 17 -54 23 -54 6z
m35 -40 c-3 -5 -10 -10 -16 -10 -5 0 -9 5 -9 10 0 6 7 10 16 10 8 0 12 -4 9
-10z"/>
<path d="M1742 2628 c2 -28 8 -34 31 -36 25 -3 27 -1 27 32 0 20 -4 36 -10 36
-5 0 -10 -13 -10 -30 0 -16 -4 -30 -10 -30 -5 0 -10 14 -10 30 0 17 -5 30 -11
30 -6 0 -9 -14 -7 -32z"/>
<path d="M1821 2623 c1 -27 3 -31 6 -13 2 14 12 31 21 38 14 11 13 12 -6 12
-19 0 -22 -5 -21 -37z"/>
<path d="M1869 2644 c-17 -21 0 -48 32 -51 l24 -3 -25 12 -25 12 28 4 c21 2
27 8 23 19 -3 8 -6 17 -6 19 0 11 -39 2 -51 -12z m41 -4 c0 -5 -7 -10 -16 -10
-8 0 -12 5 -9 10 3 6 10 10 16 10 5 0 9 -4 9 -10z"/>
<path d="M2023 2625 c6 -19 16 -35 22 -35 6 0 16 16 22 35 6 19 7 35 2 35 -5
0 -12 -12 -16 -27 l-6 -28 -10 28 c-13 40 -27 33 -14 -8z"/>
<path d="M2090 2640 c0 -11 7 -20 15 -20 8 0 15 -5 15 -11 0 -6 -7 -9 -15 -5
-8 3 -15 1 -15 -4 0 -14 37 -12 46 1 4 7 -3 20 -17 29 l-23 18 25 5 c23 4 23
4 -3 6 -22 1 -28 -4 -28 -19z"/>
<path d="M2260 2650 c0 -5 6 -7 14 -4 8 3 17 1 21 -5 3 -7 -2 -11 -14 -11 -14
0 -21 -6 -21 -20 0 -16 7 -20 30 -20 31 0 38 17 24 54 -7 17 -54 23 -54 6z
m35 -40 c-3 -5 -10 -10 -16 -10 -5 0 -9 5 -9 10 0 6 7 10 16 10 8 0 12 -4 9
-10z"/>
<path d="M2380 2625 c0 -19 5 -35 10 -35 6 0 10 16 10 35 0 19 -4 35 -10 35
-5 0 -10 -16 -10 -35z"/>
<path d="M2462 2628 c2 -28 8 -34 31 -36 25 -3 27 -1 27 32 0 20 -4 36 -10 36
-5 0 -10 -13 -10 -30 0 -16 -4 -30 -10 -30 -5 0 -10 14 -10 30 0 17 -5 30 -11
30 -6 0 -9 -14 -7 -32z"/>
<path d="M2615 2641 c-9 -28 5 -51 31 -51 13 0 24 4 24 9 0 5 -9 7 -20 4 -11
-3 -20 0 -20 6 0 6 11 11 25 11 23 0 24 2 15 20 -13 25 -47 26 -55 1z m40 -1
c3 -5 -1 -10 -9 -10 -9 0 -16 5 -16 10 0 6 4 10 9 10 6 0 13 -4 16 -10z"/>
<path d="M2850 2650 c0 -6 5 -8 10 -5 6 3 16 3 22 -1 9 -6 5 -10 -12 -14 -34
-8 -32 -34 3 -38 27 -3 28 -1 25 30 -2 25 -8 34 -25 36 -13 2 -23 -2 -23 -8z
m35 -40 c-3 -5 -10 -10 -16 -10 -5 0 -9 5 -9 10 0 6 7 10 16 10 8 0 12 -4 9
-10z"/>
<path d="M2920 2626 c0 -20 5 -36 10 -36 6 0 10 14 10 30 0 17 5 30 10 30 6 0
10 -13 10 -30 0 -16 5 -30 11 -30 6 0 9 14 7 33 -2 27 -8 33 -30 35 -26 3 -28
1 -28 -32z"/>
<path d="M2728 2623 c6 -2 18 -2 25 0 6 3 1 5 -13 5 -14 0 -19 -2 -12 -5z"/>
<path d="M3190 2595 c0 -8 2 -15 4 -15 2 0 6 7 10 15 3 8 1 15 -4 15 -6 0 -10
-7 -10 -15z"/>
<path d="M540 2436 c0 -82 -2 -95 -17 -99 -17 -4 -17 -5 0 -6 15 -1 17 -14 17
-125 0 -110 -2 -125 -17 -129 -17 -4 -17 -5 0 -6 15 -1 17 -14 17 -125 0 -110
-2 -125 -17 -129 -17 -4 -17 -5 0 -6 15 -1 17 -14 17 -125 0 -110 -2 -125 -17
-129 -17 -4 -17 -5 0 -6 15 -1 17 -14 17 -125 0 -110 -2 -125 -17 -129 -17 -4
-17 -5 0 -6 15 -1 17 -14 17 -125 0 -110 -2 -125 -17 -129 -17 -4 -17 -5 0 -6
15 -1 17 -14 17 -125 0 -110 -2 -125 -17 -129 -17 -4 -17 -5 0 -6 15 -1 17
-14 17 -120 0 -105 -2 -120 -17 -124 -17 -4 -17 -5 0 -6 15 -1 17 -12 17 -86
0 -67 3 -85 14 -85 8 0 17 -10 19 -22 l4 -23 2 23 1 22 224 0 225 0 4 -22 4
-23 2 23 1 22 224 0 225 0 4 -22 4 -23 2 23 1 22 224 0 225 0 4 -23 4 -22 2
23 1 22 219 0 220 0 4 -23 4 -22 2 23 1 22 224 0 225 0 4 -22 4 -23 2 23 1 22
224 0 225 0 4 -23 4 -22 2 23 1 22 224 0 225 0 4 -22 4 -23 2 23 c1 20 6 22
56 22 l55 0 0 1090 0 1090 -1680 0 -1680 0 0 -94z m3350 -996 l0 -1080 -1670
0 -1670 0 0 1080 0 1080 1670 0 1670 0 0 -1080z"/>
<path d="M3277 2452 c6 -4 13 -21 16 -37 l4 -30 2 32 c0 17 7 34 14 36 6 3 -1
6 -18 6 -16 0 -25 -3 -18 -7z"/>
<path d="M3641 2429 c-1 -36 0 -37 39 -37 36 -1 40 2 40 24 0 30 -17 32 -23 2
l-4 -23 -2 23 c-1 15 -7 22 -20 22 -11 0 -22 6 -24 13 -3 6 -6 -4 -6 -24z m29
-14 c0 -8 -4 -15 -10 -15 -5 0 -10 7 -10 15 0 8 5 15 10 15 6 0 10 -7 10 -15z"/>
<path d="M1380 2430 c-11 -11 -18 -25 -15 -30 8 -13 34 -1 45 21 15 27 -6 33
-30 9z"/>
<path d="M3314 2426 c-8 -22 4 -36 29 -35 21 0 21 1 2 9 -18 8 -18 9 -2 9 10
1 17 7 15 14 -7 18 -37 21 -44 3z"/>
<path d="M3371 2413 c2 -23 2 -24 6 -5 2 12 8 22 13 22 5 0 11 -10 13 -22 l4
-23 2 23 c1 27 18 29 24 2 4 -17 4 -16 3 2 -1 18 -8 24 -33 26 -30 3 -33 1
-32 -25z"/>
<path d="M3451 2403 c0 -21 3 -32 6 -25 2 6 11 12 19 12 8 0 14 10 14 25 0 18
-5 25 -20 25 -17 0 -20 -6 -19 -37z m29 12 c0 -8 -4 -15 -10 -15 -5 0 -10 7
-10 15 0 8 5 15 10 15 6 0 10 -7 10 -15z"/>
<path d="M3504 2425 c-8 -19 3 -35 24 -34 14 0 13 2 -3 9 -19 8 -19 9 3 9 12
1 22 -3 22 -9 0 -21 18 -9 22 15 5 26 -16 36 -25 13 -4 -10 -6 -10 -6 0 -1 17
-30 15 -37 -3z"/>
<path d="M3605 2431 c17 -8 18 -10 3 -10 -26 -1 -22 -31 3 -31 28 0 23 44 -6
47 l-20 3 20 -9z"/>
<path d="M3731 2412 c2 -24 2 -25 6 -4 5 27 19 29 26 2 3 -11 13 -20 24 -19
16 0 16 1 -2 9 -19 8 -19 9 2 9 38 1 16 29 -23 29 -30 0 -34 -3 -33 -26z"/>
<path d="M1175 2340 c-4 -6 -1 -17 5 -25 6 -8 9 -18 6 -23 -3 -6 10 -12 29
-14 26 -3 34 -1 31 9 -9 22 5 43 28 44 20 0 20 1 1 9 -28 12 -93 12 -100 0z"/>
<path d="M1580 2331 c19 -3 31 -9 25 -13 -5 -3 -10 -23 -10 -45 0 -36 2 -38
35 -41 30 -2 35 0 36 20 1 13 4 30 5 38 3 11 -3 14 -26 11 -30 -3 -30 -3 -11
18 l19 21 -54 -1 c-47 -1 -49 -2 -19 -8z"/>
<path d="M1098 2239 c5 -13 14 -25 20 -27 8 -2 9 3 4 19 -5 13 -14 25 -20 27
-8 2 -9 -3 -4 -19z"/>
<path d="M1259 2244 c-17 -21 0 -49 31 -49 31 0 48 28 31 49 -8 9 -21 16 -31
16 -10 0 -23 -7 -31 -16z"/>
<path d="M1948 2200 c-3 -10 -20 -14 -59 -15 -47 0 -54 -3 -54 -20 -1 -41 -16
-49 -41 -21 -13 14 -24 30 -24 35 0 6 -11 6 -30 -1 -23 -7 -29 -15 -25 -28 3
-11 -1 -20 -11 -24 -16 -6 -16 -5 0 -131 3 -22 3 -33 -1 -25 -3 8 -16 25 -29
36 -14 14 -21 29 -17 42 3 14 -7 31 -32 57 -31 31 -43 36 -69 32 -17 -2 -39 0
-50 5 -14 8 -25 5 -47 -11 -16 -12 -28 -18 -27 -14 5 18 -26 50 -44 45 -36 -9
-39 -36 -7 -70 32 -35 35 -42 15 -42 -9 0 -12 -8 -8 -26 5 -26 5 -26 -21 -9
-24 16 -26 15 -37 -5 -8 -15 -19 -20 -38 -18 -19 2 -29 -3 -37 -18 -9 -18 -14
-19 -35 -10 -14 6 -35 22 -47 36 -18 20 -25 23 -40 14 -26 -16 -28 -53 -5 -74
19 -18 21 -38 7 -75 -15 -43 -15 -48 5 -62 11 -8 20 -20 20 -27 0 -19 37 -50
44 -37 4 5 1 13 -4 16 -7 5 -5 12 7 20 10 7 21 11 24 9 4 -2 12 3 19 11 7 8
24 16 39 16 17 1 20 3 9 6 -10 2 -18 11 -18 19 0 8 -3 13 -8 10 -4 -2 -16 2
-27 10 -18 13 -18 14 6 15 18 1 19 3 6 6 -11 3 -16 10 -13 20 3 8 6 17 6 20 0
4 9 -2 19 -11 12 -11 21 -14 26 -7 3 6 3 11 -1 11 -15 0 31 29 47 30 8 0 25
11 38 24 14 15 29 22 45 19 17 -4 29 3 45 22 l21 28 0 -35 c0 -27 -5 -37 -20
-41 -14 -3 -20 -14 -20 -32 0 -18 6 -29 20 -32 16 -4 20 -13 19 -42 0 -27 -2
-31 -8 -16 -7 17 -9 17 -17 3 -5 -9 -22 -18 -39 -21 l-30 -4 33 -2 c17 0 32
-6 32 -12 0 -8 4 -8 14 0 12 10 15 8 19 -11 l4 -23 2 23 c0 13 7 22 14 21 6
-1 21 0 32 1 15 1 16 3 5 7 -32 13 -65 73 -40 73 6 0 10 -4 10 -10 0 -5 7 -10
15 -10 8 0 15 5 15 10 0 6 -7 10 -16 10 -12 0 -15 7 -12 30 3 18 0 31 -9 34
-8 3 -13 22 -13 48 1 34 3 39 11 26 5 -10 21 -18 34 -18 17 0 23 -4 19 -14 -6
-15 20 -46 38 -46 6 0 19 -7 29 -16 17 -15 19 -15 35 1 12 12 26 15 47 11 16
-3 35 -6 43 -6 7 0 14 -7 16 -15 2 -12 7 -13 28 -2 14 7 24 21 24 30 -1 12 6
17 22 17 16 0 24 -6 24 -18 0 -20 18 -42 35 -42 16 0 55 35 55 49 0 8 8 10 20
6 12 -4 27 -2 35 5 9 7 15 8 20 0 3 -5 3 -10 -2 -10 -4 0 5 -9 21 -19 20 -14
35 -17 46 -11 12 6 21 3 33 -11 18 -20 52 -25 62 -9 3 6 14 10 23 10 12 0 13
-3 4 -12 -19 -19 -14 -30 7 -18 18 9 19 7 18 -28 -1 -20 -6 -40 -11 -43 -4 -4
9 -9 29 -11 34 -4 39 -1 50 26 7 17 11 34 8 39 -7 12 18 38 29 31 6 -4 8 1 4
13 -5 17 -2 21 19 21 22 0 25 -5 26 -37 2 -30 3 -31 6 -8 5 34 20 35 35 2 9
-20 16 -23 36 -18 17 4 23 2 18 -6 -4 -6 -3 -11 3 -11 5 0 12 4 16 9 3 5 17
-1 30 -15 29 -29 31 -34 9 -34 -14 0 -14 -1 0 -16 9 -8 16 -25 15 -37 l0 -22
-16 22 -15 23 -20 -25 c-11 -14 -24 -23 -29 -20 -13 9 -10 -7 6 -29 13 -17 15
-18 31 -1 16 15 19 16 29 2 10 -14 13 -13 24 5 7 11 15 18 17 15 8 -7 -25 -67
-36 -67 -6 0 -6 -9 0 -25 6 -15 6 -27 0 -30 -6 -3 -6 -15 0 -30 7 -19 6 -25
-8 -28 -16 -4 45 -11 78 -9 16 1 45 -36 36 -45 -3 -3 1 -18 9 -33 15 -28 51
-45 61 -29 9 15 20 10 34 -16 8 -14 22 -25 34 -25 28 -1 56 -23 56 -44 0 -10
-4 -14 -10 -11 -6 3 -10 -5 -10 -19 0 -19 -6 -26 -27 -29 -23 -3 -21 -4 10 -6
30 -1 37 -5 37 -21 0 -24 44 -38 65 -20 8 7 26 10 40 8 19 -4 25 -1 25 13 0
11 5 19 10 19 6 0 10 -18 10 -40 0 -38 -12 -52 -25 -30 -3 6 -17 10 -31 10
-13 0 -24 -4 -24 -10 0 -5 7 -10 15 -10 13 0 14 -4 5 -21 -9 -16 -8 -25 6 -40
21 -23 43 -24 70 -4 27 20 37 19 24 -4 -8 -16 -5 -23 13 -38 13 -10 29 -28 36
-41 11 -21 10 -22 -20 -22 -27 0 -30 -2 -19 -15 14 -17 60 -21 60 -5 0 6 43
10 108 11 59 1 99 3 89 6 -9 2 -15 9 -11 14 3 5 10 7 15 4 5 -4 9 1 9 9 0 9 9
16 20 16 12 0 24 9 29 23 12 30 3 37 -16 12 -15 -19 -15 -18 -10 12 4 21 1 35
-8 43 -25 20 -19 43 10 38 13 -3 24 -2 23 1 -3 15 15 41 28 41 18 0 18 -9 -2
-31 -22 -25 -3 -31 26 -7 20 16 22 21 9 29 -10 8 -5 9 19 6 28 -3 32 -1 32 20
0 18 5 23 27 23 14 0 24 3 20 6 -3 3 -44 6 -91 5 -46 -1 -87 3 -90 7 -3 5 -1
23 4 40 18 63 -48 95 -71 35 -15 -39 -11 -72 11 -85 15 -10 20 -24 20 -60 0
-26 -4 -50 -10 -53 -5 -3 -10 1 -10 9 0 36 -88 46 -91 11 -1 -15 -4 -28 -9
-42 -1 -5 -2 -11 -1 -15 3 -18 -29 -6 -49 19 -14 18 -17 30 -10 37 14 14 13
49 -2 64 -10 10 -10 15 2 22 13 8 12 10 -3 10 -14 0 -16 4 -8 18 6 10 6 24 0
34 -6 11 -4 20 6 28 20 17 19 33 -6 56 -16 15 -24 16 -39 6 -25 -15 -37 -15
-22 0 16 16 15 31 0 22 -8 -5 -7 -1 2 10 8 10 13 31 12 46 -2 24 2 29 25 33
26 4 -163 11 -199 8 -23 -3 -30 13 -14 34 12 17 42 13 31 -5 -3 -4 4 -6 15 -3
20 5 28 23 10 23 -5 0 -10 6 -10 14 0 8 -13 26 -30 39 -35 30 -36 33 -10 40
29 8 26 37 -5 37 -16 0 -25 6 -25 16 0 13 -3 14 -14 5 -11 -9 -16 -9 -22 0 -5
8 -3 9 6 4 10 -6 12 -4 7 9 -5 13 -3 17 7 13 15 -6 24 17 19 44 -3 12 -12 15
-31 11 -35 -6 -52 -20 -46 -37 7 -17 -15 -30 -28 -17 -7 7 -19 7 -35 1 -16 -6
-22 -5 -18 1 3 6 1 10 -5 10 -7 0 -9 -8 -5 -20 3 -11 0 -29 -8 -40 l-14 -20
-18 20 c-10 11 -20 31 -21 45 -2 24 0 25 49 27 46 1 47 2 12 5 -68 6 -87 13
-81 28 3 9 -1 15 -9 15 -9 0 -15 10 -15 24 0 13 -5 26 -10 28 -6 2 -12 14 -14
28 -2 14 -7 34 -11 45 -4 11 -9 27 -12 35 -3 8 -5 25 -4 37 2 16 -4 24 -23 29
-13 3 -31 2 -40 -3 -8 -4 -37 -6 -65 -5 -51 4 -51 4 -51 38 0 40 -26 57 -45
30 -11 -14 -13 -15 -19 -1 -6 16 -56 21 -56 5 0 -5 11 -10 25 -10 15 0 25 -6
25 -14 0 -19 -41 -8 -58 16 -18 25 -64 23 -80 -3 -7 -11 -19 -18 -26 -16 -10
4 -12 -1 -9 -16 l5 -22 -16 23 c-26 33 -71 30 -91 -7 -8 -17 -12 -38 -8 -47 5
-13 3 -16 -10 -11 -9 3 -19 2 -23 -4 -3 -6 -12 -8 -20 -5 -9 3 -14 -2 -14 -14
0 -22 -15 -27 -26 -8 -4 6 -2 14 4 16 21 7 13 20 -8 15 -12 -3 -20 0 -20 7 0
9 10 11 30 7 31 -7 34 -3 31 39 -2 25 24 51 34 34 11 -18 25 -1 25 31 0 25 -4
29 -29 29 -16 0 -31 6 -33 13 -4 9 -6 8 -10 -3z m-523 -110 c-3 -5 -12 -10
-18 -10 -7 0 -6 4 3 10 19 12 23 12 15 0z m138 -68 c-33 -5 -42 6 -19 24 17
12 21 11 32 -4 11 -15 9 -17 -13 -20z m1297 -334 c0 -5 -4 -8 -10 -8 -5 0 -10
10 -10 23 0 18 2 19 10 7 5 -8 10 -18 10 -22z m-61 -29 c-7 -4 -10 -11 -6 -15
4 -4 0 -15 -9 -25 -8 -9 -16 -26 -17 -38 -2 -25 -29 -28 -52 -5 -11 12 -26 15
-51 11 -25 -4 -34 -2 -34 8 0 7 -3 20 -6 29 -4 11 -1 16 10 16 9 0 19 -6 22
-14 6 -16 38 -10 55 10 6 8 25 14 41 14 16 0 31 6 34 15 4 8 11 12 16 9 6 -4
5 -10 -3 -15z m-26 -116 c-7 -2 -19 -2 -25 0 -7 3 -2 5 12 5 14 0 19 -2 13 -5z
m227 -12 c0 -36 -23 -42 -55 -15 -23 19 -24 22 -7 14 20 -10 26 -7 23 13 0 4
8 7 19 7 13 0 20 -7 20 -19z m-145 -50 c-3 -6 -11 -11 -17 -11 -6 0 -6 6 2 15
14 17 26 13 15 -4z m-55 -11 c-20 -13 -33 -13 -25 0 3 6 14 10 23 10 15 0 15
-2 2 -10z m250 -136 c0 -8 -4 -15 -10 -15 -14 -2 -22 -5 -43 -14 -31 -13 -29
2 3 25 18 13 27 26 23 33 -4 7 1 6 10 -2 9 -7 17 -20 17 -27z m-167 1 c-7 -21
-13 -19 -13 6 0 11 4 18 10 14 5 -3 7 -12 3 -20z m527 -55 c0 -5 -4 -10 -9
-10 -6 0 -13 5 -16 10 -3 6 1 10 9 10 9 0 16 -4 16 -10z m-132 -163 c-1 -19 2
-39 6 -45 5 -8 -1 -12 -15 -12 -17 0 -20 5 -17 24 3 14 1 30 -3 37 -10 16 -2
29 16 29 10 0 14 -11 13 -33z m-38 -62 c0 -8 -7 -15 -16 -15 -14 0 -14 3 -4
15 7 8 14 15 16 15 2 0 4 -7 4 -15z"/>
<path d="M1167 2178 c-15 -12 -15 -15 2 -37 l18 -24 26 23 c14 12 23 29 20 36
-6 17 -44 18 -66 2z"/>
<path d="M2040 2175 c7 -8 17 -15 22 -15 6 0 5 7 -2 15 -7 8 -17 15 -22 15 -6
0 -5 -7 2 -15z"/>
<path d="M944 2146 c-12 -31 0 -51 31 -51 27 0 30 3 30 30 0 25 -4 30 -28 33
-17 2 -29 -2 -33 -12z"/>
<path d="M1030 2010 c0 -5 -7 -10 -15 -10 -23 0 -19 -47 5 -60 19 -10 20 -8
20 35 0 25 -2 45 -5 45 -3 0 -5 -4 -5 -10z"/>
<path d="M1540 1950 c0 -5 5 -10 11 -10 5 0 7 5 4 10 -3 6 -8 10 -11 10 -2 0
-4 -4 -4 -10z"/>
<path d="M1775 1890 c3 -5 17 -10 31 -10 14 0 22 4 19 10 -3 6 -17 10 -31 10
-14 0 -22 -4 -19 -10z"/>
<path d="M2113 1840 c-3 -11 -13 -20 -22 -21 -11 0 -9 -3 7 -9 13 -6 38 -6 60
-1 24 6 29 9 15 10 -16 1 -23 7 -23 21 0 12 -7 20 -16 20 -9 0 -18 -9 -21 -20z"/>
<path d="M870 1834 c0 -8 -6 -14 -14 -14 -11 0 -11 -9 -2 -50 14 -63 28 -77
60 -62 17 7 25 20 28 46 2 20 -1 41 -6 46 -7 7 -5 10 4 10 23 0 -2 19 -38 29
-25 8 -32 7 -32 -5z"/>
<path d="M2360 1819 c-43 -6 -43 -6 -9 -7 30 -2 38 -7 43 -26 5 -20 10 -23 37
-17 20 4 35 15 40 28 7 19 4 21 -29 25 -20 1 -57 0 -82 -3z"/>
<path d="M1813 1813 c9 -2 23 -2 30 0 6 3 -1 5 -18 5 -16 0 -22 -2 -12 -5z"/>
<path d="M1430 1790 c0 -5 5 -10 11 -10 5 0 7 5 4 10 -3 6 -8 10 -11 10 -2 0
-4 -4 -4 -10z"/>
<path d="M1953 1755 c0 -27 2 -38 4 -22 2 15 2 37 0 50 -2 12 -4 0 -4 -28z"/>
<path d="M2236 1764 c6 -35 -8 -48 -20 -18 -10 26 -78 15 -93 -16 -11 -22 -10
-25 5 -29 9 -2 22 -7 27 -12 14 -10 39 -6 59 10 9 7 22 11 30 8 9 -4 20 6 29
26 17 34 10 51 -24 60 -18 5 -19 2 -13 -29z"/>
<path d="M701 1748 c-5 -13 -7 -25 -5 -27 8 -9 32 9 37 28 7 29 -21 28 -32 -1z"/>
<path d="M744 1757 c-7 -20 -2 -47 11 -50 14 -3 19 43 6 56 -7 7 -12 6 -17 -6z"/>
<path d="M1128 1729 c5 -13 14 -25 20 -27 8 -2 9 3 4 19 -5 13 -14 25 -20 27
-8 2 -9 -3 -4 -19z"/>
<path d="M2349 1709 c-16 -16 -18 -23 -9 -34 14 -16 49 -4 51 18 1 7 5 1 9
-13 l8 -25 1 25 c1 15 -7 30 -19 38 -17 10 -23 9 -41 -9z"/>
<path d="M1310 1695 c7 -8 17 -15 22 -15 6 0 5 7 -2 15 -7 8 -17 15 -22 15 -6
0 -5 -7 2 -15z"/>
<path d="M3306 1691 c-10 -11 -25 -16 -40 -14 -29 6 -67 -44 -45 -59 41 -27
47 -27 65 -7 10 11 23 18 30 15 7 -3 23 3 35 13 25 20 21 44 -9 60 -15 8 -23
6 -36 -8z"/>
<path d="M3104 1689 c-4 -7 -8 -28 -9 -47 -1 -25 5 -38 22 -49 39 -26 54 -11
51 49 -3 49 -5 53 -30 56 -14 2 -30 -2 -34 -9z"/>
<path d="M2490 1680 c-9 -6 -10 -10 -3 -10 6 0 15 5 18 10 8 12 4 12 -15 0z"/>
<path d="M2528 1664 c-5 -4 -8 -19 -8 -33 0 -18 3 -22 11 -14 6 6 9 21 7 33
-1 12 -6 18 -10 14z"/>
<path d="M1048 1639 c-10 -5 -18 -22 -18 -36 0 -15 3 -23 7 -20 3 4 12 2 18
-3 31 -26 66 21 39 51 -19 22 -23 22 -46 8z"/>
<path d="M3378 1640 c-13 -8 -15 -16 -8 -34 6 -17 4 -28 -8 -40 -14 -14 -14
-16 -1 -16 11 0 16 -11 17 -35 2 -44 6 -51 33 -58 16 -4 25 2 37 24 12 21 25
29 44 29 17 0 31 8 38 19 5 11 20 22 32 24 20 4 19 4 -5 6 -15 0 -36 7 -47 13
-16 10 -24 10 -40 0 -21 -13 -50 -16 -50 -5 0 3 8 15 17 25 31 35 -17 73 -59
48z"/>
<path d="M2401 1597 c-1 -19 -8 -30 -23 -36 l-22 -8 22 -5 c17 -5 22 -14 23
-40 1 -18 3 -25 6 -15 6 23 20 22 33 -4 9 -15 15 -18 25 -9 10 8 14 8 17 -1 7
-20 28 0 28 27 0 26 -9 31 -28 12 -9 -9 -12 -8 -12 5 0 12 -9 17 -32 18 l-33
2 35 7 c31 7 32 7 8 9 -16 0 -27 4 -26 9 0 4 -4 18 -10 32 l-11 25 0 -28z"/>
<path d="M968 1553 c7 -3 16 -2 19 1 4 3 -2 6 -13 5 -11 0 -14 -3 -6 -6z"/>
<path d="M3273 1553 c9 -2 23 -2 30 0 6 3 -1 5 -18 5 -16 0 -22 -2 -12 -5z"/>
<path d="M3321 1524 c0 -11 3 -14 6 -6 3 7 2 16 -1 19 -3 4 -6 -2 -5 -13z"/>
<path d="M3182 1484 c2 -9 13 -21 26 -25 19 -7 23 -6 20 7 -2 9 -13 21 -26 25
-19 7 -23 6 -20 -7z"/>
<path d="M3545 1450 c-4 -7 -18 -10 -31 -7 -32 6 -30 -9 4 -25 22 -11 27 -20
27 -50 0 -41 18 -53 23 -16 2 12 13 29 24 36 29 21 21 66 -14 70 -14 2 -29 -2
-33 -8z"/>
<path d="M3360 1441 c0 -6 9 -15 20 -21 13 -7 20 -7 20 -1 0 6 -9 15 -20 21
-13 7 -20 7 -20 1z"/>
<path d="M2718 1407 c10 -12 11 -21 2 -36 -7 -15 -7 -21 0 -21 6 0 13 7 16 15
4 8 12 15 20 15 20 0 17 16 -3 24 -10 3 -25 9 -33 13 -13 5 -13 4 -2 -10z"/>
<path d="M2672 1385 c0 -16 2 -22 5 -12 2 9 2 23 0 30 -3 6 -5 -1 -5 -18z"/>
<path d="M3514 1386 c-10 -8 -16 -17 -13 -20 3 -3 14 1 25 8 10 8 16 17 13 20
-3 3 -14 -1 -25 -8z"/>
<path d="M3781 1214 c0 -11 3 -14 6 -6 3 7 2 16 -1 19 -3 4 -6 -2 -5 -13z"/>
<path d="M3530 1120 c0 -5 5 -10 11 -10 5 0 7 5 4 10 -3 6 -8 10 -11 10 -2 0
-4 -4 -4 -10z"/>
<path d="M3528 1033 c7 -3 16 -2 19 1 4 3 -2 6 -13 5 -11 0 -14 -3 -6 -6z"/>
<path d="M3397 1014 c-4 -4 -7 -16 -7 -26 0 -10 -5 -17 -12 -15 -7 1 -13 -5
-14 -13 -4 -44 -3 -44 -24 -25 -20 18 -20 17 -20 -13 0 -22 -5 -32 -15 -32 -9
0 -15 9 -15 25 0 14 -4 25 -10 25 -5 0 -10 -11 -10 -25 0 -25 -1 -25 -24 -10
-29 19 -45 3 -19 -17 10 -7 25 -27 33 -43 9 -17 25 -31 38 -33 14 -2 22 -10
22 -23 0 -14 7 -19 26 -19 15 0 23 -4 19 -10 -4 -6 -1 -17 5 -25 6 -8 9 -23 5
-35 -3 -11 -2 -20 4 -20 5 0 12 8 14 18 3 10 5 5 6 -11 1 -20 7 -31 21 -34 11
-3 20 -11 20 -19 0 -7 7 -17 16 -22 13 -7 14 -13 5 -31 -7 -13 -8 -21 -2 -21
6 0 15 9 21 20 8 16 6 24 -11 41 -25 25 -20 33 13 20 15 -5 30 -6 39 0 8 5 21
8 29 8 10 0 11 -2 3 -6 -7 -2 -13 -10 -13 -16 0 -5 3 -8 6 -5 3 4 14 -2 25
-13 27 -27 45 -14 24 17 -9 14 -13 29 -10 34 4 6 -3 23 -14 39 -11 15 -18 31
-14 35 3 3 2 6 -3 6 -6 0 -15 -5 -22 -12 -18 -18 -27 -1 -14 27 8 17 8 25 1
25 -6 0 -8 4 -5 9 9 14 -4 40 -26 52 -16 8 -19 8 -16 -2 2 -6 -7 -23 -21 -37
-20 -20 -28 -22 -42 -14 -12 8 -20 8 -24 2 -3 -6 -17 -10 -30 -10 -23 0 -24 3
-24 55 1 60 12 76 37 52 14 -15 14 -17 -1 -23 -10 -4 -17 -17 -17 -34 0 -32
18 -50 30 -30 4 7 13 9 19 5 24 -14 43 17 36 60 l-6 42 32 -5 c41 -6 36 21 -6
28 -25 5 -27 6 -12 19 10 7 17 18 17 24 0 6 -3 7 -7 4 -3 -4 -11 3 -17 15 -12
23 -28 32 -39 22z m19 -110 c-4 -9 -9 -15 -11 -12 -3 3 -3 13 1 22 4 9 9 15
11 12 3 -3 3 -13 -1 -22z"/>
<path d="M3033 1002 c-39 -6 -37 -67 3 -75 24 -4 36 4 47 35 7 21 -22 45 -50
40z"/>
<path d="M3523 963 c9 -2 23 -2 30 0 6 3 -1 5 -18 5 -16 0 -22 -2 -12 -5z"/>
<path d="M3490 935 c0 -8 5 -15 10 -15 6 0 10 7 10 15 0 8 -4 15 -10 15 -5 0
-10 -7 -10 -15z"/>
<path d="M3470 875 c-7 -8 -8 -15 -2 -15 5 0 15 7 22 15 7 8 8 15 2 15 -5 0
-15 -7 -22 -15z"/>
<path d="M3618 773 c12 -2 30 -2 40 0 9 3 -1 5 -23 4 -22 0 -30 -2 -17 -4z"/>
<path d="M3713 773 c9 -2 23 -2 30 0 6 3 -1 5 -18 5 -16 0 -22 -2 -12 -5z"/>
<path d="M3323 685 c0 -22 2 -30 4 -17 2 12 2 30 0 40 -3 9 -5 -1 -4 -23z"/>
<path d="M3488 523 c7 -3 16 -2 19 1 4 3 -2 6 -13 5 -11 0 -14 -3 -6 -6z"/>
<path d="M3573 523 c15 -2 37 -2 50 0 12 2 0 4 -28 4 -27 0 -38 -2 -22 -4z"/>
<path d="M3583 503 c9 -2 23 -2 30 0 6 3 -1 5 -18 5 -16 0 -22 -2 -12 -5z"/>
<path d="M3323 455 c0 -22 2 -30 4 -17 2 12 2 30 0 40 -3 9 -5 -1 -4 -23z"/>
<path d="M298 2373 c6 -2 12 -17 12 -33 0 -16 -6 -31 -12 -33 -7 -3 10 -5 37
-4 l50 2 0 35 c0 28 -4 35 -20 35 -15 0 -21 -8 -23 -32 -4 -44 -22 -42 -22 2
0 27 -4 35 -17 34 -11 0 -13 -3 -5 -6z m82 -33 c0 -25 -18 -36 -26 -16 -8 21
3 49 16 41 5 -3 10 -15 10 -25z"/>
<path d="M404 2366 c-11 -28 0 -61 21 -61 16 0 20 7 20 35 0 25 -5 36 -18 38
-9 2 -20 -3 -23 -12z m36 -26 c0 -16 -4 -30 -9 -30 -13 0 -21 27 -15 45 10 25
24 17 24 -15z"/>
<path d="M358 2090 c-6 -42 1 -49 52 -47 44 2 45 2 45 37 0 35 0 35 -46 37
-45 2 -47 1 -51 -27z m32 10 c0 -5 -4 -10 -10 -10 -5 0 -10 5 -10 10 0 6 5 10
10 10 6 0 10 -4 10 -10z m60 -20 c0 -10 -5 -22 -10 -25 -13 -8 -24 20 -16 41
8 20 26 9 26 -16z m-60 -15 c0 -8 -4 -15 -10 -15 -5 0 -10 7 -10 15 0 8 5 15
10 15 6 0 10 -7 10 -15z"/>
<path d="M364 1846 c-3 -8 -4 -25 -2 -38 3 -20 9 -23 48 -23 45 0 45 0 45 35
0 26 -5 36 -18 38 -12 2 -20 -3 -24 -16 -3 -14 -11 -18 -25 -14 -20 5 -20 6
-3 19 17 12 17 13 2 13 -10 0 -20 -6 -23 -14z m86 -26 c0 -25 -18 -36 -26 -16
-8 21 3 49 16 41 5 -3 10 -15 10 -25z m-58 -15 c0 -5 -5 -11 -11 -13 -6 -2
-11 4 -11 13 0 9 5 15 11 13 6 -2 11 -8 11 -13z"/>
<path d="M123 1833 c-28 -11 -11 -18 33 -14 32 2 42 6 33 12 -15 9 -46 11 -66
2z"/>
<path d="M111 1783 c-1 -21 3 -23 42 -22 23 1 32 4 20 6 -12 2 -24 12 -26 21
-4 15 -5 15 -6 0 0 -10 -5 -18 -10 -18 -5 0 -12 8 -14 18 -4 13 -5 11 -6 -5z"/>
<path d="M117 1728 c5 -10 64 -10 80 0 6 4 -11 7 -37 7 -26 0 -46 -3 -43 -7z"/>
<path d="M132 1625 c0 -43 1 -45 29 -45 16 0 29 5 29 10 0 6 -11 10 -25 10
-31 0 -33 17 -2 22 15 2 23 11 24 28 l3 25 -12 -25 c-11 -25 -11 -25 -15 -2
-8 42 -31 25 -31 -23z"/>
<path d="M366 1575 c-20 -31 -20 -35 3 -35 11 0 22 -6 24 -12 4 -10 6 -9 6 1
1 11 4 11 16 1 25 -21 47 -4 43 32 -4 42 -38 47 -49 8 l-7 -25 -1 28 c-1 34
-14 35 -35 2z m84 -15 c0 -10 -5 -22 -10 -25 -13 -8 -24 20 -16 41 8 20 26 9
26 -16z m-64 -7 c-10 -10 -19 5 -10 18 6 11 8 11 12 0 2 -7 1 -15 -2 -18z"/>
<path d="M149 1561 c33 -9 38 -29 9 -34 -21 -4 -21 -4 2 -3 18 1 26 7 28 24 3
19 -1 22 -30 21 -29 -1 -30 -2 -9 -8z"/>
<path d="M123 1495 c-15 -17 -2 -23 39 -17 18 3 28 10 27 21 0 10 -2 11 -6 4
-5 -15 -40 -17 -45 -4 -1 5 -8 3 -15 -4z"/>
<path d="M137 1463 c-4 -3 -7 -16 -6 -27 0 -21 1 -21 9 -1 7 17 9 17 9 3 1
-11 9 -18 21 -18 15 0 20 7 20 25 0 20 -5 25 -23 25 -13 0 -27 -3 -30 -7z m43
-23 c0 -5 -4 -10 -10 -10 -5 0 -10 5 -10 10 0 6 5 10 10 10 6 0 10 -4 10 -10z"/>
<path d="M130 1396 c0 -12 9 -16 33 -15 21 1 25 3 12 6 -11 3 -26 10 -32 15
-10 8 -13 6 -13 -6z"/>
<path d="M137 1363 c-11 -11 -8 -41 6 -47 10 -5 10 -7 0 -12 -7 -3 -13 -17
-13 -30 0 -21 4 -24 40 -24 22 0 40 5 40 10 0 6 -4 10 -10 10 -5 0 -10 6 -10
14 0 8 -6 17 -12 20 -10 5 -10 7 0 12 6 3 11 15 11 27 -1 17 -2 18 -6 5 -6
-24 -23 -23 -23 2 0 20 -11 26 -23 13z m43 -83 c0 -5 -9 -10 -20 -10 -11 0
-20 5 -20 10 0 6 9 10 20 10 11 0 20 -4 20 -10z"/>
<path d="M373 1333 c21 -6 22 -26 2 -43 -26 -22 -16 -30 33 -28 45 3 47 4 50
36 4 36 -18 53 -43 32 -10 -9 -15 -9 -15 -1 0 6 -10 10 -22 10 -17 -1 -19 -2
-5 -6z m77 -33 c0 -10 -5 -22 -10 -25 -13 -8 -24 20 -16 41 8 20 26 9 26 -16z
m-40 -10 c0 -11 -7 -20 -15 -20 -13 0 -13 3 -3 20 7 11 14 20 15 20 2 0 3 -9
3 -20z"/>
<path d="M132 1200 c-1 -39 0 -40 31 -39 30 2 31 2 5 6 -35 5 -37 23 -3 23 14
0 25 5 25 10 0 6 -11 10 -25 10 -34 0 -32 18 3 23 26 4 26 4 -4 6 -30 1 -32
-1 -32 -39z"/>
<path d="M137 1143 c-12 -12 -7 -41 8 -47 24 -9 45 4 44 28 -1 16 -2 17 -6 4
-6 -24 -23 -23 -23 2 0 20 -11 26 -23 13z"/>
<path d="M112 1070 c0 -19 2 -29 5 -22 2 6 20 12 39 12 19 0 34 5 34 10 0 6
-15 10 -34 10 -19 0 -37 6 -39 13 -3 6 -5 -4 -5 -23z"/>
<path d="M417 1060 c-8 -31 3 -60 23 -60 22 0 34 31 25 60 -3 11 -15 20 -25
20 -9 0 -20 -9 -23 -20z m33 -20 c0 -16 -4 -30 -10 -30 -5 0 -10 14 -10 30 0
17 5 30 10 30 6 0 10 -13 10 -30z"/>
<path d="M340 810 c0 -5 7 -7 15 -4 9 4 15 0 15 -9 0 -8 -7 -20 -15 -27 -23
-19 -18 -30 13 -29 18 1 21 3 9 6 -17 4 -18 6 -2 24 10 10 15 25 12 34 -7 16
-47 21 -47 5z"/>
<path d="M405 800 c-9 -29 3 -60 25 -60 9 0 20 9 23 20 8 31 -3 60 -23 60 -10
0 -22 -9 -25 -20z m35 -20 c0 -16 -4 -30 -10 -30 -5 0 -10 14 -10 30 0 17 5
30 10 30 6 0 10 -13 10 -30z"/>
<path d="M288 773 c12 -2 30 -2 40 0 9 3 -1 5 -23 4 -22 0 -30 -2 -17 -4z"/>
<path d="M366 545 c4 -15 2 -25 -5 -25 -6 0 -8 8 -4 18 5 14 3 15 -8 5 -7 -7
-29 -14 -48 -14 -32 -1 -31 -2 13 -10 27 -4 52 -13 56 -20 6 -8 9 -8 12 1 6
20 -3 70 -13 70 -5 0 -7 -11 -3 -25z"/>
<path d="M404 556 c-11 -28 0 -61 21 -61 16 0 20 7 20 35 0 25 -5 36 -18 38
-9 2 -20 -3 -23 -12z m36 -26 c0 -32 -14 -40 -24 -15 -6 18 2 45 15 45 5 0 9
-13 9 -30z"/>
<path d="M555 270 c-5 -15 -16 -20 -43 -22 l-37 -1 34 -4 c19 -3 40 -12 47
-20 13 -19 44 -11 44 12 0 9 -7 18 -15 21 -20 8 -19 21 3 27 13 4 12 5 -5 6
-14 1 -24 -6 -28 -19z m35 -35 c0 -8 -4 -15 -9 -15 -13 0 -22 16 -14 24 11 11
23 6 23 -9z"/>
<path d="M615 270 c-9 -29 3 -60 25 -60 20 0 31 29 23 60 -3 11 -14 20 -23 20
-10 0 -22 -9 -25 -20z m35 -20 c0 -16 -4 -30 -10 -30 -5 0 -10 14 -10 30 0 17
5 30 10 30 6 0 10 -13 10 -30z"/>
<path d="M1036 265 c4 -15 2 -25 -5 -25 -6 0 -8 8 -4 18 5 14 3 15 -8 5 -7 -7
-29 -14 -48 -14 -32 -1 -31 -2 13 -10 27 -4 52 -13 56 -20 6 -8 9 -8 12 1 6
20 -3 70 -13 70 -5 0 -7 -11 -3 -25z"/>
<path d="M1074 276 c-11 -28 0 -61 21 -61 16 0 20 7 20 35 0 25 -5 36 -18 38
-9 2 -20 -3 -23 -12z m36 -26 c0 -16 -4 -30 -9 -30 -13 0 -21 27 -15 45 10 25
24 17 24 -15z"/>
<path d="M1460 280 c0 -5 7 -7 15 -4 9 4 15 0 15 -9 0 -8 -7 -20 -15 -27 -23
-19 -18 -30 13 -29 18 1 21 3 9 6 -17 4 -18 6 -2 24 10 10 15 25 12 34 -7 16
-47 21 -47 5z"/>
<path d="M1525 270 c-9 -29 3 -60 25 -60 20 0 31 29 23 60 -3 11 -14 20 -23
20 -10 0 -22 -9 -25 -20z m35 -20 c0 -16 -4 -30 -10 -30 -5 0 -10 14 -10 30 0
17 5 30 10 30 6 0 10 -13 10 -30z"/>
<path d="M1927 270 c-8 -31 3 -60 23 -60 10 0 22 9 25 20 9 29 -3 60 -25 60
-9 0 -20 -9 -23 -20z m33 -20 c0 -16 -4 -30 -10 -30 -5 0 -10 14 -10 30 0 17
5 30 10 30 6 0 10 -13 10 -30z"/>
<path d="M2373 283 c21 -6 22 -26 2 -43 -26 -22 -16 -30 33 -28 45 3 47 4 50
36 4 36 -18 53 -43 32 -10 -9 -15 -9 -15 -1 0 6 -10 10 -22 10 -17 -1 -19 -2
-5 -6z m77 -33 c0 -10 -5 -22 -10 -25 -13 -8 -24 20 -16 41 8 20 26 9 26 -16z
m-40 -10 c0 -11 -7 -20 -15 -20 -13 0 -13 3 -3 20 7 11 14 20 15 20 2 0 3 -9
3 -20z"/>
<path d="M2816 265 c-20 -31 -20 -35 3 -35 11 0 22 -6 24 -12 4 -10 6 -9 6 1
1 11 4 11 16 1 25 -21 47 -4 43 32 -4 42 -38 47 -49 8 l-7 -25 -1 28 c-1 34
-14 35 -35 2z m84 -15 c0 -25 -18 -36 -26 -16 -8 21 3 49 16 41 5 -3 10 -15
10 -25z m-64 -7 c-10 -10 -19 5 -10 18 6 11 8 11 12 0 2 -7 1 -15 -2 -18z"/>
<path d="M3274 276 c-3 -8 -4 -25 -2 -38 3 -20 9 -23 48 -23 45 0 45 0 45 35
0 26 -5 36 -18 38 -12 2 -20 -3 -24 -16 -3 -14 -11 -18 -25 -14 -20 5 -20 6
-3 19 17 12 17 13 2 13 -10 0 -20 -6 -23 -14z m86 -26 c0 -25 -18 -36 -26 -16
-8 21 3 49 16 41 5 -3 10 -15 10 -25z m-58 -15 c0 -5 -5 -11 -11 -13 -6 -2
-11 4 -11 13 0 9 5 15 11 13 6 -2 11 -8 11 -13z"/>
<path d="M3728 260 c-6 -42 1 -49 52 -47 44 2 45 2 45 37 0 35 0 35 -46 37
-45 2 -47 1 -51 -27z m32 10 c0 -5 -4 -10 -10 -10 -5 0 -10 5 -10 10 0 6 5 10
10 10 6 0 10 -4 10 -10z m60 -20 c0 -25 -18 -36 -26 -16 -8 21 3 49 16 41 5
-3 10 -15 10 -25z m-60 -15 c0 -8 -4 -15 -10 -15 -5 0 -10 7 -10 15 0 8 5 15
10 15 6 0 10 -7 10 -15z"/>
<path d="M1408 243 c12 -2 30 -2 40 0 9 3 -1 5 -23 4 -22 0 -30 -2 -17 -4z"/>
<path d="M2022 113 l-2 -43 51 0 c49 0 50 1 47 28 -2 21 -9 27 -28 29 -14 1
-17 -1 -8 -3 15 -5 15 -7 -3 -25 -30 -30 -47 -24 -52 19 l-4 37 -1 -42z m83
-23 c-3 -5 -11 -10 -16 -10 -6 0 -7 5 -4 10 3 6 11 10 16 10 6 0 7 -4 4 -10z"/>
<path d="M2200 140 c0 -5 -7 -10 -15 -10 -10 0 -15 -10 -15 -30 0 -38 17 -39
23 -2 l4 27 2 -27 c1 -20 6 -28 19 -27 10 0 12 3 5 6 -15 5 -17 40 -4 45 5 2
3 9 -5 16 -8 7 -14 8 -14 2z"/>
<path d="M2340 141 c0 -5 -9 -11 -21 -14 -29 -8 -22 -51 9 -55 20 -3 22 1 22
37 0 23 -2 41 -5 41 -3 0 -5 -4 -5 -9z m-5 -51 c-5 -8 -11 -8 -17 -2 -6 6 -7
16 -3 22 5 8 11 8 17 2 6 -6 7 -16 3 -22z"/>
<path d="M2132 109 c4 -42 23 -49 22 -7 0 18 -6 34 -13 36 -9 3 -11 -6 -9 -29z"/>
<path d="M2243 105 c2 -23 7 -31 25 -33 19 -3 22 1 21 30 -1 28 -2 29 -7 10
-4 -13 -11 -23 -17 -23 -5 0 -13 10 -17 23 -6 19 -7 18 -5 -7z"/>
<path d="M2367 116 c-10 -25 3 -46 27 -45 16 1 17 2 4 6 -25 6 -22 23 3 23 26
0 20 24 -8 28 -11 2 -23 -4 -26 -12z"/>
</g>
</svg>
