<?xml version="1.0" standalone="no"?>
<!DOCTYPE svg PUBLIC "-//W3C//DTD SVG 20010904//EN"
 "http://www.w3.org/TR/2001/REC-SVG-20010904/DTD/svg10.dtd">
<svg version="1.0" xmlns="http://www.w3.org/2000/svg"
 width="432.000000pt" height="288.000000pt" viewBox="0 0 432.000000 288.000000"
 preserveAspectRatio="xMidYMid meet">

<g transform="translate(0.000000,288.000000) scale(0.100000,-0.100000)"
fill="#000000" stroke="none">
<path d="M1340 2675 c0 -8 -9 -15 -19 -15 -22 0 -35 -28 -25 -54 4 -10 17 -16
35 -16 28 0 29 2 29 50 0 28 -4 50 -10 50 -5 0 -10 -7 -10 -15z m-4 -61 c-5
-13 -10 -14 -18 -6 -6 6 -8 18 -4 28 5 13 10 14 18 6 6 -6 8 -18 4 -28z"/>
<path d="M1750 2676 c0 -7 -9 -16 -21 -19 -16 -4 -20 -12 -17 -34 2 -22 9 -29
31 -31 26 -3 27 -2 27 47 0 28 -4 51 -10 51 -5 0 -10 -6 -10 -14z m0 -51 c0
-26 -14 -33 -25 -15 -9 14 1 40 15 40 5 0 10 -11 10 -25z"/>
<path d="M2390 2675 c0 -8 -9 -15 -19 -15 -22 0 -35 -28 -25 -54 4 -10 17 -16
35 -16 28 0 29 2 29 50 0 28 -4 50 -10 50 -5 0 -10 -7 -10 -15z m-5 -50 c0
-10 -6 -20 -12 -22 -8 -3 -13 5 -13 22 0 17 5 25 13 23 6 -3 12 -13 12 -23z"/>
<path d="M1073 2635 c11 -47 30 -55 35 -17 4 27 22 19 22 -9 0 -37 27 -19 37
26 12 51 -2 62 -15 13 l-9 -33 -7 33 c-4 17 -12 32 -17 32 -4 0 -12 -15 -17
-32 l-9 -33 -7 33 c-4 17 -11 32 -15 32 -5 0 -4 -20 2 -45z"/>
<path d="M1417 2673 c-15 -14 -6 -34 19 -43 28 -11 23 -35 -7 -27 -11 3 -19 1
-19 -5 0 -5 12 -8 28 -6 34 4 44 42 13 51 -12 3 -21 11 -21 17 0 7 8 10 20 7
11 -3 20 -1 20 4 0 10 -43 12 -53 2z"/>
<path d="M2000 2636 l0 -45 61 0 60 1 -3 31 c-2 24 -8 33 -25 35 -13 2 -23 -1
-23 -7 0 -6 6 -8 14 -5 8 3 17 1 21 -5 3 -7 -2 -11 -15 -11 -11 0 -23 -7 -26
-15 -4 -8 -15 -15 -25 -15 -15 0 -19 7 -19 40 0 22 -4 40 -10 40 -5 0 -10 -20
-10 -44z m105 -26 c-3 -5 -10 -10 -16 -10 -5 0 -9 5 -9 10 0 6 7 10 16 10 8 0
12 -4 9 -10z"/>
<path d="M2138 2668 c-9 -28 7 -73 27 -75 11 -2 14 0 8 3 -16 7 -17 54 -2 54
6 0 4 7 -5 15 -18 18 -23 19 -28 3z"/>
<path d="M2220 2670 c0 -5 -7 -10 -15 -10 -10 0 -15 -11 -15 -35 0 -44 20 -46
21 -2 l1 32 7 -30 c4 -20 13 -31 26 -32 11 -2 14 0 8 3 -16 7 -17 54 -2 54 6
0 4 7 -5 15 -17 17 -26 19 -26 5z"/>
<path d="M2620 2632 c0 -26 -5 -53 -12 -60 -9 -9 -8 -12 4 -12 9 0 18 12 22
31 9 47 7 89 -4 89 -5 0 -10 -22 -10 -48z"/>
<path d="M2850 2669 c0 -5 5 -7 10 -4 6 4 10 -8 10 -29 0 -19 -6 -37 -12 -39
-7 -3 1 -5 17 -5 17 0 24 2 18 5 -8 2 -13 22 -13 44 0 28 -4 39 -15 39 -8 0
-15 -5 -15 -11z"/>
<path d="M2924 2667 c-3 -9 -4 -28 -2 -44 2 -22 8 -28 28 -28 23 0 25 4 25 40
0 34 -3 40 -23 43 -13 2 -24 -3 -28 -11z m36 -32 c0 -37 -13 -47 -24 -19 -8
20 2 54 15 54 5 0 9 -16 9 -35z"/>
<path d="M3070 2671 c0 -5 9 -7 20 -4 13 4 20 0 20 -9 0 -8 -9 -23 -20 -33
-28 -26 -25 -35 13 -34 25 1 27 3 9 6 l-24 5 22 23 c13 14 20 31 17 39 -7 17
-57 23 -57 7z"/>
<path d="M3149 2659 c-15 -28 3 -69 30 -69 23 0 35 31 27 66 -8 30 -41 32 -57
3z m39 -30 c-1 -13 -7 -23 -13 -22 -13 3 -18 30 -11 50 10 24 29 1 24 -28z"/>
<path d="M3230 2670 c0 -5 5 -10 10 -10 15 0 12 -57 -2 -63 -7 -3 1 -5 17 -5
17 0 24 2 18 5 -8 2 -13 22 -13 44 0 28 -4 39 -15 39 -8 0 -15 -4 -15 -10z"/>
<path d="M3307 2673 c-15 -14 -6 -44 16 -52 l22 -9 -25 -11 -25 -11 24 3 c31
3 46 27 37 60 -6 26 -33 37 -49 20z m33 -17 c0 -8 -4 -17 -9 -21 -12 -7 -24
12 -16 25 9 15 25 12 25 -4z"/>
<path d="M1193 2625 c0 -22 2 -30 4 -17 2 12 2 30 0 40 -3 9 -5 -1 -4 -23z"/>
<path d="M1220 2626 c0 -20 5 -36 10 -36 6 0 10 14 10 30 0 40 17 38 29 -2
l10 -33 -2 35 c-2 30 -6 35 -29 38 -26 3 -28 1 -28 -32z"/>
<path d="M1491 2608 c1 -29 3 -45 6 -36 2 9 14 18 26 20 17 2 22 10 22 33 0
25 -4 30 -27 33 -28 3 -28 2 -27 -50z m39 17 c0 -14 -4 -25 -9 -25 -12 0 -19
21 -13 38 8 21 22 13 22 -13z"/>
<path d="M1564 2646 c-11 -29 1 -51 29 -54 15 -2 27 1 27 6 0 6 -9 8 -20 5
-11 -3 -20 0 -20 6 0 6 9 11 21 11 14 0 19 5 17 18 -4 22 -46 29 -54 8z m41
-6 c3 -5 -1 -10 -9 -10 -9 0 -16 5 -16 10 0 6 4 10 9 10 6 0 13 -4 16 -10z"/>
<path d="M1639 2644 c-17 -21 0 -48 32 -51 l24 -3 -25 12 -25 12 28 4 c21 2
27 8 23 19 -3 8 -6 17 -6 19 0 11 -39 2 -51 -12z m41 -4 c0 -5 -7 -10 -16 -10
-8 0 -12 5 -9 10 3 6 10 10 16 10 5 0 9 -4 9 -10z"/>
<path d="M1820 2656 c0 -15 24 -66 31 -66 6 0 15 14 21 32 10 27 12 29 23 15
7 -10 17 -17 24 -17 18 0 13 -18 -6 -24 -11 -3 -8 -4 6 -3 31 3 40 27 12 34
-26 7 -27 20 -3 26 9 2 0 4 -20 4 -31 0 -39 -5 -46 -26 l-10 -26 -7 28 c-4 15
-11 27 -16 27 -5 0 -9 -2 -9 -4z"/>
<path d="M2272 2628 c2 -28 8 -34 31 -36 25 -3 27 -1 27 32 0 20 -4 36 -10 36
-5 0 -10 -13 -10 -30 0 -16 -4 -30 -10 -30 -5 0 -10 14 -10 30 0 17 -5 30 -11
30 -6 0 -9 -14 -7 -32z"/>
<path d="M2424 2646 c-11 -29 1 -51 29 -54 15 -2 27 1 27 6 0 6 -8 8 -19 5
-10 -3 -22 0 -25 6 -5 7 3 11 19 11 20 0 26 4 23 18 -4 22 -46 29 -54 8z m41
-6 c3 -5 -3 -10 -15 -10 -12 0 -18 5 -15 10 3 6 10 10 15 10 5 0 12 -4 15 -10z"/>
<path d="M2660 2651 c0 -6 7 -8 15 -5 8 4 15 2 15 -4 0 -5 -9 -12 -21 -15 -29
-8 -19 -31 15 -35 26 -3 27 -1 24 30 -2 25 -8 34 -25 36 -13 2 -23 -1 -23 -7z
m30 -41 c0 -5 -4 -10 -10 -10 -5 0 -10 5 -10 10 0 6 5 10 10 10 6 0 10 -4 10
-10z"/>
<path d="M2730 2626 c0 -20 5 -36 10 -36 6 0 10 14 10 30 0 17 5 30 10 30 6 0
10 -13 10 -30 0 -16 5 -30 11 -30 6 0 9 14 7 33 -2 27 -8 33 -30 35 -26 3 -28
1 -28 -32z"/>
<path d="M2538 2623 c6 -2 18 -2 25 0 6 3 1 5 -13 5 -14 0 -19 -2 -12 -5z"/>
<path d="M2996 2595 c-3 -8 -1 -15 4 -15 6 0 10 7 10 15 0 8 -2 15 -4 15 -2 0
-6 -7 -10 -15z"/>
<path d="M373 2563 c21 -6 22 -26 2 -43 -26 -21 -17 -30 30 -30 51 0 72 23 42
45 -22 16 -21 22 1 28 11 3 7 5 -10 6 -14 0 -29 -5 -31 -11 -4 -10 -6 -10 -6
0 -1 6 -11 11 -23 11 -17 -1 -19 -2 -5 -6z m70 -48 c1 -6 -13 -11 -31 -13 -31
-3 -32 -2 -21 16 13 20 48 18 52 -3z"/>
<path d="M523 2523 c15 -4 17 -23 17 -213 0 -190 -2 -209 -17 -213 -17 -4 -17
-5 0 -6 16 -1 17 -18 17 -215 0 -196 -2 -215 -17 -219 -17 -4 -17 -5 0 -6 16
-1 17 -18 17 -210 0 -191 -2 -210 -17 -214 -17 -4 -17 -5 0 -6 16 -1 17 -18
17 -215 0 -196 -2 -215 -17 -219 -17 -4 -17 -5 0 -6 16 -1 17 -18 17 -210 0
-191 -2 -210 -17 -214 -10 -3 -4 -5 14 -6 24 -1 33 -6 36 -23 l4 -23 2 23 1
22 224 0 225 0 4 -23 4 -22 2 23 1 22 224 0 225 0 4 -22 4 -23 2 23 1 22 224
0 225 0 4 -23 4 -22 2 23 1 22 219 0 220 0 4 -23 4 -22 2 23 1 22 224 0 225 0
4 -22 4 -23 2 23 1 22 224 0 225 0 4 -22 4 -23 2 23 1 22 224 0 225 0 4 -22 4
-23 2 23 c1 20 6 22 56 22 l55 0 0 1090 0 1090 -1697 -1 c-934 -1 -1690 -3
-1680 -6z m3367 -1083 l0 -1080 -1670 0 -1670 0 0 1080 0 1080 1670 0 1670 0
0 -1080z"/>
<path d="M2862 2455 c0 -16 2 -22 5 -12 2 9 2 23 0 30 -3 6 -5 -1 -5 -18z"/>
<path d="M857 2428 c8 -43 10 -45 28 -22 13 17 14 17 15 2 0 -26 20 -22 21 5
1 21 1 21 9 -3 7 -22 8 -20 7 13 -1 42 -4 44 -23 20 -13 -17 -13 -17 -14 0 0
25 -20 21 -21 -5 l0 -23 -9 23 c-14 32 -20 27 -13 -10z"/>
<path d="M1040 2451 c0 -5 -9 -11 -21 -14 -28 -7 -21 -41 9 -45 19 -3 22 1 22
32 0 20 -2 36 -5 36 -3 0 -5 -4 -5 -9z m-5 -30 c3 -5 1 -12 -5 -16 -5 -3 -10
1 -10 9 0 18 6 21 15 7z"/>
<path d="M951 2413 l0 -28 11 25 11 25 7 -25 8 -25 1 28 c1 21 -4 27 -19 27
-15 0 -20 -6 -19 -27z"/>
<path d="M2858 2368 c-2 -7 -1 -29 3 -48 3 -19 7 -27 8 -16 1 11 6 16 15 13 8
-3 20 0 26 8 9 11 7 18 -9 34 -24 24 -37 26 -43 9z"/>
<path d="M2860 2121 c0 -15 -8 -21 -32 -24 -32 -4 -32 -4 5 -5 33 -2 37 0 37
23 0 14 -2 25 -5 25 -3 0 -5 -9 -5 -19z"/>
<path d="M3348 2093 c7 -3 16 -2 19 1 4 3 -2 6 -13 5 -11 0 -14 -3 -6 -6z"/>
<path d="M2724 2066 c-12 -31 0 -51 31 -51 27 0 30 3 30 30 0 25 -4 30 -28 33
-17 2 -29 -2 -33 -12z"/>
<path d="M3322 2055 c0 -16 2 -22 5 -12 2 9 2 23 0 30 -3 6 -5 -1 -5 -18z"/>
<path d="M3370 2040 c-7 -13 -7 -20 -1 -20 6 0 15 9 21 20 7 13 7 20 1 20 -6
0 -15 -9 -21 -20z"/>
<path d="M2899 1974 c-17 -21 0 -49 31 -49 31 0 48 28 31 49 -8 9 -21 16 -31
16 -10 0 -23 -7 -31 -16z"/>
<path d="M3539 1969 c-10 -20 -9 -25 11 -41 12 -10 26 -18 30 -18 15 0 31 30
28 52 -4 33 -52 38 -69 7z"/>
<path d="M1032 1955 c0 -16 2 -22 5 -12 2 9 2 23 0 30 -3 6 -5 -1 -5 -18z"/>
<path d="M865 1900 c-4 -7 -3 -16 3 -22 14 -14 57 -6 57 12 0 18 -50 26 -60
10z"/>
<path d="M2863 1855 c0 -27 2 -38 4 -22 2 15 2 37 0 50 -2 12 -4 0 -4 -28z"/>
<path d="M2820 1855 c0 -14 5 -25 10 -25 6 0 10 11 10 25 0 14 -4 25 -10 25
-5 0 -10 -11 -10 -25z"/>
<path d="M3413 1847 l-21 -23 29 -13 c28 -12 29 -14 12 -26 -10 -7 -15 -16
-11 -20 3 -4 16 3 27 14 18 18 19 25 10 42 -6 11 -8 27 -5 35 8 22 -17 16 -41
-9z"/>
<path d="M2190 1840 c0 -5 7 -10 15 -10 8 0 15 5 15 10 0 6 -7 10 -15 10 -8 0
-15 -4 -15 -10z"/>
<path d="M1493 1755 c0 -22 2 -30 4 -17 2 12 2 30 0 40 -3 9 -5 -1 -4 -23z"/>
<path d="M2861 1754 c0 -11 3 -14 6 -6 3 7 2 16 -1 19 -3 4 -6 -2 -5 -13z"/>
<path d="M3321 1683 c-1 -25 -16 -31 -24 -10 -4 9 -8 9 -14 0 -4 -6 -22 -13
-38 -16 l-30 -4 33 -2 c37 -1 43 -17 10 -24 -20 -4 -19 -4 5 -6 16 0 30 5 33
14 4 8 11 15 16 15 7 0 8 -18 4 -49 -8 -59 0 -87 20 -70 16 13 19 55 4 64 -17
10 -11 53 8 58 15 4 15 5 0 6 -9 0 -19 11 -21 24 l-4 22 -2 -22z"/>
<path d="M2713 1676 c-4 -7 -15 -16 -23 -19 -12 -4 -12 -6 1 -6 9 -1 19 -8 23
-16 3 -8 12 -15 21 -15 9 0 18 7 21 15 4 8 14 15 23 16 13 0 13 2 1 6 -8 3
-19 12 -23 19 -4 8 -14 14 -22 14 -8 0 -18 -6 -22 -14z"/>
<path d="M3495 1661 l-40 -7 44 -5 c25 -3 63 -2 85 2 37 6 38 7 9 8 -17 0 -37
3 -45 5 -7 1 -31 0 -53 -3z"/>
<path d="M953 1653 c15 -2 37 -2 50 0 12 2 0 4 -28 4 -27 0 -38 -2 -22 -4z"/>
<path d="M1418 1653 c7 -3 16 -2 19 1 4 3 -2 6 -13 5 -11 0 -14 -3 -6 -6z"/>
<path d="M2273 1653 c15 -2 37 -2 50 0 12 2 0 4 -28 4 -27 0 -38 -2 -22 -4z"/>
<path d="M2888 1653 c7 -3 16 -2 19 1 4 3 -2 6 -13 5 -11 0 -14 -3 -6 -6z"/>
<path d="M1033 1595 c0 -27 2 -38 4 -22 2 15 2 37 0 50 -2 12 -4 0 -4 -28z"/>
<path d="M2862 1615 c0 -16 2 -22 5 -12 2 9 2 23 0 30 -3 6 -5 -1 -5 -18z"/>
<path d="M996 1587 c3 -10 9 -15 12 -12 3 3 0 11 -7 18 -10 9 -11 8 -5 -6z"/>
<path d="M1170 1590 c0 -6 -4 -9 -9 -6 -5 3 -14 -1 -21 -8 -9 -12 -7 -19 8
-34 16 -16 27 -18 53 -13 29 6 34 11 34 36 0 26 -4 30 -32 33 -20 2 -33 -1
-33 -8z"/>
<path d="M2252 1588 c-32 -32 2 -79 43 -60 39 18 27 72 -15 72 -9 0 -21 -5
-28 -12z"/>
<path d="M3280 1580 c-7 -13 -7 -20 -1 -20 6 0 15 9 21 20 7 13 7 20 1 20 -6
0 -15 -9 -21 -20z"/>
<path d="M1490 1537 c0 -40 -2 -43 -26 -42 -15 0 -31 -8 -38 -17 -16 -26 14
-53 48 -44 25 6 26 9 26 76 0 39 -2 70 -5 70 -3 0 -5 -19 -5 -43z"/>
<path d="M2914 1545 c-3 -8 -4 -22 -2 -32 3 -15 14 -18 68 -18 l65 0 0 30 c0
30 0 30 -63 32 -46 1 -65 -2 -68 -12z"/>
<path d="M2857 1490 c-13 -34 -17 -71 -8 -66 5 4 12 -8 14 -26 l4 -33 1 33 c2
26 6 32 25 32 l22 0 -22 18 c-11 9 -23 26 -26 37 -3 15 -5 17 -10 5z"/>
<path d="M2790 1465 c0 -8 5 -15 10 -15 6 0 10 7 10 15 0 8 -4 15 -10 15 -5 0
-10 -7 -10 -15z"/>
<path d="M1360 1430 c0 -5 7 -10 15 -10 8 0 15 5 15 10 0 6 -7 10 -15 10 -8 0
-15 -4 -15 -10z"/>
<path d="M3322 1405 c-1 -18 -10 -35 -22 -43 -28 -17 -26 -60 3 -72 17 -6 26
-4 39 11 20 23 31 24 48 4 10 -12 9 -16 -4 -20 -53 -17 -51 -14 -30 -29 24
-18 12 -31 -15 -16 -14 7 -21 7 -21 0 0 -5 -19 -11 -42 -11 -30 -2 -35 -3 -15
-6 15 -2 27 -8 27 -13 0 -15 -37 -30 -57 -23 -15 6 -16 4 -6 -8 11 -13 8 -15
-16 -11 -38 5 -47 -12 -21 -45 19 -24 19 -27 4 -44 -16 -18 -12 -59 7 -59 5 0
14 -10 19 -22 7 -20 9 -20 9 -4 1 10 8 24 17 30 8 6 17 20 18 31 2 11 10 19
18 17 11 -2 14 4 10 23 -3 18 0 25 12 25 11 0 16 -9 17 -27 l1 -28 8 25 c4 14
5 37 2 53 -4 25 3 32 31 28 4 0 6 2 6 7 -4 23 4 32 30 32 17 0 33 5 36 10 3 6
-1 10 -9 10 -9 0 -17 8 -17 18 -1 9 -3 28 -4 42 -1 13 4 34 12 46 18 29 0 42
-20 14 -9 -13 -20 -18 -30 -14 -15 5 -15 8 0 30 10 16 11 24 4 24 -6 0 -14 -7
-17 -15 -11 -26 -23 -16 -27 23 -3 32 -4 33 -5 7z m-2 -200 c0 -8 -4 -15 -10
-15 -5 0 -10 7 -10 15 0 8 5 15 10 15 6 0 10 -7 10 -15z m30 0 c0 -8 -4 -15
-10 -15 -5 0 -10 7 -10 15 0 8 5 15 10 15 6 0 10 -7 10 -15z m-54 -62 c-3 -3
-13 -2 -23 2 -17 7 -17 8 2 15 19 7 34 -5 21 -17z"/>
<path d="M2600 1395 c8 -10 9 -15 2 -15 -20 0 -33 -37 -17 -50 11 -9 18 -7 35
10 20 20 20 21 3 45 -10 13 -22 25 -27 25 -5 0 -3 -7 4 -15z"/>
<path d="M1383 1379 c-28 -10 -30 -29 -3 -22 20 5 36 21 29 27 -2 2 -14 0 -26
-5z"/>
<path d="M1630 1349 c0 -5 5 -7 10 -4 6 3 10 8 10 11 0 2 -4 4 -10 4 -5 0 -10
-5 -10 -11z"/>
<path d="M1870 1331 c0 -5 7 -11 15 -15 8 -3 15 -1 15 3 0 5 -7 11 -15 15 -8
3 -15 1 -15 -3z"/>
<path d="M1400 1320 c-8 -5 -12 -11 -9 -14 2 -3 11 -1 19 4 8 5 12 11 9 14 -2
3 -11 1 -19 -4z"/>
<path d="M2036 1279 c-15 -23 -12 -44 5 -34 5 4 13 15 19 25 15 28 -6 35 -24
9z"/>
<path d="M2396 1275 c-4 -14 -4 -30 -1 -35 4 -6 -12 -11 -37 -12 l-43 -1 45
-6 c74 -10 97 -3 96 27 -1 18 -7 28 -21 31 -11 2 -23 8 -26 13 -4 5 -9 -2 -13
-17z"/>
<path d="M1468 1279 c-24 -13 -23 -54 1 -71 10 -7 21 -22 24 -33 4 -18 5 -18
6 2 0 13 9 28 20 34 21 14 18 47 -7 67 -19 14 -22 14 -44 1z"/>
<path d="M2840 1282 c-14 -2 -31 -11 -37 -20 -8 -9 -13 -11 -13 -4 0 7 -4 12
-10 12 -5 0 -10 -9 -10 -20 0 -15 -7 -20 -27 -21 -34 -2 -16 -6 60 -14 58 -7
74 -18 37 -28 -13 -3 -20 -14 -20 -31 0 -15 8 -31 20 -38 13 -9 20 -24 20 -45
l0 -32 25 23 c30 28 33 41 5 26 -17 -9 -20 -8 -20 9 0 15 7 19 31 19 16 -1 38
6 47 16 24 24 4 51 -39 51 -24 0 -35 5 -37 18 -2 9 2 17 10 17 9 0 10 2 1 8
-6 4 -13 18 -15 32 -2 20 -8 24 -28 22z"/>
<path d="M3014 1259 c-20 -22 -18 -34 9 -52 l22 -16 -26 0 c-48 -1 -65 -52
-22 -68 9 -4 26 -17 38 -31 12 -14 26 -21 35 -17 26 11 61 74 54 100 -3 14 1
34 11 49 14 21 15 29 5 41 -16 19 -106 16 -126 -6z"/>
<path d="M1836 1235 c-11 -8 -14 -15 -8 -15 7 0 12 -6 12 -13 0 -19 20 -36 36
-30 8 3 14 13 14 23 0 10 8 21 18 23 13 4 12 5 -5 6 -12 0 -25 6 -28 11 -8 13
-16 12 -39 -5z"/>
<path d="M1097 1228 c-9 -6 -8 -8 4 -8 8 0 23 -6 33 -13 18 -13 18 -15 -5 -36
-17 -16 -19 -20 -6 -15 11 4 25 0 37 -11 14 -13 23 -14 38 -6 16 8 21 7 26 -5
8 -22 26 -7 26 21 0 37 -34 51 -60 25 l-20 -20 -10 25 c-13 34 -13 33 8 37 9
3 0 6 -21 9 -20 3 -43 1 -50 -3z"/>
<path d="M2028 1223 c17 -2 47 -2 65 0 17 2 3 4 -33 4 -36 0 -50 -2 -32 -4z"/>
<path d="M2148 1223 c12 -2 30 -2 40 0 9 3 -1 5 -23 4 -22 0 -30 -2 -17 -4z"/>
<path d="M2488 1223 c12 -2 30 -2 40 0 9 3 -1 5 -23 4 -22 0 -30 -2 -17 -4z"/>
<path d="M2938 1223 c12 -2 30 -2 40 0 9 3 -1 5 -23 4 -22 0 -30 -2 -17 -4z"/>
<path d="M3168 1223 c7 -3 16 -2 19 1 4 3 -2 6 -13 5 -11 0 -14 -3 -6 -6z"/>
<path d="M2126 1195 c4 -8 10 -15 15 -15 4 0 6 7 3 15 -4 8 -10 15 -15 15 -4
0 -6 -7 -3 -15z"/>
<path d="M2390 1180 c-8 -12 -14 -26 -13 -31 2 -4 -5 -5 -15 -2 -9 3 -14 3
-10 -1 3 -4 0 -19 -8 -34 -12 -24 -12 -27 2 -30 8 -2 22 2 30 9 19 16 30 4 14
-16 -8 -9 -8 -15 -2 -15 6 0 13 -10 15 -22 3 -17 5 -14 6 10 0 17 1 35 2 40 1
17 34 42 47 37 16 -6 42 11 42 28 0 8 -3 8 -11 0 -8 -8 -18 -4 -35 15 -13 15
-24 21 -24 15 0 -18 -18 -16 -22 3 -2 12 -6 11 -18 -6z"/>
<path d="M2770 1155 c0 -8 5 -15 10 -15 6 0 10 7 10 15 0 8 -4 15 -10 15 -5 0
-10 -7 -10 -15z"/>
<path d="M3504 1155 c-9 -22 9 -37 37 -33 16 2 24 10 24 23 0 26 -52 35 -61
10z"/>
<path d="M2220 1140 c0 -5 5 -10 10 -10 6 0 10 5 10 10 0 6 -4 10 -10 10 -5 0
-10 -4 -10 -10z"/>
<path d="M1239 1079 c-9 -14 -16 -15 -26 -7 -9 7 -17 7 -28 -2 -11 -9 -15 -9
-15 -1 0 7 -4 9 -10 6 -5 -3 -10 -18 -10 -33 0 -20 3 -23 12 -14 9 9 14 7 25
-6 12 -16 14 -16 26 0 11 13 16 15 25 6 9 -9 12 -7 12 10 0 19 3 20 24 12 29
-11 39 -3 26 20 -14 26 -45 31 -61 9z"/>
<path d="M1493 1055 c0 -27 2 -38 4 -22 2 15 2 37 0 50 -2 12 -4 0 -4 -28z"/>
<path d="M1599 1074 c-17 -21 0 -49 31 -49 31 0 48 28 31 49 -8 9 -21 16 -31
16 -10 0 -23 -7 -31 -16z"/>
<path d="M1771 1063 c2 -16 -4 -39 -14 -53 -24 -35 -14 -35 23 -2 35 33 39 74
7 80 -15 3 -18 -2 -16 -25z"/>
<path d="M2233 1080 c-16 -6 -23 -18 -23 -35 0 -16 4 -24 10 -20 6 4 17 2 25
-5 10 -8 19 -8 33 -1 22 12 39 45 20 39 -7 -3 -19 3 -28 13 -11 13 -21 15 -37
9z"/>
<path d="M2617 1084 c-11 -12 -8 -49 5 -62 20 -20 28 -13 21 21 -6 36 -16 51
-26 41z"/>
<path d="M3580 1066 c0 -14 5 -28 10 -31 6 -3 10 5 10 19 0 14 -4 28 -10 31
-6 3 -10 -5 -10 -19z"/>
<path d="M2160 1055 c0 -14 5 -25 10 -25 6 0 10 11 10 25 0 14 -4 25 -10 25
-5 0 -10 -11 -10 -25z"/>
<path d="M1741 1058 c-1 -9 -11 -18 -23 -20 -30 -4 -36 -28 -6 -28 38 0 50 13
39 41 -7 16 -10 18 -10 7z"/>
<path d="M3527 1063 c-4 -6 1 -21 11 -34 12 -13 21 -18 25 -12 4 6 -1 21 -11
34 -12 13 -21 18 -25 12z"/>
<path d="M3102 1044 c2 -9 13 -21 26 -25 19 -7 23 -6 20 7 -2 9 -13 21 -26 25
-19 7 -23 6 -20 -7z"/>
<path d="M1952 1025 c0 -16 2 -22 5 -12 2 9 2 23 0 30 -3 6 -5 -1 -5 -18z"/>
<path d="M3321 997 c-1 -44 0 -47 18 -37 11 5 23 15 26 20 9 15 -12 12 -22 -2
-5 -8 -10 1 -14 27 l-6 40 -2 -48z"/>
<path d="M3492 1008 c7 -13 11 -26 10 -29 -1 -4 8 -5 18 -2 23 6 27 23 6 23
-8 0 -16 7 -20 15 -3 8 -10 15 -16 15 -7 0 -6 -8 2 -22z"/>
<path d="M3440 1001 c0 -25 -25 -34 -41 -15 -17 21 -23 10 -7 -16 11 -18 11
-22 -4 -31 -10 -6 -18 -15 -18 -20 0 -6 4 -7 10 -4 5 3 21 -2 35 -11 24 -16
27 -16 45 1 20 19 17 43 -3 26 -8 -6 -18 -5 -30 4 -15 11 -15 14 -3 25 9 6 19
9 24 6 4 -3 6 8 4 25 -5 33 -12 39 -12 10z"/>
<path d="M3280 1000 c0 -5 5 -10 10 -10 6 0 10 5 10 10 0 6 -4 10 -10 10 -5 0
-10 -4 -10 -10z"/>
<path d="M2845 993 c-11 -2 -30 -6 -42 -9 -14 -2 -23 -12 -23 -22 0 -10 -6
-24 -12 -31 -11 -11 -10 -13 3 -9 8 3 25 0 38 -7 23 -12 23 -12 2 -18 -11 -3
-21 -10 -21 -15 0 -18 42 0 48 20 3 11 10 17 18 14 11 -4 14 6 14 39 0 25 -1
44 -2 44 -2 -1 -12 -3 -23 -6z"/>
<path d="M3130 989 c-19 -3 -29 -7 -22 -8 6 0 12 -12 12 -26 0 -37 34 -51 60
-25 25 25 25 33 3 51 -13 11 -29 13 -53 8z"/>
<path d="M2924 976 c-10 -26 0 -51 21 -51 16 0 20 7 20 30 0 33 -30 49 -41 21z"/>
<path d="M3022 968 c-15 -15 -16 -45 -2 -53 6 -3 10 -21 10 -40 0 -21 6 -37
16 -43 14 -8 10 -12 -20 -22 -20 -6 -43 -10 -50 -7 -8 3 -33 1 -56 -4 -33 -8
-45 -7 -51 3 -5 8 -9 8 -9 2 0 -14 -116 -19 -124 -5 -6 9 -123 6 -187 -5 -19
-3 -52 -1 -72 4 -20 6 -39 7 -42 2 -3 -5 -21 -6 -40 -3 -39 6 -69 -11 -61 -34
4 -8 -7 -25 -24 -39 -16 -14 -27 -31 -24 -38 3 -7 -2 -16 -10 -19 -9 -4 -16
-13 -16 -22 0 -11 -9 -15 -30 -13 -21 2 -30 7 -29 18 1 8 -1 22 -4 30 -3 8 -7
24 -9 35 -2 12 -12 21 -26 23 -25 4 -28 14 -9 30 8 7 18 7 27 2 8 -6 11 -10 6
-10 -20 0 18 -30 39 -30 16 0 25 8 29 25 4 14 13 25 22 25 11 0 14 6 9 23 -10
31 -20 40 -52 43 -79 10 -117 20 -100 26 9 4 17 12 17 17 0 7 -9 7 -25 1 -26
-10 -28 -7 -16 25 11 25 -5 45 -35 45 -34 0 -40 -20 -13 -41 13 -10 18 -19 12
-19 -21 0 -15 -17 8 -23 20 -5 20 -7 4 -31 -16 -24 -14 -31 9 -27 5 1 4 -4 -2
-12 -12 -15 -197 -23 -206 -9 -5 9 -44 8 -68 -3 -16 -6 -16 -8 -1 -23 15 -15
14 -18 -12 -37 -69 -50 -88 -73 -81 -98 7 -29 33 -42 53 -26 10 9 17 9 25 1
18 -18 61 -15 54 3 -3 9 0 15 9 15 8 0 15 6 15 14 0 15 18 31 26 24 2 -3 -3
-25 -11 -49 -20 -55 -5 -93 32 -86 19 3 23 0 23 -22 1 -25 1 -25 15 -7 8 11
12 22 7 25 -4 3 -8 52 -10 109 -2 100 -2 102 20 102 21 1 21 2 6 11 -26 14
-22 29 7 29 14 0 24 -3 22 -8 -1 -4 9 -21 21 -37 l24 -30 23 27 c18 21 25 24
29 13 3 -9 18 -15 36 -15 20 0 30 -5 30 -15 0 -18 -31 -20 -49 -2 -11 10 -14
9 -18 -1 -4 -10 -8 -10 -18 -2 -10 9 -16 6 -25 -9 -6 -12 -17 -21 -25 -21 -18
0 -18 -1 -1 -34 21 -42 60 -66 104 -66 23 0 43 -4 46 -8 3 -5 25 -9 51 -11 48
-2 56 5 59 52 1 13 8 21 15 19 8 -2 17 1 20 7 4 5 14 4 25 -5 20 -14 20 -14 0
-14 -23 0 -46 -33 -38 -54 8 -21 34 -28 51 -14 9 7 27 14 41 16 37 5 52 20 52
52 l0 28 31 -29 c17 -16 28 -33 25 -38 -4 -5 4 -17 16 -26 21 -15 22 -17 6
-26 -25 -14 -23 -32 2 -19 11 6 20 16 20 22 0 13 30 37 47 38 6 0 13 -12 15
-27 4 -37 51 -56 72 -28 8 11 20 16 29 12 18 -7 33 8 17 18 -15 9 -12 35 3 35
26 0 97 41 97 55 0 8 9 24 20 35 18 18 24 18 21 -2 -2 -12 7 -10 34 8 14 9 25
22 25 30 0 7 12 16 28 20 15 3 33 7 39 9 7 3 20 -9 29 -26 15 -30 15 -31 -6
-24 -27 8 -50 -10 -50 -41 0 -25 28 -39 59 -29 11 3 22 1 26 -5 3 -6 11 -8 16
-5 5 4 9 2 9 -4 0 -13 -40 -24 -71 -19 -21 3 -24 0 -20 -27 4 -41 3 -40 65
-43 55 -2 56 -2 82 38 l27 41 -24 25 c-19 20 -21 27 -10 34 10 5 14 30 15 77
l1 68 -42 3 c-41 3 -58 22 -34 36 5 3 11 19 13 36 4 23 1 30 -12 30 -13 0 -16
6 -12 25 8 42 -29 70 -56 43z m-1122 -208 c0 -11 -7 -20 -15 -20 -13 0 -13 3
-3 20 7 11 14 20 15 20 2 0 3 -9 3 -20z m48 -45 c1 -64 1 -64 -18 -45 -11 11
-26 17 -35 14 -11 -5 -15 1 -15 19 0 14 7 27 15 31 8 3 15 15 15 26 0 13 7 20
19 20 16 0 18 -9 19 -65z m602 55 c0 -6 -7 -13 -15 -16 -24 -9 -17 -24 10 -24
27 0 28 -1 19 -24 -8 -20 -44 -21 -44 -1 0 8 -4 15 -8 15 -5 0 -14 11 -20 24
-8 19 -8 26 1 30 22 8 57 6 57 -4z m220 -5 c0 -8 5 -15 10 -15 6 0 10 7 10 15
0 8 7 15 15 15 8 0 15 -8 15 -19 0 -10 7 -24 15 -31 8 -7 15 -23 15 -37 0 -19
-3 -22 -16 -15 -18 10 -51 5 -72 -11 -9 -7 -11 -6 -6 6 4 12 1 14 -14 10 -14
-3 -21 1 -25 16 -4 16 0 21 14 21 10 0 18 3 18 8 -1 4 -1 17 0 30 1 24 21 31
21 7z m87 -17 c-3 -7 -5 -2 -5 12 0 14 2 19 5 13 2 -7 2 -19 0 -25z m-218 -5
c-3 -19 2 -23 20 -13 11 6 22 6 25 1 3 -5 -4 -12 -17 -15 l-22 -7 24 -10 c19
-7 22 -12 13 -21 -21 -21 -14 -36 15 -30 23 4 25 2 20 -17 -4 -16 0 -21 16
-22 17 -1 18 -2 5 -6 -10 -2 -18 -11 -18 -20 0 -10 -5 -13 -17 -8 -10 4 -27 8
-38 9 -13 0 -21 9 -23 24 -4 28 -30 41 -43 21 -21 -34 -41 32 -21 69 7 12 9
22 5 22 -6 1 37 24 55 29 1 1 1 -2 1 -6z m-243 -40 c-10 -10 -19 5 -10 18 6
11 8 11 12 0 2 -7 1 -15 -2 -18z m44 -39 c0 -7 -5 -16 -12 -20 -8 -5 -9 -2 -5
9 3 10 2 17 -3 17 -6 0 -10 10 -10 23 1 21 1 22 15 3 8 -11 15 -25 15 -32z
m667 -10 c2 -5 -6 -15 -17 -22 -17 -10 -20 -10 -20 6 0 30 28 43 37 16z m40
10 c-3 -3 -12 -4 -19 -1 -8 3 -5 6 6 6 11 1 17 -2 13 -5z m-577 -69 c0 -8 -7
-15 -15 -15 -26 0 -18 20 13 29 1 1 2 -6 2 -14z"/>
<path d="M1725 900 c-3 -5 -3 -10 1 -10 4 0 0 -8 -9 -18 -23 -25 -7 -42 36
-40 20 1 34 5 31 9 -3 5 2 19 11 33 17 26 8 41 -15 26 -8 -5 -21 -5 -31 1 -11
6 -20 5 -24 -1z"/>
<path d="M2400 864 l0 -40 53 3 c138 9 132 7 135 32 6 36 -10 43 -102 45 l-86
1 0 -41z"/>
<path d="M3174 893 c5 -15 0 -18 -25 -18 -24 0 -34 -6 -40 -22 -5 -15 -5 -23
2 -23 6 0 13 9 16 20 3 11 9 20 13 20 4 0 10 -9 13 -20 6 -23 54 -28 63 -6 3
8 13 12 24 9 15 -4 18 -1 13 17 -6 22 -9 24 -56 35 -24 5 -28 3 -23 -12z"/>
<path d="M1531 886 c-7 -8 -10 -24 -6 -35 9 -29 36 -35 59 -11 16 16 18 24 10
38 -14 22 -48 27 -63 8z"/>
<path d="M2275 878 c-15 -21 -14 -24 5 -40 12 -9 26 -15 33 -13 7 2 24 6 40 9
20 5 27 12 27 30 0 42 -78 52 -105 14z"/>
<path d="M2938 883 c-9 -38 2 -54 35 -51 28 3 32 7 32 33 0 26 -4 30 -31 33
-24 2 -32 -1 -36 -15z"/>
<path d="M1952 865 c0 -16 2 -22 5 -12 2 9 2 23 0 30 -3 6 -5 -1 -5 -18z"/>
<path d="M1167 863 c5 -13 2 -15 -15 -11 -18 5 -21 1 -24 -31 -3 -30 1 -39 25
-53 15 -10 37 -18 48 -18 11 0 30 -7 43 -16 23 -14 25 -14 40 8 9 12 16 28 16
35 0 21 -36 34 -64 23 -19 -7 -26 -6 -27 3 -3 48 -15 77 -33 77 -10 0 -13 -6
-9 -17z"/>
<path d="M2861 864 c0 -11 3 -14 6 -6 3 7 2 16 -1 19 -3 4 -6 -2 -5 -13z"/>
<path d="M3475 860 c-3 -5 -1 -10 4 -10 6 0 11 5 11 10 0 6 -2 10 -4 10 -3 0
-8 -4 -11 -10z"/>
<path d="M2710 845 c7 -8 17 -15 22 -15 6 0 5 7 -2 15 -7 8 -17 15 -22 15 -6
0 -5 -7 2 -15z"/>
<path d="M3320 833 c0 -18 2 -33 4 -33 9 0 13 39 5 51 -6 10 -9 4 -9 -18z"/>
<path d="M1540 790 c-22 -5 -27 -8 -13 -9 13 0 27 -12 35 -28 11 -24 19 -28
53 -27 40 2 42 4 30 37 -5 12 -2 17 11 18 14 1 13 3 -6 9 -30 10 -64 10 -110
0z"/>
<path d="M3288 783 c7 -3 16 -2 19 1 4 3 -2 6 -13 5 -11 0 -14 -3 -6 -6z"/>
<path d="M3488 783 c7 -3 16 -2 19 1 4 3 -2 6 -13 5 -11 0 -14 -3 -6 -6z"/>
<path d="M1490 675 c0 -31 -4 -54 -9 -51 -5 3 -14 0 -20 -8 -9 -11 -7 -20 12
-40 21 -23 26 -24 37 -11 7 8 21 15 32 15 10 0 21 6 24 13 3 8 11 14 19 14 11
0 12 -4 4 -13 -23 -28 25 -47 61 -24 13 8 13 14 -4 44 -18 33 -20 34 -40 21
-11 -8 -23 -15 -27 -15 -14 0 -19 33 -7 48 11 13 10 14 -2 9 -8 -4 -23 -10
-32 -13 -10 -4 -18 -10 -18 -14 0 -5 8 -11 18 -13 12 -3 13 -5 2 -6 -22 -1
-48 19 -32 26 17 7 15 41 -3 59 -13 14 -15 9 -15 -41z"/>
<path d="M1043 714 c-7 -3 -13 -16 -13 -30 0 -31 44 -44 68 -20 29 29 -14 67
-55 50z"/>
<path d="M1157 682 c-2 -4 -5 -24 -6 -44 -2 -37 -1 -38 29 -38 26 0 31 3 26
16 -4 9 -1 22 5 30 8 10 3 16 -20 28 -16 9 -32 13 -34 8z"/>
<path d="M3360 675 c0 -9 7 -18 15 -21 8 -4 15 -11 15 -17 0 -5 -8 -3 -17 5
-10 9 -23 14 -29 11 -6 -2 -17 3 -24 12 -28 34 -96 3 -73 -33 5 -10 20 -18 31
-20 20 -3 21 -5 6 -27 -15 -23 -14 -26 12 -50 24 -22 29 -24 36 -10 5 8 16 15
24 15 8 0 12 -4 9 -10 -10 -17 7 -11 20 7 11 15 14 14 25 -8 15 -28 41 -49 52
-43 4 3 5 -2 2 -11 -6 -13 -1 -16 21 -13 34 4 47 28 15 28 -12 0 -18 4 -15 11
4 6 13 8 21 5 8 -3 14 -1 14 5 0 5 -7 12 -15 15 -21 8 -19 31 4 39 17 5 18 8
5 34 -17 33 -48 45 -65 25 -17 -20 -32 -6 -24 24 7 28 -7 42 -42 42 -14 0 -23
-6 -23 -15z m113 -84 c3 -14 1 -18 -9 -14 -15 6 -18 16 -7 26 9 10 10 9 16
-12z"/>
<path d="M2940 658 c-6 -18 -4 -27 12 -41 12 -10 23 -15 27 -12 3 3 0 10 -7
14 -10 6 -10 15 -3 34 9 22 8 27 -5 27 -8 0 -19 -10 -24 -22z"/>
<path d="M3555 654 c-11 -8 -25 -12 -32 -10 -16 7 -16 4 1 -29 8 -14 16 -21
18 -14 3 9 9 8 26 -2 39 -24 80 22 52 56 -16 19 -40 19 -65 -1z"/>
<path d="M1146 582 c-3 -5 3 -17 13 -26 11 -10 22 -13 25 -8 3 5 -3 17 -13 26
-11 10 -22 13 -25 8z"/>
<path d="M2861 578 c0 -10 -8 -18 -16 -18 -8 0 -12 -6 -9 -14 3 -8 1 -17 -5
-21 -6 -3 -11 -14 -11 -25 0 -13 5 -17 21 -13 14 4 20 1 19 -8 -1 -8 -1 -23 0
-34 1 -15 3 -16 7 -5 3 8 12 22 19 30 11 13 11 20 -1 43 -7 15 -16 39 -18 54
-2 16 -5 20 -6 11z"/>
<path d="M1440 565 c7 -8 17 -15 22 -15 6 0 5 7 -2 15 -7 8 -17 15 -22 15 -6
0 -5 -7 2 -15z"/>
<path d="M1330 560 c0 -5 7 -10 15 -10 8 0 15 5 15 10 0 6 -7 10 -15 10 -8 0
-15 -4 -15 -10z"/>
<path d="M1713 508 c3 -64 18 -87 51 -75 25 10 30 36 11 57 -11 13 -16 30 -13
50 4 27 2 30 -24 30 -28 0 -28 0 -25 -62z"/>
<path d="M2048 539 c5 -13 14 -25 20 -27 8 -2 9 3 4 19 -5 13 -14 25 -20 27
-8 2 -9 -3 -4 -19z"/>
<path d="M1310 526 c0 -14 5 -28 10 -31 6 -3 10 5 10 19 0 14 -4 28 -10 31 -6
3 -10 -5 -10 -19z"/>
<path d="M3174 536 c-10 -8 -16 -17 -13 -20 3 -3 14 1 25 8 10 8 16 17 13 20
-3 3 -14 -1 -25 -8z"/>
<path d="M1433 529 c-28 -10 -30 -29 -3 -22 20 5 36 21 29 27 -2 2 -14 0 -26
-5z"/>
<path d="M1999 518 c4 -13 16 -24 25 -26 13 -3 14 1 7 20 -4 13 -16 24 -25 26
-13 3 -14 -1 -7 -20z"/>
<path d="M1622 467 c6 -16 13 -25 17 -19 3 5 15 11 26 13 11 3 21 12 23 22 3
14 -4 17 -36 15 -40 -1 -40 -1 -30 -31z"/>
<path d="M2242 480 c0 -14 2 -19 5 -12 2 6 2 18 0 25 -3 6 -5 1 -5 -13z"/>
<path d="M2281 468 c-5 -13 -7 -25 -5 -27 8 -9 32 9 37 28 7 29 -21 28 -32 -1z"/>
<path d="M2565 460 c-3 -6 1 -7 9 -4 18 7 21 14 7 14 -6 0 -13 -4 -16 -10z"/>
<path d="M2903 439 c-28 -10 -30 -29 -3 -22 20 5 36 21 29 27 -2 2 -14 0 -26
-5z"/>
<path d="M373 2133 c21 -6 22 -26 2 -43 -26 -22 -16 -30 33 -28 45 3 47 4 50
36 4 36 -18 53 -43 32 -10 -9 -15 -9 -15 -1 0 6 -10 10 -22 10 -17 -1 -19 -2
-5 -6z m77 -33 c0 -10 -5 -22 -10 -25 -13 -8 -24 20 -16 41 8 20 26 9 26 -16z
m-40 -10 c0 -11 -7 -20 -15 -20 -13 0 -13 3 -3 20 7 11 14 20 15 20 2 0 3 -9
3 -20z"/>
<path d="M203 1893 c-28 -11 -11 -18 33 -14 32 2 42 6 33 12 -15 9 -46 11 -66
2z"/>
<path d="M211 1843 c-1 -27 24 -31 34 -5 7 16 8 15 15 -3 8 -19 9 -19 9 3 1
26 -26 30 -36 5 -6 -15 -7 -15 -14 3 -7 17 -8 17 -8 -3z"/>
<path d="M197 1792 c-8 -11 -3 -13 28 -10 21 2 40 8 42 13 5 15 -57 12 -70 -3z"/>
<path d="M214 1755 c-4 -9 -2 -21 4 -27 16 -16 47 -5 47 17 0 26 -42 34 -51
10z m41 -4 c7 -12 -12 -24 -25 -16 -11 7 -4 25 10 25 5 0 11 -4 15 -9z"/>
<path d="M217 1703 c-4 -3 -7 -15 -7 -25 0 -14 7 -18 33 -17 21 1 25 3 12 6
-34 8 -41 23 -12 23 15 0 27 5 27 10 0 11 -43 14 -53 3z"/>
<path d="M358 1693 c6 -2 12 -17 12 -33 0 -16 -6 -31 -12 -33 -7 -3 9 -6 35
-6 53 -1 75 21 44 44 -22 16 -21 22 1 28 10 3 6 5 -10 6 -21 1 -28 -4 -28 -18
0 -11 9 -21 21 -24 27 -7 15 -27 -17 -27 -21 0 -24 5 -24 35 0 27 -4 35 -17
34 -11 0 -13 -3 -5 -6z"/>
<path d="M190 1643 c0 -5 5 -14 12 -21 9 -9 9 -12 0 -12 -7 0 -12 -4 -12 -10
0 -5 18 -10 40 -10 22 0 40 5 40 10 0 6 -6 10 -14 10 -7 0 -25 9 -40 21 -14
11 -26 17 -26 12z"/>
<path d="M250 1635 c-8 -9 -8 -15 -2 -15 12 0 26 19 19 26 -2 2 -10 -2 -17
-11z"/>
<path d="M200 1566 c12 -12 68 -12 80 0 6 6 -10 9 -40 9 -30 0 -45 -4 -40 -9z"/>
<path d="M198 1503 c6 -2 12 -13 12 -24 0 -14 7 -19 30 -19 25 0 30 4 30 25 0
23 -4 25 -42 24 -24 0 -37 -3 -30 -6z m62 -23 c0 -5 -9 -10 -20 -10 -11 0 -20
5 -20 10 0 6 9 10 20 10 11 0 20 -4 20 -10z"/>
<path d="M217 1443 c-12 -11 -8 -43 5 -43 9 0 9 -3 0 -12 -16 -16 -15 -45 1
-52 10 -5 10 -7 0 -12 -7 -3 -13 -17 -13 -30 0 -21 4 -24 40 -24 22 0 40 5 40
10 0 6 -4 10 -10 10 -5 0 -10 6 -10 14 0 8 -6 17 -12 20 -10 5 -10 7 0 12 6 3
11 15 11 27 -1 17 -2 18 -6 5 -2 -10 -9 -18 -14 -18 -15 0 -10 36 6 50 8 7 14
22 14 34 -2 20 -2 20 -6 -1 -5 -28 -23 -30 -23 -3 0 20 -11 26 -23 13z m43
-143 c0 -5 -9 -10 -20 -10 -11 0 -20 5 -20 10 0 6 9 10 20 10 11 0 20 -4 20
-10z"/>
<path d="M368 1263 c6 -2 12 -17 12 -33 0 -16 -6 -31 -12 -33 -7 -3 10 -5 37
-4 l50 2 0 35 c0 28 -4 35 -20 35 -15 0 -21 -8 -23 -32 -4 -44 -22 -42 -22 2
0 27 -4 35 -17 34 -11 0 -13 -3 -5 -6z m82 -33 c0 -25 -18 -36 -26 -16 -8 21
3 49 16 41 5 -3 10 -15 10 -25z"/>
<path d="M211 1243 c-1 -27 24 -31 34 -5 7 16 8 15 15 -3 8 -19 9 -19 9 3 1
26 -26 30 -36 5 -6 -15 -7 -15 -14 3 -7 17 -8 17 -8 -3z"/>
<path d="M190 1200 c0 -5 5 -10 10 -10 6 0 10 -6 10 -14 0 -8 7 -16 15 -20 25
-9 45 4 45 30 0 21 -4 24 -40 24 -22 0 -40 -4 -40 -10z m70 -20 c0 -5 -9 -10
-20 -10 -11 0 -20 5 -20 10 0 6 9 10 20 10 11 0 20 -4 20 -10z"/>
<path d="M210 1115 c0 -21 5 -25 30 -25 17 0 30 5 30 10 0 6 -11 10 -25 10
-34 0 -32 18 3 23 25 4 25 4 -5 6 -29 1 -33 -2 -33 -24z"/>
<path d="M223 1073 c9 -2 25 -2 35 0 9 3 1 5 -18 5 -19 0 -27 -2 -17 -5z"/>
<path d="M190 1050 c0 -5 10 -11 23 -13 l22 -4 -22 -8 c-13 -4 -23 -11 -23
-15 0 -4 10 -11 23 -15 l22 -8 -22 -4 c-13 -2 -23 -9 -23 -14 0 -6 9 -8 20 -5
11 3 29 9 40 12 27 7 25 22 -2 27 l-23 4 23 8 c30 10 28 23 -5 31 -16 3 -34 7
-40 10 -7 2 -13 -1 -13 -6z"/>
<path d="M420 810 c0 -11 7 -20 15 -20 21 0 19 -28 -2 -33 -14 -4 -13 -5 4 -6
12 0 24 3 27 8 9 14 -4 41 -20 41 -20 0 -17 18 4 23 13 4 11 5 -5 6 -17 1 -23
-5 -23 -19z"/>
<path d="M417 380 c-8 -31 3 -60 23 -60 22 0 34 31 25 60 -3 11 -15 20 -25 20
-9 0 -20 -9 -23 -20z m33 -20 c0 -16 -4 -30 -10 -30 -5 0 -10 14 -10 30 0 17
5 30 10 30 6 0 10 -13 10 -30z"/>
<path d="M555 270 c-5 -15 -16 -20 -43 -22 l-37 -1 34 -4 c19 -3 40 -12 47
-20 13 -19 44 -11 44 12 0 9 -7 18 -15 21 -20 8 -19 21 3 27 13 4 12 5 -5 6
-14 1 -24 -6 -28 -19z m35 -35 c0 -8 -4 -15 -9 -15 -13 0 -22 16 -14 24 11 11
23 6 23 -9z"/>
<path d="M615 270 c-9 -29 3 -60 25 -60 20 0 31 29 23 60 -3 11 -14 20 -23 20
-10 0 -22 -9 -25 -20z m35 -20 c0 -16 -4 -30 -10 -30 -5 0 -10 14 -10 30 0 17
5 30 10 30 6 0 10 -13 10 -30z"/>
<path d="M1036 265 c4 -15 2 -25 -5 -25 -6 0 -8 8 -4 18 5 14 3 15 -8 5 -7 -7
-29 -14 -48 -14 -32 -1 -31 -2 13 -10 27 -4 52 -13 56 -20 6 -8 9 -8 12 1 6
20 -3 70 -13 70 -5 0 -7 -11 -3 -25z"/>
<path d="M1074 276 c-11 -28 0 -61 21 -61 16 0 20 7 20 35 0 25 -5 36 -18 38
-9 2 -20 -3 -23 -12z m36 -26 c0 -16 -4 -30 -9 -30 -13 0 -21 27 -15 45 10 25
24 17 24 -15z"/>
<path d="M1460 280 c0 -5 7 -7 15 -4 9 4 15 0 15 -9 0 -8 -7 -20 -15 -27 -23
-19 -18 -30 13 -29 18 1 21 3 9 6 -17 4 -18 6 -2 24 10 10 15 25 12 34 -7 16
-47 21 -47 5z"/>
<path d="M1525 270 c-9 -29 3 -60 25 -60 20 0 31 29 23 60 -3 11 -14 20 -23
20 -10 0 -22 -9 -25 -20z m35 -20 c0 -16 -4 -30 -10 -30 -5 0 -10 14 -10 30 0
17 5 30 10 30 6 0 10 -13 10 -30z"/>
<path d="M1927 270 c-8 -31 3 -60 23 -60 10 0 22 9 25 20 9 29 -3 60 -25 60
-9 0 -20 -9 -23 -20z m33 -20 c0 -16 -4 -30 -10 -30 -5 0 -10 14 -10 30 0 17
5 30 10 30 6 0 10 -13 10 -30z"/>
<path d="M2373 283 c21 -6 22 -26 2 -43 -26 -22 -16 -30 33 -28 45 3 47 4 50
36 4 36 -18 53 -43 32 -10 -9 -15 -9 -15 -1 0 6 -10 10 -22 10 -17 -1 -19 -2
-5 -6z m77 -33 c0 -10 -5 -22 -10 -25 -13 -8 -24 20 -16 41 8 20 26 9 26 -16z
m-40 -10 c0 -11 -7 -20 -15 -20 -13 0 -13 3 -3 20 7 11 14 20 15 20 2 0 3 -9
3 -20z"/>
<path d="M2816 265 c-20 -31 -20 -35 3 -35 11 0 22 -6 24 -12 4 -10 6 -9 6 1
1 11 4 11 16 1 25 -21 47 -4 43 32 -4 42 -38 47 -49 8 l-7 -25 -1 28 c-1 34
-14 35 -35 2z m84 -15 c0 -25 -18 -36 -26 -16 -8 21 3 49 16 41 5 -3 10 -15
10 -25z m-64 -7 c-10 -10 -19 5 -10 18 6 11 8 11 12 0 2 -7 1 -15 -2 -18z"/>
<path d="M3274 276 c-3 -8 -4 -25 -2 -38 3 -20 9 -23 48 -23 45 0 45 0 45 35
0 26 -5 36 -18 38 -12 2 -20 -3 -24 -16 -3 -14 -11 -18 -25 -14 -20 5 -20 6
-3 19 17 12 17 13 2 13 -10 0 -20 -6 -23 -14z m86 -26 c0 -25 -18 -36 -26 -16
-8 21 3 49 16 41 5 -3 10 -15 10 -25z m-58 -15 c0 -5 -5 -11 -11 -13 -6 -2
-11 4 -11 13 0 9 5 15 11 13 6 -2 11 -8 11 -13z"/>
<path d="M3728 260 c-6 -42 1 -49 52 -47 44 2 45 2 45 37 0 35 0 35 -46 37
-45 2 -47 1 -51 -27z m32 10 c0 -5 -4 -10 -10 -10 -5 0 -10 5 -10 10 0 6 5 10
10 10 6 0 10 -4 10 -10z m60 -20 c0 -25 -18 -36 -26 -16 -8 21 3 49 16 41 5
-3 10 -15 10 -25z m-60 -15 c0 -8 -4 -15 -10 -15 -5 0 -10 7 -10 15 0 8 5 15
10 15 6 0 10 -7 10 -15z"/>
<path d="M1408 243 c12 -2 30 -2 40 0 9 3 -1 5 -23 4 -22 0 -30 -2 -17 -4z"/>
<path d="M2022 113 l-2 -43 51 0 c49 0 50 1 47 28 -2 21 -9 27 -28 29 -14 1
-17 -1 -8 -3 15 -5 15 -7 -3 -25 -30 -30 -47 -24 -52 19 l-4 37 -1 -42z m83
-23 c-3 -5 -11 -10 -16 -10 -6 0 -7 5 -4 10 3 6 11 10 16 10 6 0 7 -4 4 -10z"/>
<path d="M2200 140 c0 -5 -7 -10 -15 -10 -10 0 -15 -10 -15 -30 0 -38 17 -39
23 -2 l4 27 2 -27 c1 -20 6 -28 19 -27 10 0 12 3 5 6 -15 5 -17 40 -4 45 5 2
3 9 -5 16 -8 7 -14 8 -14 2z"/>
<path d="M2340 141 c0 -5 -9 -11 -21 -14 -29 -8 -22 -51 9 -55 20 -3 22 1 22
37 0 23 -2 41 -5 41 -3 0 -5 -4 -5 -9z m-5 -51 c-5 -8 -11 -8 -17 -2 -6 6 -7
16 -3 22 5 8 11 8 17 2 6 -6 7 -16 3 -22z"/>
<path d="M2132 109 c4 -42 23 -49 22 -7 0 18 -6 34 -13 36 -9 3 -11 -6 -9 -29z"/>
<path d="M2243 105 c2 -23 7 -31 25 -33 19 -3 22 1 21 30 -1 28 -2 29 -7 10
-4 -13 -11 -23 -17 -23 -5 0 -13 10 -17 23 -6 19 -7 18 -5 -7z"/>
<path d="M2367 116 c-10 -25 3 -46 27 -45 16 1 17 2 4 6 -25 6 -22 23 3 23 26
0 20 24 -8 28 -11 2 -23 -4 -26 -12z"/>
</g>
</svg>
